<?xml version="1.0" encoding="UTF-8" standalone="no"?>
<!-- Generator: Adobe Illustrator 19.1.0, SVG Export Plug-In . SVG Version: 6.00 Build 0)  -->

<svg
   xmlns:dc="http://purl.org/dc/elements/1.1/"
   xmlns:cc="http://creativecommons.org/ns#"
   xmlns:rdf="http://www.w3.org/1999/02/22-rdf-syntax-ns#"
   xmlns:svg="http://www.w3.org/2000/svg"
   xmlns="http://www.w3.org/2000/svg"
   xmlns:sodipodi="http://sodipodi.sourceforge.net/DTD/sodipodi-0.dtd"
   xmlns:inkscape="http://www.inkscape.org/namespaces/inkscape"
   version="1.1"
   id="Layer_1"
   x="0px"
   y="0px"
   viewBox="0 0 250 250"
   style="enable-background:new 0 0 250 250;"
   xml:space="preserve"
   inkscape:version="0.91 r13725"
   sodipodi:docname="angular.svg"><metadata
     id="metadata3406"><rdf:RDF><cc:Work
         rdf:about=""><dc:format>image/svg+xml</dc:format><dc:type
           rdf:resource="http://purl.org/dc/dcmitype/StillImage" /><dc:title></dc:title></cc:Work></rdf:RDF></metadata><defs
     id="defs3404" /><sodipodi:namedview
     pagecolor="#ffffff"
     bordercolor="#666666"
     borderopacity="1"
     objecttolerance="10"
     gridtolerance="10"
     guidetolerance="10"
     inkscape:pageopacity="0"
     inkscape:pageshadow="2"
     inkscape:window-width="1920"
     inkscape:window-height="985"
     id="namedview3402"
     showgrid="false"
     inkscape:zoom="3.392"
     inkscape:cx="75.029481"
     inkscape:cy="125"
     inkscape:window-x="0"
     inkscape:window-y="24"
     inkscape:window-maximized="1"
     inkscape:current-layer="Layer_1" /><style
     type="text/css"
     id="style3392">
	.st0{fill:#DD0031;}
	.st1{fill:#C3002F;}
	.st2{fill:#FFFFFF;}
</style><g
     id="g3394"
     transform="matrix(1.2236244,0,0,1.2236244,-27.95305,-34.071172)"><polygon
       class="st0"
       points="218.1,63.2 125,30 125,30 125,30 31.9,63.2 46.1,186.3 125,230 125,230 125,230 203.9,186.3 "
       id="polygon3396"
       style="fill:#dd0031" /><polygon
       class="st1"
       points="125,30 125,30 125,52.2 125,52.1 125,153.4 125,153.4 125,230 125,230 203.9,186.3 218.1,63.2 "
       id="polygon3398"
       style="fill:#c3002f" /><path
       class="st2"
       d="m 125,52.1 -58.2,130.5 0,0 21.7,0 0,0 11.7,-29.2 49.4,0 11.7,29.2 0,0 21.7,0 0,0 -58,-130.5 0,0 0,0 0,0 0,0 z m 17,83.3 -34,0 17,-40.9 17,40.9 z"
       id="path3400"
       inkscape:connector-curvature="0"
       style="fill:#ffffff" /></g></svg>