<?xml version="1.0" encoding="UTF-8" standalone="no"?>
<!-- Created with Inkscape (http://www.inkscape.org/) -->

<svg
   xmlns:dc="http://purl.org/dc/elements/1.1/"
   xmlns:cc="http://creativecommons.org/ns#"
   xmlns:rdf="http://www.w3.org/1999/02/22-rdf-syntax-ns#"
   xmlns:svg="http://www.w3.org/2000/svg"
   xmlns="http://www.w3.org/2000/svg"
   xmlns:sodipodi="http://sodipodi.sourceforge.net/DTD/sodipodi-0.dtd"
   xmlns:inkscape="http://www.inkscape.org/namespaces/inkscape"
   id="svg3632"
   version="1.1"
   inkscape:version="0.91 r13725"
   xml:space="preserve"
   width="220.47501"
   height="220.60001"
   viewBox="0 0 220.47501 220.60001"
   sodipodi:docname="digitalocean.svg"><metadata
     id="metadata3638"><rdf:RDF><cc:Work
         rdf:about=""><dc:format>image/svg+xml</dc:format><dc:type
           rdf:resource="http://purl.org/dc/dcmitype/StillImage" /><dc:title></dc:title></cc:Work></rdf:RDF></metadata><defs
     id="defs3636" /><sodipodi:namedview
     pagecolor="#ffffff"
     bordercolor="#666666"
     borderopacity="1"
     objecttolerance="10"
     gridtolerance="10"
     guidetolerance="10"
     inkscape:pageopacity="0"
     inkscape:pageshadow="2"
     inkscape:window-width="1920"
     inkscape:window-height="985"
     id="namedview3634"
     showgrid="false"
     inkscape:zoom="1.0698096"
     inkscape:cx="110.2375"
     inkscape:cy="110.3"
     inkscape:window-x="0"
     inkscape:window-y="24"
     inkscape:window-maximized="1"
     inkscape:current-layer="g3640" /><g
     id="g3640"
     inkscape:groupmode="layer"
     inkscape:label="ink_ext_XXXXXX"
     transform="matrix(1.25,0,0,-1.25,0,220.6)"><g
       id="g3642"
       transform="scale(0.1,0.1)"><path
         d="m 882,0 0,342 c 362,0 643,359 504,740 -51,141 -164,254 -305,305 C 700,1525 341,1245 341,883 L 0,883 c 0,577 558,1027 1163,838 264,-83 475,-293 557,-557 C 1909,558 1460,0 882,0"
         style="fill:#4b73c2;fill-opacity:1;fill-rule:nonzero;stroke:none"
         id="path3644"
         inkscape:connector-curvature="0" /><path
         d="m 883,341 -340,0 0,340 340,0 0,-340"
         style="fill:#4b73c2;fill-opacity:1;fill-rule:nonzero;stroke:none"
         id="path3646"
         inkscape:connector-curvature="0" /><path
         d="m 543,79 -262,0 0,262 262,0 0,-262"
         style="fill:#4b73c2;fill-opacity:1;fill-rule:nonzero;stroke:none"
         id="path3648"
         inkscape:connector-curvature="0" /><path
         d="m 281,341 -219,0 0,219 219,0 0,-219"
         style="fill:#4b73c2;fill-opacity:1;fill-rule:nonzero;stroke:none"
         id="path3650"
         inkscape:connector-curvature="0" /></g><path
       style="fill:#0080ff;fill-opacity:1"
       d="m 110.9853,199.19433 0,-21.03178 2.84365,0 c 10.30191,0 26.08583,-5.81426 37.07849,-13.65846 11.21628,-8.00377 21.42619,-23.28304 25.22701,-37.75256 2.41987,-9.21228 2.1841,-25.53016 -0.50568,-35.000074 C 168.54723,66.819482 151.3523,50.383464 126.03174,44.343432 114.63271,41.624277 99.551293,42.221449 89.018774,45.809018 73.979119,50.931802 59.858266,62.166161 52.149751,75.141515 c -4.671412,7.86315 -8.271023,17.987769 -8.996228,25.303655 -0.28757,2.90103 -0.714594,6.22101 -0.948942,7.37776 l -0.426087,2.10317 -20.546599,0 -20.54659837,0 0,-5.01865 c 0,-2.76027 0.65112357,-8.752478 1.44694117,-13.316039 C 8.167889,56.980424 30.236486,27.52757 61.880024,11.851732 92.584642,-3.3589774 129.67148,-3.1938696 160.52683,12.290899 c 31.36064,15.738353 52.26583,44.599741 58.14262,80.270834 1.45803,8.849917 1.39471,27.398137 -0.12309,36.059287 -8.31538,47.45075 -46.92045,84.48908 -94.47462,90.6405 -3.85583,0.49878 -8.37766,0.91985 -10.04852,0.93572 l -3.03792,0.0289 0,-21.03178 z"
       id="path3652"
       inkscape:connector-curvature="0"
       transform="matrix(0.8,0,0,-0.8,0,176.48)" /><path
       style="fill:#0080ff;fill-opacity:1"
       d="m 8.1632629,164.14136 0,-13.08644 13.0864411,0 13.086441,0 0,13.08644 0,13.08644 -13.086441,0 -13.0864411,0 0,-13.08644 z"
       id="path3654"
       inkscape:connector-curvature="0"
       transform="matrix(0.8,0,0,-0.8,0,176.48)" /><path
       style="fill:#0080ff;fill-opacity:1"
       d="m 35.270891,194.05323 0,-15.89068 15.890678,0 15.890679,0 0,15.89068 0,15.89067 -15.890679,0 -15.890678,0 0,-15.89067 z"
       id="path3656"
       inkscape:connector-curvature="0"
       transform="matrix(0.8,0,0,-0.8,0,176.48)" /><path
       style="fill:#0080ff;fill-opacity:1"
       d="m 67.986993,156.66339 0,-20.5644 21.031781,0 21.031776,0 0,20.5644 0,20.56441 -21.031776,0 -21.031781,0 0,-20.56441 z"
       id="path3658"
       inkscape:connector-curvature="0"
       transform="matrix(0.8,0,0,-0.8,0,176.48)" /></g></svg>