<?xml version="1.0" encoding="UTF-8" standalone="no"?>
<!-- Created with Inkscape (http://www.inkscape.org/) -->

<svg
   xmlns:dc="http://purl.org/dc/elements/1.1/"
   xmlns:cc="http://creativecommons.org/ns#"
   xmlns:rdf="http://www.w3.org/1999/02/22-rdf-syntax-ns#"
   xmlns:svg="http://www.w3.org/2000/svg"
   xmlns="http://www.w3.org/2000/svg"
   xmlns:xlink="http://www.w3.org/1999/xlink"
   xmlns:sodipodi="http://sodipodi.sourceforge.net/DTD/sodipodi-0.dtd"
   xmlns:inkscape="http://www.inkscape.org/namespaces/inkscape"
   width="300mm"
   height="180mm"
   viewBox="0 0 300 180"
   version="1.1"
   id="svg8"
   inkscape:version="0.92.2 (5c3e80d, 2017-08-06)"
   sodipodi:docname="splash.svg">
  <sodipodi:namedview
     id="base"
     pagecolor="#000000"
     bordercolor="#666666"
     borderopacity="1.0"
     inkscape:pageopacity="0"
     inkscape:pageshadow="2"
     inkscape:zoom="0.73516814"
     inkscape:cx="557.10113"
     inkscape:cy="528.67651"
     inkscape:document-units="mm"
     inkscape:current-layer="svg8"
     showgrid="false"
     inkscape:window-width="1920"
     inkscape:window-height="952"
     inkscape:window-x="0"
     inkscape:window-y="27"
     inkscape:window-maximized="1"
     inkscape:pagecheckerboard="true" />
  <defs
     id="defs2">
    <linearGradient
       inkscape:collect="always"
       id="linearGradient1796">
      <stop
         style="stop-color:#004c92;stop-opacity:1;"
         offset="0"
         id="stop1792" />
      <stop
         style="stop-color:#004c92;stop-opacity:0;"
         offset="1"
         id="stop1794" />
    </linearGradient>
    <linearGradient
       id="linearGradient1699"
       inkscape:collect="always">
      <stop
         id="stop1695"
         offset="0"
         style="stop-color:#ff00bf;stop-opacity:1" />
      <stop
         id="stop1697"
         offset="1"
         style="stop-color:#9c00ff;stop-opacity:1" />
    </linearGradient>
    <linearGradient
       inkscape:collect="always"
       id="linearGradient9285">
      <stop
         style="stop-color:#000000;stop-opacity:1;"
         offset="0"
         id="stop9281" />
      <stop
         style="stop-color:#000000;stop-opacity:0;"
         offset="1"
         id="stop9283" />
    </linearGradient>
    <marker
       inkscape:stockid="StopM"
       orient="auto"
       refY="0"
       refX="0"
       id="StopM"
       style="overflow:visible"
       inkscape:isstock="true">
      <path
         id="path5070"
         d="M 0,5.65 V -5.65"
         style="fill:none;fill-opacity:0.75;fill-rule:evenodd;stroke:#000000;stroke-width:1.00000003pt;stroke-opacity:1"
         transform="scale(0.4)"
         inkscape:connector-curvature="0" />
    </marker>
    <marker
       inkscape:stockid="StopL"
       orient="auto"
       refY="0"
       refX="0"
       id="StopL"
       style="overflow:visible"
       inkscape:isstock="true">
      <path
         id="path5067"
         d="M 0,5.65 V -5.65"
         style="fill:none;fill-opacity:0.75;fill-rule:evenodd;stroke:#000000;stroke-width:1.00000003pt;stroke-opacity:1"
         transform="scale(0.8)"
         inkscape:connector-curvature="0" />
    </marker>
    <marker
       inkscape:stockid="EmptyTriangleOutS"
       orient="auto"
       refY="0"
       refX="0"
       id="EmptyTriangleOutS"
       style="overflow:visible"
       inkscape:isstock="true">
      <path
         id="path5064"
         d="M 5.77,0 -2.88,5 V -5 Z"
         style="fill:#ffffff;fill-rule:evenodd;stroke:#000000;stroke-width:1.00000003pt;stroke-opacity:1"
         transform="matrix(0.2,0,0,0.2,-0.6,0)"
         inkscape:connector-curvature="0" />
    </marker>
    <marker
       inkscape:stockid="EmptyTriangleOutM"
       orient="auto"
       refY="0"
       refX="0"
       id="EmptyTriangleOutM"
       style="overflow:visible"
       inkscape:isstock="true">
      <path
         id="path5061"
         d="M 5.77,0 -2.88,5 V -5 Z"
         style="fill:#ffffff;fill-rule:evenodd;stroke:#000000;stroke-width:1.00000003pt;stroke-opacity:1"
         transform="matrix(0.4,0,0,0.4,-1.8,0)"
         inkscape:connector-curvature="0" />
    </marker>
    <marker
       inkscape:stockid="EmptyTriangleOutL"
       orient="auto"
       refY="0"
       refX="0"
       id="EmptyTriangleOutL"
       style="overflow:visible"
       inkscape:isstock="true">
      <path
         id="path5058"
         d="M 5.77,0 -2.88,5 V -5 Z"
         style="fill:#ffffff;fill-rule:evenodd;stroke:#000000;stroke-width:1.00000003pt;stroke-opacity:1"
         transform="matrix(0.8,0,0,0.8,-4.8,0)"
         inkscape:connector-curvature="0" />
    </marker>
    <marker
       inkscape:stockid="EmptyTriangleInS"
       orient="auto"
       refY="0"
       refX="0"
       id="EmptyTriangleInS"
       style="overflow:visible"
       inkscape:isstock="true">
      <path
         id="path5055"
         d="M 5.77,0 -2.88,5 V -5 Z"
         style="fill:#ffffff;fill-rule:evenodd;stroke:#000000;stroke-width:1.00000003pt;stroke-opacity:1"
         transform="matrix(-0.2,0,0,-0.2,0.6,0)"
         inkscape:connector-curvature="0" />
    </marker>
    <marker
       inkscape:stockid="EmptyTriangleInM"
       orient="auto"
       refY="0"
       refX="0"
       id="EmptyTriangleInM"
       style="overflow:visible"
       inkscape:isstock="true">
      <path
         id="path5052"
         d="M 5.77,0 -2.88,5 V -5 Z"
         style="fill:#ffffff;fill-rule:evenodd;stroke:#000000;stroke-width:1.00000003pt;stroke-opacity:1"
         transform="matrix(-0.4,0,0,-0.4,1.8,0)"
         inkscape:connector-curvature="0" />
    </marker>
    <marker
       inkscape:stockid="EmptyTriangleInL"
       orient="auto"
       refY="0"
       refX="0"
       id="EmptyTriangleInL"
       style="overflow:visible"
       inkscape:isstock="true">
      <path
         id="path5049"
         d="M 5.77,0 -2.88,5 V -5 Z"
         style="fill:#ffffff;fill-rule:evenodd;stroke:#000000;stroke-width:1.00000003pt;stroke-opacity:1"
         transform="matrix(-0.8,0,0,-0.8,4.8,0)"
         inkscape:connector-curvature="0" />
    </marker>
    <marker
       inkscape:stockid="TriangleOutS"
       orient="auto"
       refY="0"
       refX="0"
       id="TriangleOutS"
       style="overflow:visible"
       inkscape:isstock="true">
      <path
         id="path5046"
         d="M 5.77,0 -2.88,5 V -5 Z"
         style="fill:#000000;fill-opacity:1;fill-rule:evenodd;stroke:#000000;stroke-width:1.00000003pt;stroke-opacity:1"
         transform="scale(0.2)"
         inkscape:connector-curvature="0" />
    </marker>
    <marker
       inkscape:stockid="TriangleOutM"
       orient="auto"
       refY="0"
       refX="0"
       id="TriangleOutM"
       style="overflow:visible"
       inkscape:isstock="true">
      <path
         id="path5043"
         d="M 5.77,0 -2.88,5 V -5 Z"
         style="fill:#000000;fill-opacity:1;fill-rule:evenodd;stroke:#000000;stroke-width:1.00000003pt;stroke-opacity:1"
         transform="scale(0.4)"
         inkscape:connector-curvature="0" />
    </marker>
    <marker
       inkscape:stockid="TriangleOutL"
       orient="auto"
       refY="0"
       refX="0"
       id="TriangleOutL"
       style="overflow:visible"
       inkscape:isstock="true">
      <path
         id="path5040"
         d="M 5.77,0 -2.88,5 V -5 Z"
         style="fill:#000000;fill-opacity:1;fill-rule:evenodd;stroke:#000000;stroke-width:1.00000003pt;stroke-opacity:1"
         transform="scale(0.8)"
         inkscape:connector-curvature="0" />
    </marker>
    <marker
       inkscape:stockid="TriangleInS"
       orient="auto"
       refY="0"
       refX="0"
       id="TriangleInS"
       style="overflow:visible"
       inkscape:isstock="true">
      <path
         id="path5037"
         d="M 5.77,0 -2.88,5 V -5 Z"
         style="fill:#000000;fill-opacity:1;fill-rule:evenodd;stroke:#000000;stroke-width:1.00000003pt;stroke-opacity:1"
         transform="scale(-0.2)"
         inkscape:connector-curvature="0" />
    </marker>
    <marker
       inkscape:stockid="TriangleInM"
       orient="auto"
       refY="0"
       refX="0"
       id="TriangleInM"
       style="overflow:visible"
       inkscape:isstock="true">
      <path
         id="path5034"
         d="M 5.77,0 -2.88,5 V -5 Z"
         style="fill:#000000;fill-opacity:1;fill-rule:evenodd;stroke:#000000;stroke-width:1.00000003pt;stroke-opacity:1"
         transform="scale(-0.4)"
         inkscape:connector-curvature="0" />
    </marker>
    <marker
       inkscape:stockid="TriangleInL"
       orient="auto"
       refY="0"
       refX="0"
       id="TriangleInL"
       style="overflow:visible"
       inkscape:isstock="true">
      <path
         id="path5031"
         d="M 5.77,0 -2.88,5 V -5 Z"
         style="fill:#000000;fill-opacity:1;fill-rule:evenodd;stroke:#000000;stroke-width:1.00000003pt;stroke-opacity:1"
         transform="scale(-0.8)"
         inkscape:connector-curvature="0" />
    </marker>
    <marker
       inkscape:stockid="EmptyDiamondSend"
       orient="auto"
       refY="0"
       refX="0"
       id="EmptyDiamondSend"
       style="overflow:visible"
       inkscape:isstock="true">
      <path
         id="path5028"
         d="M 0,-7.0710768 -7.0710894,0 0,7.0710589 7.0710462,0 Z"
         style="fill:#ffffff;fill-rule:evenodd;stroke:#000000;stroke-width:1.00000003pt;stroke-opacity:1"
         transform="matrix(0.2,0,0,0.2,-1.2,0)"
         inkscape:connector-curvature="0" />
    </marker>
    <marker
       inkscape:stockid="EmptyDiamondMend"
       orient="auto"
       refY="0"
       refX="0"
       id="EmptyDiamondMend"
       style="overflow:visible"
       inkscape:isstock="true">
      <path
         id="path5025"
         d="M 0,-7.0710768 -7.0710894,0 0,7.0710589 7.0710462,0 Z"
         style="fill:#ffffff;fill-rule:evenodd;stroke:#000000;stroke-width:1.00000003pt;stroke-opacity:1"
         transform="matrix(0.4,0,0,0.4,-2.6,0)"
         inkscape:connector-curvature="0" />
    </marker>
    <marker
       inkscape:stockid="EmptyDiamondLend"
       orient="auto"
       refY="0"
       refX="0"
       id="EmptyDiamondLend"
       style="overflow:visible"
       inkscape:isstock="true">
      <path
         id="path5022"
         d="M 0,-7.0710768 -7.0710894,0 0,7.0710589 7.0710462,0 Z"
         style="fill:#ffffff;fill-rule:evenodd;stroke:#000000;stroke-width:1.00000003pt;stroke-opacity:1"
         transform="matrix(0.8,0,0,0.8,-5.6,0)"
         inkscape:connector-curvature="0" />
    </marker>
    <marker
       inkscape:stockid="EmptyDiamondSstart"
       orient="auto"
       refY="0"
       refX="0"
       id="EmptyDiamondSstart"
       style="overflow:visible"
       inkscape:isstock="true">
      <path
         id="path5019"
         d="M 0,-7.0710768 -7.0710894,0 0,7.0710589 7.0710462,0 Z"
         style="fill:#ffffff;fill-rule:evenodd;stroke:#000000;stroke-width:1.00000003pt;stroke-opacity:1"
         transform="matrix(0.2,0,0,0.2,1.2,0)"
         inkscape:connector-curvature="0" />
    </marker>
    <marker
       inkscape:stockid="EmptyDiamondMstart"
       orient="auto"
       refY="0"
       refX="0"
       id="EmptyDiamondMstart"
       style="overflow:visible"
       inkscape:isstock="true">
      <path
         id="path5016"
         d="M 0,-7.0710768 -7.0710894,0 0,7.0710589 7.0710462,0 Z"
         style="fill:#ffffff;fill-rule:evenodd;stroke:#000000;stroke-width:1.00000003pt;stroke-opacity:1"
         transform="matrix(0.4,0,0,0.4,2.6,0)"
         inkscape:connector-curvature="0" />
    </marker>
    <marker
       inkscape:stockid="EmptyDiamondLstart"
       orient="auto"
       refY="0"
       refX="0"
       id="EmptyDiamondLstart"
       style="overflow:visible"
       inkscape:isstock="true">
      <path
         id="path5013"
         d="M 0,-7.0710768 -7.0710894,0 0,7.0710589 7.0710462,0 Z"
         style="fill:#ffffff;fill-rule:evenodd;stroke:#000000;stroke-width:1.00000003pt;stroke-opacity:1"
         transform="matrix(0.8,0,0,0.8,5.6,0)"
         inkscape:connector-curvature="0" />
    </marker>
    <marker
       inkscape:stockid="EmptyDiamondS"
       orient="auto"
       refY="0"
       refX="0"
       id="EmptyDiamondS"
       style="overflow:visible"
       inkscape:isstock="true">
      <path
         id="path5010"
         d="M 0,-7.0710768 -7.0710894,0 0,7.0710589 7.0710462,0 Z"
         style="fill:#ffffff;fill-rule:evenodd;stroke:#000000;stroke-width:1.00000003pt;stroke-opacity:1"
         transform="scale(0.2)"
         inkscape:connector-curvature="0" />
    </marker>
    <marker
       inkscape:stockid="EmptyDiamondM"
       orient="auto"
       refY="0"
       refX="0"
       id="EmptyDiamondM"
       style="overflow:visible"
       inkscape:isstock="true">
      <path
         id="path5007"
         d="M 0,-7.0710768 -7.0710894,0 0,7.0710589 7.0710462,0 Z"
         style="fill:#ffffff;fill-rule:evenodd;stroke:#000000;stroke-width:1.00000003pt;stroke-opacity:1"
         transform="scale(0.4)"
         inkscape:connector-curvature="0" />
    </marker>
    <marker
       inkscape:stockid="EmptyDiamondL"
       orient="auto"
       refY="0"
       refX="0"
       id="EmptyDiamondL"
       style="overflow:visible"
       inkscape:isstock="true">
      <path
         id="path5004"
         d="M 0,-7.0710768 -7.0710894,0 0,7.0710589 7.0710462,0 Z"
         style="fill:#ffffff;fill-rule:evenodd;stroke:#000000;stroke-width:1.00000003pt;stroke-opacity:1"
         transform="scale(0.8)"
         inkscape:connector-curvature="0" />
    </marker>
    <marker
       inkscape:stockid="DiamondSend"
       orient="auto"
       refY="0"
       refX="0"
       id="DiamondSend"
       style="overflow:visible"
       inkscape:isstock="true">
      <path
         id="path5001"
         d="M 0,-7.0710768 -7.0710894,0 0,7.0710589 7.0710462,0 Z"
         style="fill:#000000;fill-opacity:1;fill-rule:evenodd;stroke:#000000;stroke-width:1.00000003pt;stroke-opacity:1"
         transform="matrix(0.2,0,0,0.2,-1.2,0)"
         inkscape:connector-curvature="0" />
    </marker>
    <marker
       inkscape:stockid="DiamondMend"
       orient="auto"
       refY="0"
       refX="0"
       id="DiamondMend"
       style="overflow:visible"
       inkscape:isstock="true">
      <path
         id="path4998"
         d="M 0,-7.0710768 -7.0710894,0 0,7.0710589 7.0710462,0 Z"
         style="fill:#000000;fill-opacity:1;fill-rule:evenodd;stroke:#000000;stroke-width:1.00000003pt;stroke-opacity:1"
         transform="matrix(0.4,0,0,0.4,-2.6,0)"
         inkscape:connector-curvature="0" />
    </marker>
    <marker
       inkscape:stockid="DiamondLend"
       orient="auto"
       refY="0"
       refX="0"
       id="DiamondLend"
       style="overflow:visible"
       inkscape:isstock="true">
      <path
         id="path4995"
         d="M 0,-7.0710768 -7.0710894,0 0,7.0710589 7.0710462,0 Z"
         style="fill:#000000;fill-opacity:1;fill-rule:evenodd;stroke:#000000;stroke-width:1.00000003pt;stroke-opacity:1"
         transform="matrix(0.8,0,0,0.8,-5.6,0)"
         inkscape:connector-curvature="0" />
    </marker>
    <marker
       inkscape:stockid="DiamondSstart"
       orient="auto"
       refY="0"
       refX="0"
       id="DiamondSstart"
       style="overflow:visible"
       inkscape:isstock="true">
      <path
         id="path4992"
         d="M 0,-7.0710768 -7.0710894,0 0,7.0710589 7.0710462,0 Z"
         style="fill:#000000;fill-opacity:1;fill-rule:evenodd;stroke:#000000;stroke-width:1.00000003pt;stroke-opacity:1"
         transform="matrix(0.2,0,0,0.2,1.2,0)"
         inkscape:connector-curvature="0" />
    </marker>
    <marker
       inkscape:stockid="DiamondMstart"
       orient="auto"
       refY="0"
       refX="0"
       id="DiamondMstart"
       style="overflow:visible"
       inkscape:isstock="true">
      <path
         id="path4989"
         d="M 0,-7.0710768 -7.0710894,0 0,7.0710589 7.0710462,0 Z"
         style="fill:#000000;fill-opacity:1;fill-rule:evenodd;stroke:#000000;stroke-width:1.00000003pt;stroke-opacity:1"
         transform="matrix(0.4,0,0,0.4,2.6,0)"
         inkscape:connector-curvature="0" />
    </marker>
    <marker
       inkscape:stockid="DiamondLstart"
       orient="auto"
       refY="0"
       refX="0"
       id="DiamondLstart"
       style="overflow:visible"
       inkscape:isstock="true">
      <path
         id="path4986"
         d="M 0,-7.0710768 -7.0710894,0 0,7.0710589 7.0710462,0 Z"
         style="fill:#000000;fill-opacity:1;fill-rule:evenodd;stroke:#000000;stroke-width:1.00000003pt;stroke-opacity:1"
         transform="matrix(0.8,0,0,0.8,5.6,0)"
         inkscape:connector-curvature="0" />
    </marker>
    <marker
       inkscape:stockid="DiamondS"
       orient="auto"
       refY="0"
       refX="0"
       id="DiamondS"
       style="overflow:visible"
       inkscape:isstock="true">
      <path
         id="path4983"
         d="M 0,-7.0710768 -7.0710894,0 0,7.0710589 7.0710462,0 Z"
         style="fill:#000000;fill-opacity:1;fill-rule:evenodd;stroke:#000000;stroke-width:1.00000003pt;stroke-opacity:1"
         transform="scale(0.2)"
         inkscape:connector-curvature="0" />
    </marker>
    <marker
       inkscape:stockid="DiamondM"
       orient="auto"
       refY="0"
       refX="0"
       id="DiamondM"
       style="overflow:visible"
       inkscape:isstock="true">
      <path
         id="path4980"
         d="M 0,-7.0710768 -7.0710894,0 0,7.0710589 7.0710462,0 Z"
         style="fill:#000000;fill-opacity:1;fill-rule:evenodd;stroke:#000000;stroke-width:1.00000003pt;stroke-opacity:1"
         transform="scale(0.4)"
         inkscape:connector-curvature="0" />
    </marker>
    <marker
       inkscape:stockid="DiamondL"
       orient="auto"
       refY="0"
       refX="0"
       id="DiamondL"
       style="overflow:visible"
       inkscape:isstock="true">
      <path
         id="path4977"
         d="M 0,-7.0710768 -7.0710894,0 0,7.0710589 7.0710462,0 Z"
         style="fill:#000000;fill-opacity:1;fill-rule:evenodd;stroke:#000000;stroke-width:1.00000003pt;stroke-opacity:1"
         transform="scale(0.8)"
         inkscape:connector-curvature="0" />
    </marker>
    <marker
       inkscape:stockid="SquareS"
       orient="auto"
       refY="0"
       refX="0"
       id="SquareS"
       style="overflow:visible"
       inkscape:isstock="true">
      <path
         id="path4974"
         d="M -5,-5 V 5 H 5 V -5 Z"
         style="fill:#000000;fill-opacity:1;fill-rule:evenodd;stroke:#000000;stroke-width:1.00000003pt;stroke-opacity:1"
         transform="scale(0.2)"
         inkscape:connector-curvature="0" />
    </marker>
    <marker
       inkscape:stockid="SquareM"
       orient="auto"
       refY="0"
       refX="0"
       id="SquareM"
       style="overflow:visible"
       inkscape:isstock="true">
      <path
         id="path4971"
         d="M -5,-5 V 5 H 5 V -5 Z"
         style="fill:#000000;fill-opacity:1;fill-rule:evenodd;stroke:#000000;stroke-width:1.00000003pt;stroke-opacity:1"
         transform="scale(0.4)"
         inkscape:connector-curvature="0" />
    </marker>
    <marker
       inkscape:stockid="SquareL"
       orient="auto"
       refY="0"
       refX="0"
       id="SquareL"
       style="overflow:visible"
       inkscape:isstock="true">
      <path
         id="path4968"
         d="M -5,-5 V 5 H 5 V -5 Z"
         style="fill:#000000;fill-opacity:1;fill-rule:evenodd;stroke:#000000;stroke-width:1.00000003pt;stroke-opacity:1"
         transform="scale(0.8)"
         inkscape:connector-curvature="0" />
    </marker>
    <marker
       inkscape:stockid="DotS"
       orient="auto"
       refY="0"
       refX="0"
       id="DotS"
       style="overflow:visible"
       inkscape:isstock="true">
      <path
         id="path4965"
         d="m -2.5,-1 c 0,2.76 -2.24,5 -5,5 -2.76,0 -5,-2.24 -5,-5 0,-2.76 2.24,-5 5,-5 2.76,0 5,2.24 5,5 z"
         style="fill:#000000;fill-opacity:1;fill-rule:evenodd;stroke:#000000;stroke-width:1.00000003pt;stroke-opacity:1"
         transform="matrix(0.2,0,0,0.2,1.48,0.2)"
         inkscape:connector-curvature="0" />
    </marker>
    <marker
       inkscape:stockid="DotM"
       orient="auto"
       refY="0"
       refX="0"
       id="DotM"
       style="overflow:visible"
       inkscape:isstock="true">
      <path
         id="path4962"
         d="m -2.5,-1 c 0,2.76 -2.24,5 -5,5 -2.76,0 -5,-2.24 -5,-5 0,-2.76 2.24,-5 5,-5 2.76,0 5,2.24 5,5 z"
         style="fill:#000000;fill-opacity:1;fill-rule:evenodd;stroke:#000000;stroke-width:1.00000003pt;stroke-opacity:1"
         transform="matrix(0.4,0,0,0.4,2.96,0.4)"
         inkscape:connector-curvature="0" />
    </marker>
    <marker
       inkscape:stockid="DotL"
       orient="auto"
       refY="0"
       refX="0"
       id="DotL"
       style="overflow:visible"
       inkscape:isstock="true">
      <path
         id="path4959"
         d="m -2.5,-1 c 0,2.76 -2.24,5 -5,5 -2.76,0 -5,-2.24 -5,-5 0,-2.76 2.24,-5 5,-5 2.76,0 5,2.24 5,5 z"
         style="fill:#000000;fill-opacity:1;fill-rule:evenodd;stroke:#000000;stroke-width:1.00000003pt;stroke-opacity:1"
         transform="matrix(0.8,0,0,0.8,5.92,0.8)"
         inkscape:connector-curvature="0" />
    </marker>
    <marker
       style="overflow:visible"
       id="DistanceEnd"
       refX="0"
       refY="0"
       orient="auto"
       inkscape:stockid="DistanceEnd"
       inkscape:isstock="true">
      <g
         id="g2301"
         style="fill:#000000;fill-opacity:1;stroke:#000000;stroke-opacity:1">
        <path
           style="fill:#000000;fill-opacity:1;stroke:#000000;stroke-width:1.14999998;stroke-linecap:square;stroke-opacity:1"
           d="M 0,0 H -2"
           id="path2316"
           inkscape:connector-curvature="0" />
        <path
           style="fill:#000000;fill-opacity:1;fill-rule:evenodd;stroke:#000000;stroke-opacity:1"
           d="m 0,0 -13,4 4,-4 -4,-4 z"
           id="path2312"
           inkscape:connector-curvature="0" />
        <path
           style="fill:#000000;fill-opacity:1;stroke:#000000;stroke-width:1;stroke-linecap:square;stroke-opacity:1"
           d="M 0,-4 V 40"
           id="path2314"
           inkscape:connector-curvature="0" />
      </g>
    </marker>
    <marker
       style="overflow:visible"
       id="DistanceStart"
       refX="0"
       refY="0"
       orient="auto"
       inkscape:stockid="DistanceStart"
       inkscape:isstock="true">
      <g
         id="g2300"
         style="fill:#000000;fill-opacity:1;stroke:#000000;stroke-opacity:1">
        <path
           style="fill:#000000;fill-opacity:1;stroke:#000000;stroke-width:1.14999998;stroke-linecap:square;stroke-opacity:1"
           d="M 0,0 H 2"
           id="path2306"
           inkscape:connector-curvature="0" />
        <path
           style="fill:#000000;fill-opacity:1;fill-rule:evenodd;stroke:#000000;stroke-opacity:1"
           d="M 0,0 13,4 9,0 13,-4 Z"
           id="path2302"
           inkscape:connector-curvature="0" />
        <path
           style="fill:#000000;fill-opacity:1;stroke:#000000;stroke-width:1;stroke-linecap:square;stroke-opacity:1"
           d="M 0,-4 V 40"
           id="path2304"
           inkscape:connector-curvature="0" />
      </g>
    </marker>
    <marker
       inkscape:stockid="Tail"
       orient="auto"
       refY="0"
       refX="0"
       id="Tail"
       style="overflow:visible"
       inkscape:isstock="true">
      <g
         id="g4946"
         transform="scale(-1.2)"
         style="fill:#000000;fill-opacity:1;stroke:#000000;stroke-opacity:1">
        <path
           id="path4934"
           d="M -3.8048674,-3.9585227 0.54352094,0"
           style="fill:#000000;fill-opacity:1;fill-rule:evenodd;stroke:#000000;stroke-width:0.80000001;stroke-linecap:round;stroke-opacity:1"
           inkscape:connector-curvature="0" />
        <path
           id="path4936"
           d="M -1.2866832,-3.9585227 3.0617053,0"
           style="fill:#000000;fill-opacity:1;fill-rule:evenodd;stroke:#000000;stroke-width:0.80000001;stroke-linecap:round;stroke-opacity:1"
           inkscape:connector-curvature="0" />
        <path
           id="path4938"
           d="M 1.3053582,-3.9585227 5.6537466,0"
           style="fill:#000000;fill-opacity:1;fill-rule:evenodd;stroke:#000000;stroke-width:0.80000001;stroke-linecap:round;stroke-opacity:1"
           inkscape:connector-curvature="0" />
        <path
           id="path4940"
           d="M -3.8048674,4.1775838 0.54352094,0.21974226"
           style="fill:#000000;fill-opacity:1;fill-rule:evenodd;stroke:#000000;stroke-width:0.80000001;stroke-linecap:round;stroke-opacity:1"
           inkscape:connector-curvature="0" />
        <path
           id="path4942"
           d="M -1.2866832,4.1775838 3.0617053,0.21974226"
           style="fill:#000000;fill-opacity:1;fill-rule:evenodd;stroke:#000000;stroke-width:0.80000001;stroke-linecap:round;stroke-opacity:1"
           inkscape:connector-curvature="0" />
        <path
           id="path4944"
           d="M 1.3053582,4.1775838 5.6537466,0.21974226"
           style="fill:#000000;fill-opacity:1;fill-rule:evenodd;stroke:#000000;stroke-width:0.80000001;stroke-linecap:round;stroke-opacity:1"
           inkscape:connector-curvature="0" />
      </g>
    </marker>
    <marker
       inkscape:stockid="Arrow2Send"
       orient="auto"
       refY="0"
       refX="0"
       id="Arrow2Send"
       style="overflow:visible"
       inkscape:isstock="true">
      <path
         id="path4931"
         style="fill:#000000;fill-opacity:1;fill-rule:evenodd;stroke:#000000;stroke-width:0.625;stroke-linejoin:round;stroke-opacity:1"
         d="M 8.7185878,4.0337352 -2.2072895,0.01601326 8.7185884,-4.0017078 c -1.7454984,2.3720609 -1.7354408,5.6174519 -6e-7,8.035443 z"
         transform="matrix(-0.3,0,0,-0.3,0.69,0)"
         inkscape:connector-curvature="0" />
    </marker>
    <marker
       inkscape:stockid="Arrow2Sstart"
       orient="auto"
       refY="0"
       refX="0"
       id="Arrow2Sstart"
       style="overflow:visible"
       inkscape:isstock="true">
      <path
         id="path4928"
         style="fill:#000000;fill-opacity:1;fill-rule:evenodd;stroke:#000000;stroke-width:0.625;stroke-linejoin:round;stroke-opacity:1"
         d="M 8.7185878,4.0337352 -2.2072895,0.01601326 8.7185884,-4.0017078 c -1.7454984,2.3720609 -1.7354408,5.6174519 -6e-7,8.035443 z"
         transform="matrix(0.3,0,0,0.3,-0.69,0)"
         inkscape:connector-curvature="0" />
    </marker>
    <marker
       inkscape:stockid="Arrow2Mend"
       orient="auto"
       refY="0"
       refX="0"
       id="Arrow2Mend"
       style="overflow:visible"
       inkscape:isstock="true">
      <path
         id="path4925"
         style="fill:#000000;fill-opacity:1;fill-rule:evenodd;stroke:#000000;stroke-width:0.625;stroke-linejoin:round;stroke-opacity:1"
         d="M 8.7185878,4.0337352 -2.2072895,0.01601326 8.7185884,-4.0017078 c -1.7454984,2.3720609 -1.7354408,5.6174519 -6e-7,8.035443 z"
         transform="scale(-0.6)"
         inkscape:connector-curvature="0" />
    </marker>
    <marker
       inkscape:stockid="Arrow2Mstart"
       orient="auto"
       refY="0"
       refX="0"
       id="Arrow2Mstart"
       style="overflow:visible"
       inkscape:isstock="true">
      <path
         id="path4922"
         style="fill:#000000;fill-opacity:1;fill-rule:evenodd;stroke:#000000;stroke-width:0.625;stroke-linejoin:round;stroke-opacity:1"
         d="M 8.7185878,4.0337352 -2.2072895,0.01601326 8.7185884,-4.0017078 c -1.7454984,2.3720609 -1.7354408,5.6174519 -6e-7,8.035443 z"
         transform="scale(0.6)"
         inkscape:connector-curvature="0" />
    </marker>
    <marker
       inkscape:stockid="Arrow2Lend"
       orient="auto"
       refY="0"
       refX="0"
       id="Arrow2Lend"
       style="overflow:visible"
       inkscape:isstock="true">
      <path
         id="path4919"
         style="fill:#000000;fill-opacity:1;fill-rule:evenodd;stroke:#000000;stroke-width:0.625;stroke-linejoin:round;stroke-opacity:1"
         d="M 8.7185878,4.0337352 -2.2072895,0.01601326 8.7185884,-4.0017078 c -1.7454984,2.3720609 -1.7354408,5.6174519 -6e-7,8.035443 z"
         transform="matrix(-1.1,0,0,-1.1,-1.1,0)"
         inkscape:connector-curvature="0" />
    </marker>
    <marker
       inkscape:stockid="Arrow2Lstart"
       orient="auto"
       refY="0"
       refX="0"
       id="Arrow2Lstart"
       style="overflow:visible"
       inkscape:isstock="true">
      <path
         id="path4916"
         style="fill:#000000;fill-opacity:1;fill-rule:evenodd;stroke:#000000;stroke-width:0.625;stroke-linejoin:round;stroke-opacity:1"
         d="M 8.7185878,4.0337352 -2.2072895,0.01601326 8.7185884,-4.0017078 c -1.7454984,2.3720609 -1.7354408,5.6174519 -6e-7,8.035443 z"
         transform="matrix(1.1,0,0,1.1,1.1,0)"
         inkscape:connector-curvature="0" />
    </marker>
    <marker
       inkscape:stockid="Arrow1Send"
       orient="auto"
       refY="0"
       refX="0"
       id="Arrow1Send"
       style="overflow:visible"
       inkscape:isstock="true">
      <path
         id="path4913"
         d="M 0,0 5,-5 -12.5,0 5,5 Z"
         style="fill:#000000;fill-opacity:1;fill-rule:evenodd;stroke:#000000;stroke-width:1.00000003pt;stroke-opacity:1"
         transform="matrix(-0.2,0,0,-0.2,-1.2,0)"
         inkscape:connector-curvature="0" />
    </marker>
    <marker
       inkscape:stockid="Arrow1Sstart"
       orient="auto"
       refY="0"
       refX="0"
       id="Arrow1Sstart"
       style="overflow:visible"
       inkscape:isstock="true">
      <path
         id="path4910"
         d="M 0,0 5,-5 -12.5,0 5,5 Z"
         style="fill:#000000;fill-opacity:1;fill-rule:evenodd;stroke:#000000;stroke-width:1.00000003pt;stroke-opacity:1"
         transform="matrix(0.2,0,0,0.2,1.2,0)"
         inkscape:connector-curvature="0" />
    </marker>
    <marker
       inkscape:stockid="Arrow1Mend"
       orient="auto"
       refY="0"
       refX="0"
       id="Arrow1Mend"
       style="overflow:visible"
       inkscape:isstock="true">
      <path
         id="path4907"
         d="M 0,0 5,-5 -12.5,0 5,5 Z"
         style="fill:#000000;fill-opacity:1;fill-rule:evenodd;stroke:#000000;stroke-width:1.00000003pt;stroke-opacity:1"
         transform="matrix(-0.4,0,0,-0.4,-4,0)"
         inkscape:connector-curvature="0" />
    </marker>
    <marker
       inkscape:stockid="Arrow1Mstart"
       orient="auto"
       refY="0"
       refX="0"
       id="Arrow1Mstart"
       style="overflow:visible"
       inkscape:isstock="true">
      <path
         id="path4904"
         d="M 0,0 5,-5 -12.5,0 5,5 Z"
         style="fill:#000000;fill-opacity:1;fill-rule:evenodd;stroke:#000000;stroke-width:1.00000003pt;stroke-opacity:1"
         transform="matrix(0.4,0,0,0.4,4,0)"
         inkscape:connector-curvature="0" />
    </marker>
    <marker
       inkscape:stockid="Arrow1Lend"
       orient="auto"
       refY="0"
       refX="0"
       id="Arrow1Lend"
       style="overflow:visible"
       inkscape:isstock="true">
      <path
         id="path4901"
         d="M 0,0 5,-5 -12.5,0 5,5 Z"
         style="fill:#000000;fill-opacity:1;fill-rule:evenodd;stroke:#000000;stroke-width:1.00000003pt;stroke-opacity:1"
         transform="matrix(-0.8,0,0,-0.8,-10,0)"
         inkscape:connector-curvature="0" />
    </marker>
    <marker
       inkscape:stockid="Arrow1Lstart"
       orient="auto"
       refY="0"
       refX="0"
       id="Arrow1Lstart"
       style="overflow:visible"
       inkscape:isstock="true">
      <path
         id="path4898"
         d="M 0,0 5,-5 -12.5,0 5,5 Z"
         style="fill:#000000;fill-opacity:1;fill-rule:evenodd;stroke:#000000;stroke-width:1.00000003pt;stroke-opacity:1"
         transform="matrix(0.8,0,0,0.8,10,0)"
         inkscape:connector-curvature="0" />
    </marker>
    <linearGradient
       inkscape:collect="always"
       xlink:href="#linearGradient9285"
       id="linearGradient9287"
       x1="96.353264"
       y1="183.80997"
       x2="221.99176"
       y2="183.80997"
       gradientUnits="userSpaceOnUse" />
    <radialGradient
       inkscape:collect="always"
       xlink:href="#linearGradient1699"
       id="radialGradient1693"
       cx="123.19682"
       cy="47.710041"
       fx="123.19682"
       fy="47.710041"
       r="76.129372"
       gradientTransform="matrix(1,0,0,0.27079497,0,14.790401)"
       gradientUnits="userSpaceOnUse" />
    <linearGradient
       inkscape:collect="always"
       xlink:href="#linearGradient1796"
       id="linearGradient1800"
       x1="160.22636"
       y1="189.07841"
       x2="160.22636"
       y2="44.538456"
       gradientUnits="userSpaceOnUse" />
  </defs>
  <metadata
     id="metadata5">
    <rdf:RDF>
      <cc:Work
         rdf:about="">
        <dc:format>image/svg+xml</dc:format>
        <dc:type
           rdf:resource="http://purl.org/dc/dcmitype/StillImage" />
        <dc:title />
      </cc:Work>
    </rdf:RDF>
  </metadata>
  <g
     transform="translate(0,-117)"
     inkscape:label="Layer 1"
     inkscape:groupmode="layer"
     id="layer1" />
  <path
     style="opacity:1;fill:none;fill-opacity:1;stroke:#004c92;stroke-width:0.75773513;stroke-linecap:round;stroke-linejoin:round;stroke-miterlimit:4;stroke-dasharray:none;stroke-opacity:1"
     d="M 52.137495,85.225859 H 247.8625 l 38.10738,83.852551 H 14.030119 Z"
     id="rect7792"
     inkscape:connector-curvature="0"
     sodipodi:nodetypes="ccccc" />
  <g
     style="stroke:url(#linearGradient1800);stroke-width:0.79374999;stroke-miterlimit:4;stroke-dasharray:none;stroke-opacity:1"
     id="g8865"
     transform="matrix(1.0748349,0,0,0.84786284,-13.152222,8.765853)">
    <g
       style="stroke:url(#linearGradient1800);stroke-width:0.79374999;stroke-miterlimit:4;stroke-dasharray:none;stroke-opacity:1"
       inkscape:label="MajorXGridlines"
       id="g8248"
       transform="translate(96.699522,31.122591)">
      <path
         inkscape:connector-curvature="0"
         d="m 151.54875,74.138665 c 0,0 -192.910908,0 -192.910908,0"
         style="fill:none;stroke:url(#linearGradient1800);stroke-width:0.79374999;stroke-miterlimit:4;stroke-dasharray:none;stroke-opacity:1"
         inkscape:label="MajorXDiv1"
         id="path8240" />
      <path
         inkscape:connector-curvature="0"
         d="m 157.63797,91.124428 c 0,0 -205.089348,0 -205.089348,0"
         style="fill:none;stroke:url(#linearGradient1800);stroke-width:0.79374999;stroke-miterlimit:4;stroke-dasharray:none;stroke-opacity:1"
         inkscape:label="MajorXDiv2"
         id="path8242" />
      <path
         inkscape:connector-curvature="0"
         d="m 164.54783,110.39932 c 0,0 -218.909058,0 -218.909058,0"
         style="fill:none;stroke:url(#linearGradient1800);stroke-width:0.79374999;stroke-miterlimit:4;stroke-dasharray:none;stroke-opacity:1"
         inkscape:label="MajorXDiv3"
         id="path8244" />
      <path
         inkscape:connector-curvature="0"
         d="m 172.45618,132.45953 c 0,0 -234.725765,0 -234.725765,0"
         style="fill:none;stroke:url(#linearGradient1800);stroke-width:0.79374999;stroke-miterlimit:4;stroke-dasharray:none;stroke-opacity:1"
         inkscape:label="MajorXDiv4"
         id="path8246" />
    </g>
    <g
       style="stroke:url(#linearGradient1800);stroke-width:0.79374999;stroke-miterlimit:4;stroke-dasharray:none;stroke-opacity:1"
       inkscape:label="MajorYGridlines"
       id="g8308"
       transform="translate(96.699522,31.122591)">
      <path
         inkscape:connector-curvature="0"
         d="m 140.07224,59.057096 c 0,0 33.09056,98.898724 33.09056,98.898724"
         style="fill:none;stroke:url(#linearGradient1800);stroke-width:0.79374999;stroke-miterlimit:4;stroke-dasharray:none;stroke-opacity:1"
         inkscape:label="MajorYDiv1"
         id="path8250" />
      <path
         inkscape:connector-curvature="0"
         d="m 134.00232,59.057096 c 0,0 30.72695,98.898724 30.72695,98.898724"
         style="fill:none;stroke:url(#linearGradient1800);stroke-width:0.79374999;stroke-miterlimit:4;stroke-dasharray:none;stroke-opacity:1"
         inkscape:label="MajorYDiv2"
         id="path8252" />
      <path
         inkscape:connector-curvature="0"
         d="m 127.93239,59.057096 c 0,0 28.36334,98.898724 28.36334,98.898724"
         style="fill:none;stroke:url(#linearGradient1800);stroke-width:0.79374999;stroke-miterlimit:4;stroke-dasharray:none;stroke-opacity:1"
         inkscape:label="MajorYDiv3"
         id="path8254" />
      <path
         inkscape:connector-curvature="0"
         d="m 121.86247,59.057096 c 0,0 25.99972,98.898724 25.99972,98.898724"
         style="fill:none;stroke:url(#linearGradient1800);stroke-width:0.79374999;stroke-miterlimit:4;stroke-dasharray:none;stroke-opacity:1"
         inkscape:label="MajorYDiv4"
         id="path8256" />
      <path
         inkscape:connector-curvature="0"
         d="m 115.79254,59.057096 c 0,0 23.63612,98.898724 23.63612,98.898724"
         style="fill:none;stroke:url(#linearGradient1800);stroke-width:0.79374999;stroke-miterlimit:4;stroke-dasharray:none;stroke-opacity:1"
         inkscape:label="MajorYDiv5"
         id="path8258" />
      <path
         inkscape:connector-curvature="0"
         d="m 109.72262,59.057096 c 0,0 21.2725,98.898724 21.2725,98.898724"
         style="fill:none;stroke:url(#linearGradient1800);stroke-width:0.79374999;stroke-miterlimit:4;stroke-dasharray:none;stroke-opacity:1"
         inkscape:label="MajorYDiv6"
         id="path8260" />
      <path
         inkscape:connector-curvature="0"
         d="m 103.6527,59.057096 c 0,0 18.90889,98.898724 18.90889,98.898724"
         style="fill:none;stroke:url(#linearGradient1800);stroke-width:0.79374999;stroke-miterlimit:4;stroke-dasharray:none;stroke-opacity:1"
         inkscape:label="MajorYDiv7"
         id="path8262" />
      <path
         inkscape:connector-curvature="0"
         d="m 97.58277,59.057096 c 0,0 16.54528,98.898724 16.54528,98.898724"
         style="fill:none;stroke:url(#linearGradient1800);stroke-width:0.79374999;stroke-miterlimit:4;stroke-dasharray:none;stroke-opacity:1"
         inkscape:label="MajorYDiv8"
         id="path8264" />
      <path
         inkscape:connector-curvature="0"
         d="m 91.512846,59.057096 c 0,0 14.181664,98.898724 14.181664,98.898724"
         style="fill:none;stroke:url(#linearGradient1800);stroke-width:0.79374999;stroke-miterlimit:4;stroke-dasharray:none;stroke-opacity:1"
         inkscape:label="MajorYDiv9"
         id="path8266" />
      <path
         inkscape:connector-curvature="0"
         d="m 85.442921,59.057096 c 0,0 11.818058,98.898724 11.818058,98.898724"
         style="fill:none;stroke:url(#linearGradient1800);stroke-width:0.79374999;stroke-miterlimit:4;stroke-dasharray:none;stroke-opacity:1"
         inkscape:label="MajorYDiv10"
         id="path8268" />
      <path
         inkscape:connector-curvature="0"
         d="m 79.372996,59.057096 c 0,0 9.454446,98.898724 9.454446,98.898724"
         style="fill:none;stroke:url(#linearGradient1800);stroke-width:0.79374999;stroke-miterlimit:4;stroke-dasharray:none;stroke-opacity:1"
         inkscape:label="MajorYDiv11"
         id="path8270" />
      <path
         inkscape:connector-curvature="0"
         d="m 73.303072,59.057096 c 0,0 7.090835,98.898724 7.090835,98.898724"
         style="fill:none;stroke:url(#linearGradient1800);stroke-width:0.79374999;stroke-miterlimit:4;stroke-dasharray:none;stroke-opacity:1"
         inkscape:label="MajorYDiv12"
         id="path8272" />
      <path
         inkscape:connector-curvature="0"
         d="m 67.233148,59.057096 c 0,0 4.727224,98.898724 4.727224,98.898724"
         style="fill:none;stroke:url(#linearGradient1800);stroke-width:0.79374999;stroke-miterlimit:4;stroke-dasharray:none;stroke-opacity:1"
         inkscape:label="MajorYDiv13"
         id="path8274" />
      <path
         inkscape:connector-curvature="0"
         d="m 61.163222,59.057096 c 0,0 2.363613,98.898724 2.363613,98.898724"
         style="fill:none;stroke:url(#linearGradient1800);stroke-width:0.79374999;stroke-miterlimit:4;stroke-dasharray:none;stroke-opacity:1"
         inkscape:label="MajorYDiv14"
         id="path8276" />
      <path
         inkscape:connector-curvature="0"
         d="m 55.093298,59.057096 c 0,0 1e-6,98.898724 1e-6,98.898724"
         style="fill:none;stroke:url(#linearGradient1800);stroke-width:0.79374999;stroke-miterlimit:4;stroke-dasharray:none;stroke-opacity:1"
         inkscape:label="MajorYDiv15"
         id="path8278" />
      <path
         inkscape:connector-curvature="0"
         d="m 49.023376,59.057096 c 0,0 -2.363608,98.898724 -2.363608,98.898724"
         style="fill:none;stroke:url(#linearGradient1800);stroke-width:0.79374999;stroke-miterlimit:4;stroke-dasharray:none;stroke-opacity:1"
         inkscape:label="MajorYDiv16"
         id="path8280" />
      <path
         inkscape:connector-curvature="0"
         d="m 42.953446,59.057096 c 0,0 -4.727223,98.898724 -4.727223,98.898724"
         style="fill:none;stroke:url(#linearGradient1800);stroke-width:0.79374999;stroke-miterlimit:4;stroke-dasharray:none;stroke-opacity:1"
         inkscape:label="MajorYDiv17"
         id="path8282" />
      <path
         inkscape:connector-curvature="0"
         d="m 36.883524,59.057096 c 0,0 -7.090832,98.898724 -7.090832,98.898724"
         style="fill:none;stroke:url(#linearGradient1800);stroke-width:0.79374999;stroke-miterlimit:4;stroke-dasharray:none;stroke-opacity:1"
         inkscape:label="MajorYDiv18"
         id="path8284" />
      <path
         inkscape:connector-curvature="0"
         d="m 30.813602,59.057096 c 0,0 -9.454442,98.898724 -9.454442,98.898724"
         style="fill:none;stroke:url(#linearGradient1800);stroke-width:0.79374999;stroke-miterlimit:4;stroke-dasharray:none;stroke-opacity:1"
         inkscape:label="MajorYDiv19"
         id="path8286" />
      <path
         inkscape:connector-curvature="0"
         d="m 24.743672,59.057096 c 0,0 -11.818056,98.898724 -11.818056,98.898724"
         style="fill:none;stroke:url(#linearGradient1800);stroke-width:0.79374999;stroke-miterlimit:4;stroke-dasharray:none;stroke-opacity:1"
         inkscape:label="MajorYDiv20"
         id="path8288" />
      <path
         inkscape:connector-curvature="0"
         d="m 18.67375,59.057096 c 0,0 -14.1816658,98.898724 -14.1816658,98.898724"
         style="fill:none;stroke:url(#linearGradient1800);stroke-width:0.79374999;stroke-miterlimit:4;stroke-dasharray:none;stroke-opacity:1"
         inkscape:label="MajorYDiv21"
         id="path8290" />
      <path
         inkscape:connector-curvature="0"
         d="m 12.603828,59.057096 c 0,0 -16.5452754,98.898724 -16.5452754,98.898724"
         style="fill:none;stroke:url(#linearGradient1800);stroke-width:0.79374999;stroke-miterlimit:4;stroke-dasharray:none;stroke-opacity:1"
         inkscape:label="MajorYDiv22"
         id="path8292" />
      <path
         inkscape:connector-curvature="0"
         d="m 6.5338976,59.057096 c 0,0 -18.9088896,98.898724 -18.9088896,98.898724"
         style="fill:none;stroke:url(#linearGradient1800);stroke-width:0.79374999;stroke-miterlimit:4;stroke-dasharray:none;stroke-opacity:1"
         inkscape:label="MajorYDiv23"
         id="path8294" />
      <path
         inkscape:connector-curvature="0"
         d="m 0.463976,59.057096 c 0,0 -21.272499,98.898724 -21.272499,98.898724"
         style="fill:none;stroke:url(#linearGradient1800);stroke-width:0.79374999;stroke-miterlimit:4;stroke-dasharray:none;stroke-opacity:1"
         inkscape:label="MajorYDiv24"
         id="path8296" />
      <path
         inkscape:connector-curvature="0"
         d="m -5.6059456,59.057096 c 0,0 -23.6361094,98.898724 -23.6361094,98.898724"
         style="fill:none;stroke:url(#linearGradient1800);stroke-width:0.79374999;stroke-miterlimit:4;stroke-dasharray:none;stroke-opacity:1"
         inkscape:label="MajorYDiv25"
         id="path8298" />
      <path
         inkscape:connector-curvature="0"
         d="m -11.675876,59.057096 c 0,0 -25.999723,98.898724 -25.999723,98.898724"
         style="fill:none;stroke:url(#linearGradient1800);stroke-width:0.79374999;stroke-miterlimit:4;stroke-dasharray:none;stroke-opacity:1"
         inkscape:label="MajorYDiv26"
         id="path8300" />
      <path
         inkscape:connector-curvature="0"
         d="m -17.745798,59.057096 c 0,0 -28.363333,98.898724 -28.363333,98.898724"
         style="fill:none;stroke:url(#linearGradient1800);stroke-width:0.79374999;stroke-miterlimit:4;stroke-dasharray:none;stroke-opacity:1"
         inkscape:label="MajorYDiv27"
         id="path8302" />
      <path
         inkscape:connector-curvature="0"
         d="m -23.81572,59.057096 c 0,0 -30.726943,98.898724 -30.726943,98.898724"
         style="fill:none;stroke:url(#linearGradient1800);stroke-width:0.79374999;stroke-miterlimit:4;stroke-dasharray:none;stroke-opacity:1"
         inkscape:label="MajorYDiv28"
         id="path8304" />
      <path
         inkscape:connector-curvature="0"
         d="m -29.88565,59.057096 c 0,0 -33.090557,98.898724 -33.090557,98.898724"
         style="fill:none;stroke:url(#linearGradient1800);stroke-width:0.79374999;stroke-miterlimit:4;stroke-dasharray:none;stroke-opacity:1"
         inkscape:label="MajorYDiv29"
         id="path8306" />
    </g>
  </g>
  <path
     style="fill:#2c0041;fill-opacity:1;fill-rule:evenodd;stroke:none;stroke-width:0.26458332px;stroke-linecap:butt;stroke-linejoin:miter;stroke-opacity:1"
     d="M 52.137495,85.22586 188.87484,8.824274 262.70543,137.52213 Z"
     id="path9279"
     inkscape:connector-curvature="0"
     sodipodi:nodetypes="cccc" />
  <g
     aria-label="ångstrom"
     style="font-style:normal;font-weight:normal;font-size:10.58333302px;line-height:125%;font-family:sans-serif;letter-spacing:0px;word-spacing:0px;fill:url(#radialGradient1693);fill-opacity:1;stroke:none;stroke-width:1.32291663;stroke-linecap:butt;stroke-linejoin:miter;stroke-miterlimit:4;stroke-dasharray:none;stroke-opacity:1"
     id="text9257">
    <path
       d="m 56.901132,29.981047 0.352778,-2.822223 q 0,-0.132291 -0.08819,-0.132291 -0.0441,0 -0.220486,0.176389 -0.573264,0.617361 -1.455208,1.543402 -0.881945,0.881945 -3.042708,2.425348 -2.116667,1.499305 -3.439584,1.499305 -0.220486,-0.0441 -0.529166,-0.176389 -0.352778,-0.08819 -0.881945,-0.705555 -0.529166,-0.617361 -0.529166,-1.763889 0,-1.146528 1.763888,-3.483681 1.719792,-2.38125 4.145139,-4.630208 2.425347,-2.293055 5.379861,-3.96875 2.998611,-1.675694 5.203472,-1.675694 0.837848,0.0441 1.322917,1.190625 0.440972,-0.440972 0.79375,-0.440972 0.352778,0 0.837847,0.529166 0.264583,0.0441 0.529167,0.308681 0.264583,0.220486 0.264583,0.661458 0,0.440972 -0.617361,0.970139 -0.926042,1.146528 -2.160764,2.601736 -1.234722,1.455208 -1.763889,2.116667 -0.529166,0.617361 -1.10243,1.411111 -0.970139,1.367014 -1.058334,2.204861 4.497917,-2.160764 14.155209,-9.304514 0.396875,0.308681 0.396875,0.749653 0,0.440972 -0.352778,0.749653 -0.352778,0.30868 -0.881945,0.749652 -0.485069,0.440973 -1.984375,1.719792 -1.499305,1.278819 -2.910416,2.469444 -1.367014,1.146528 -3.175,2.601736 -1.763889,1.411111 -3.175,2.425348 -3.395486,2.425347 -4.233333,2.425347 -0.837848,0 -1.190625,-0.529167 -0.352778,-0.529167 -0.352778,-1.89618 z m -4.497917,-1.852084 q 0.529167,0 3.219097,-2.160764 2.734028,-2.160763 5.159375,-4.321527 l 2.469445,-2.160764 q 0.176389,-0.176389 0.176389,-0.220486 0,-0.0882 -0.132292,-0.0882 -1.675694,0 -4.365625,1.940278 -2.68993,1.896181 -4.674305,4.056944 -1.940278,2.116667 -1.940278,2.86632 0,0.08819 0.08819,0.08819 z M 67.793146,8.8143803 q 1.455208,0 2.116666,1.2347227 0.264584,0.485069 0.264584,1.146527 0,1.807986 -1.102431,3.042709 -1.058333,1.190625 -3.704167,1.190625 -0.881944,0 -1.499305,-0.573264 -0.617361,-0.617361 -0.617361,-1.455209 0,-0.837847 0.132291,-1.455208 0.176389,-0.617361 0.573264,-1.367014 0.970139,-1.7638887 3.836459,-1.7638887 z m -2.116667,4.9388887 q 1.719792,0 2.248958,-0.396875 0.573264,-0.396875 0.573264,-1.631597 0,-1.278819 -1.146528,-1.278819 -1.5875,0 -1.984375,0.485069 -0.352777,0.440972 -0.352777,1.89618 0,0.749653 0.661458,0.926042 z"
       style="font-style:normal;font-variant:normal;font-weight:normal;font-stretch:normal;font-size:44.09722137px;line-height:179.99999523%;font-family:'mr dafoe';-inkscape-font-specification:'mr dafoe';fill:url(#radialGradient1693);fill-opacity:1;stroke:none;stroke-width:1.32291663;stroke-miterlimit:4;stroke-dasharray:none;stroke-opacity:1"
       id="path1215" />
    <path
       d="m 76.451359,17.23695 q 0.352778,0 1.146528,0.352777 0.837847,0.352778 0.837847,0.79375 0,0.308681 -0.220486,0.617361 l -3.307292,4.586111 q -0.573264,0.705556 -0.573264,0.79375 0,0.08819 0.0441,0.08819 l 0.220487,-0.132292 q 5.115277,-3.571875 8.422569,-6.261805 0.617361,-0.440972 1.014236,-0.440972 0.440972,0 0.573264,0.08819 l 1.234722,0.352778 q 0.440972,0.220486 0.440972,0.573264 0,0.352777 -0.176389,0.573264 -0.837847,0.926041 -1.940277,2.116666 -1.058334,1.146528 -1.5875,1.763889 -0.529167,0.573264 -1.190625,1.322917 -0.661459,0.749652 -0.970139,1.146527 -0.264584,0.396875 -0.617361,0.926042 -0.352778,0.48507 -0.48507,0.837847 -0.264583,1.014236 -0.264583,1.763889 0,0.396875 0.485069,0.396875 0.529167,0 1.852084,-0.617361 1.367014,-0.617361 3.219097,-1.89618 1.89618,-1.27882 4.982986,-3.615973 3.130903,-2.38125 5.468055,-4.012847 0.396875,0.308681 0.396875,0.749653 0,0.440972 -0.396875,0.79375 -1.411111,1.367014 -3.571875,3.439583 -2.160763,2.028472 -6.614583,5.468056 -4.409722,3.439583 -6.173611,3.439583 -3.395486,0 -3.395486,-3.615972 0,-1.367014 1.058333,-2.86632 l 1.896181,-2.601736 q 0.264583,-0.396875 0.264583,-0.440972 0,-0.08819 -0.264583,0.132292 -7.672917,6.394097 -9.789583,7.496527 -0.352778,0.220487 -0.881945,0.220487 -1.455208,0 -1.455208,-1.322917 0,-0.440972 0.220486,-0.79375 3.263195,-2.998611 4.586111,-4.894792 1.058334,-1.058333 2.204861,-2.954513 1.190625,-1.896181 1.984375,-3.130903 0.837847,-1.234722 1.322917,-1.234722 z"
       style="font-style:normal;font-variant:normal;font-weight:normal;font-stretch:normal;font-size:44.09722137px;line-height:179.99999523%;font-family:'mr dafoe';-inkscape-font-specification:'mr dafoe';fill:url(#radialGradient1693);fill-opacity:1;stroke:none;stroke-width:1.32291663;stroke-miterlimit:4;stroke-dasharray:none;stroke-opacity:1"
       id="path1217" />
    <path
       d="m 104.43174,18.956741 q 0.66146,0.48507 0.66146,0.926042 0,0.396875 -0.39688,0.749653 -0.35278,0.352777 -4.10104,5.423958 -3.748265,5.027083 -5.071182,6.923264 -1.278819,1.89618 -1.807986,2.734027 -0.529167,0.881945 -2.204861,3.086806 -1.631597,2.204861 -3.307292,3.96875 -1.675694,1.807986 -4.012847,3.439583 -2.38125,1.675694 -4.542013,2.116667 -0.926042,0 -1.852084,-0.396875 -1.763889,-0.749653 -1.763889,-2.778125 0,-2.557639 4.806598,-6.04132 4.762499,-3.439583 7.099652,-3.439583 0.352778,0 0.352778,0.132292 0,0.132291 -0.440972,0.440972 -3.792361,2.601736 -6.879167,5.600347 -3.130903,3.042708 -3.130903,4.321528 0,0.176389 0.264584,0.176389 0.264583,0 1.146528,-0.573264 2.116666,-1.499306 5.997222,-5.468056 4.27743,-4.7625 5.247569,-6.085416 1.719792,-2.337153 4.101042,-4.850695 l 0.881944,-0.926041 q 0.0441,-0.08819 0.132292,-0.176389 0.08819,-0.08819 0.220486,-0.308681 0.352778,-0.573263 0.30868,-0.573263 -0.132291,0 -0.573264,0.440972 -0.440972,0.440972 -1.278819,1.234722 -0.79375,0.749653 -2.734028,2.072569 -1.940277,1.27882 -3.130902,1.27882 -1.190625,0 -1.852084,-0.79375 -0.661458,-0.79375 -0.661458,-1.675695 0,-0.926041 1.146528,-2.734027 1.146527,-1.807986 2.998611,-3.924653 1.852083,-2.116667 4.7625,-3.924653 2.954514,-1.807986 6.041317,-2.160764 1.80799,0.396875 2.33715,1.27882 0.0882,-0.0441 0.35278,-0.0441 0.26459,0 0.88195,0.529166 z m -13.670142,9.304514 q 1.146528,-0.08819 3.96875,-2.116667 2.86632,-2.028472 5.159375,-4.056944 2.337157,-2.028472 2.337157,-2.337153 0,-0.08819 -0.17639,-0.08819 -2.293059,0.485069 -5.115281,2.425347 -2.822222,1.940278 -4.586111,3.748264 -1.763889,1.807986 -1.763889,2.293055 0,0.132292 0.176389,0.132292 z"
       style="font-style:normal;font-variant:normal;font-weight:normal;font-stretch:normal;font-size:44.09722137px;line-height:179.99999523%;font-family:'mr dafoe';-inkscape-font-specification:'mr dafoe';fill:url(#radialGradient1693);fill-opacity:1;stroke:none;stroke-width:1.32291663;stroke-miterlimit:4;stroke-dasharray:none;stroke-opacity:1"
       id="path1219" />
    <path
       d="m 107.22364,28.614033 q 1.5434,0 2.82222,-1.852084 1.32292,-1.89618 1.85209,-3.792361 0.52916,-1.940277 0.52916,-3.086805 0,-0.308681 -0.48507,-0.308681 -0.44097,0 -1.05833,0.48507 l -5.77674,4.453819 q -0.61736,0.352778 -1.41111,0.352778 -0.79375,0 -0.79375,-0.573264 0,-0.396875 0.0882,-0.529167 0.13229,-0.132291 0.66146,-0.440972 3.26319,-2.248958 8.90763,-7.320139 0.66146,-0.881944 1.19063,-0.881944 0.52917,0 1.76389,0.352778 1.23472,0.30868 1.23472,0.749653 0,2.645833 -0.48507,4.806597 -0.48507,2.160763 -1.01424,3.307291 -0.48506,1.102431 -0.48506,1.190625 0,0.08819 0.0882,0.08819 0.0882,0 0.35278,-0.132292 3.30729,-1.675694 8.42257,-5.468055 l 1.05833,-0.79375 q 0.39688,0.30868 0.39688,0.749652 0,0.440973 -0.39688,0.79375 -0.0882,0 -2.29306,1.852084 -2.16076,1.852083 -4.85069,4.056944 -2.64583,2.160764 -5.68854,3.96875 -3.04271,1.807986 -4.7184,1.807986 -4.14514,0 -4.14514,-4.982986 0,-0.396875 0.30868,-0.705556 0.35278,-0.352777 0.88194,-0.352777 0,0.220486 0.22049,0.705555 0.26458,0.440972 0.52916,0.749653 0.79375,0.749653 2.29306,0.749653 z"
       style="font-style:normal;font-variant:normal;font-weight:normal;font-stretch:normal;font-size:44.09722137px;line-height:179.99999523%;font-family:'mr dafoe';-inkscape-font-specification:'mr dafoe';fill:url(#radialGradient1693);fill-opacity:1;stroke:none;stroke-width:1.32291663;stroke-miterlimit:4;stroke-dasharray:none;stroke-opacity:1"
       id="path1221" />
    <path
       d="m 137.59147,11.460214 2.24896,-0.0441 q 4.36562,0 6.35,1.234723 0.97014,0.30868 0.97014,0.79375 0,0.352777 -0.88195,0.485069 -0.83784,0.132292 -5.95312,0.705556 -5.07118,0.529166 -6.96736,0.617361 -0.83785,0.0441 -3.88056,2.910416 -2.99861,2.86632 -5.73264,6.305903 -2.73403,3.439583 -2.73403,4.806597 0,0.220486 0.22049,0.396875 0.22049,0.132292 0.52917,0.132292 0.35278,0 1.05833,-0.264584 8.37847,-4.938888 16.27188,-10.803819 0.39687,0.308681 0.39687,0.749653 0,0.440972 -0.44097,0.881944 -0.44097,0.396875 -1.32292,1.190625 -0.83785,0.79375 -3.175,2.86632 -2.33715,2.072569 -4.40972,3.704166 -5.55625,4.497917 -7.76111,5.203472 -0.79375,0.220487 -1.89618,0.220487 -1.05834,0 -1.98438,-1.102431 -0.88194,-1.102431 -0.88194,-2.998611 0,-1.896181 2.42535,-5.468056 2.46944,-3.571874 6.70277,-7.320138 0.39688,-0.308681 0.39688,-0.573264 0,-0.264583 -0.92604,-0.264583 l -2.77813,0.08819 q -5.86493,0 -6.04132,-1.322917 -1.36701,-0.264583 -1.36701,-0.79375 0,-0.176389 0.17639,-0.176389 0.17639,-0.0441 0.30868,-0.0441 0.13229,-0.0441 0.44097,-0.08819 0.30868,-0.0441 4.85069,-0.705556 4.58612,-0.661458 10.40695,-1.10243 l 3.04271,-4.0569447 q 0.26458,-0.5291666 1.85208,-0.5291666 1.5875,0 1.5875,0.6614583 0,0.2204861 -0.35278,0.79375 l -1.10243,1.543403 q -0.22048,0.705555 -0.26458,1.058333 0,0.308681 0.61736,0.308681 z"
       style="font-style:normal;font-variant:normal;font-weight:normal;font-stretch:normal;font-size:44.09722137px;line-height:179.99999523%;font-family:'mr dafoe';-inkscape-font-specification:'mr dafoe';fill:url(#radialGradient1693);fill-opacity:1;stroke:none;stroke-width:1.32291663;stroke-miterlimit:4;stroke-dasharray:none;stroke-opacity:1"
       id="path1223" />
    <path
       d="m 132.76282,23.586949 q 2.42535,-1.675694 5.07118,-3.615972 -1.41111,-0.970139 -1.80798,-1.89618 -0.13229,-0.308681 -0.13229,-0.440972 0,-0.881945 0.57326,-1.146528 0.57326,-0.308681 1.85208,-0.308681 0.48507,0 2.86632,1.190625 2.38125,1.190625 2.99861,1.190625 0.66146,0 1.80799,-0.352778 1.14653,-0.396875 1.80799,-0.396875 0.70555,0 1.01423,0.308681 1.10243,1.455208 1.10243,1.763889 0,0.30868 -0.30868,0.529167 -0.26458,0.176388 -1.80798,1.234722 -1.49931,1.058333 -2.95452,2.160764 -1.45521,1.10243 -2.73403,2.469444 -1.27882,1.367014 -1.27882,2.204861 0,0.132292 0.22049,0.132292 2.38125,0 16.05139,-9.657292 0.30868,0 0.30868,0.573264 0,0.529167 -3.48368,3.792361 -3.48368,3.219097 -7.8934,6.35 -4.36563,3.086806 -6.35,3.086806 -3.08681,0 -3.08681,-3.086806 0,-1.675694 1.10243,-3.219097 1.14653,-1.5875 4.7625,-4.233333 -0.74965,0 -2.02847,-0.352778 -1.27882,-0.396875 -1.6316,-0.926042 -1.14653,1.014236 -3.96875,3.395486 -0.66146,0.48507 -1.71979,0.48507 -1.05833,0 -1.05833,-0.308681 0,-0.352778 0.70555,-0.926042 z"
       style="font-style:normal;font-variant:normal;font-weight:normal;font-stretch:normal;font-size:44.09722137px;line-height:179.99999523%;font-family:'mr dafoe';-inkscape-font-specification:'mr dafoe';fill:url(#radialGradient1693);fill-opacity:1;stroke:none;stroke-width:1.32291663;stroke-miterlimit:4;stroke-dasharray:none;stroke-opacity:1"
       id="path1225" />
    <path
       d="m 151.90377,29.892852 q 1.41111,0 3.48368,-1.852083 2.07257,-1.852083 2.16076,-2.557639 -0.52916,-0.440972 -1.14652,-1.5875 -0.57327,-1.190625 -0.61736,-1.190625 -1.36702,1.278819 -2.42535,2.954514 -1.6757,2.822222 -1.6757,3.880555 0,0.352778 0.22049,0.352778 z m 9.525,-10.803819 q -0.44097,0 -1.85208,1.367014 -1.36702,1.367014 -1.36702,1.89618 0,0.132292 0.26459,0.529167 0.26458,0.396875 0.39687,0.396875 0.74965,0 1.6757,-1.807986 0.97013,-1.807986 0.97013,-2.07257 0,-0.30868 -0.0882,-0.30868 z m 0.0882,5.688541 q 1.23473,0 3.83646,-1.499305 2.64584,-1.499306 4.63021,-2.998611 l 1.98438,-1.543403 q 0.39687,0.308681 0.39687,0.749653 0,0.440972 -0.39687,0.79375 -7.27605,6.746875 -11.02431,6.746875 -0.26458,0 -0.79375,-0.08819 -4.98299,5.776736 -8.55486,5.776736 -2.38125,-0.352777 -2.99861,-1.675694 -0.35278,-0.661458 -0.35278,-1.675695 0,-2.910416 3.35139,-6.923263 3.35139,-4.056945 8.42257,-5.953125 0.44097,0 0.66146,0.220486 0.22048,0.176389 0.39687,0.220486 0.17639,0 0.44097,-0.176389 0.30868,-0.220486 0.79375,-0.220486 0.48507,-0.0441 1.01424,0.529167 0.70556,0.573264 0.70556,1.411111 0,2.469444 -2.51355,6.305902 z"
       style="font-style:normal;font-variant:normal;font-weight:normal;font-stretch:normal;font-size:44.09722137px;line-height:179.99999523%;font-family:'mr dafoe';-inkscape-font-specification:'mr dafoe';fill:url(#radialGradient1693);fill-opacity:1;stroke:none;stroke-width:1.32291663;stroke-miterlimit:4;stroke-dasharray:none;stroke-opacity:1"
       id="path1227" />
    <path
       d="m 183.4388,29.099102 q 0,0.396875 0.48507,0.396875 0.52917,0 1.85208,-0.617361 1.36702,-0.617361 3.2191,-1.89618 1.89618,-1.27882 4.98299,-3.615973 3.1309,-2.38125 5.46805,-4.012847 0.39688,0.308681 0.39688,0.749653 0,0.440972 -0.39688,0.79375 -1.41111,1.367014 -3.57187,3.439583 -2.16077,2.028472 -6.61459,5.468056 -4.40972,3.439583 -6.17361,3.439583 -3.39548,0 -3.39548,-3.615972 0,-1.367014 1.05833,-2.86632 l 1.89618,-2.601736 q 0.26458,-0.396875 0.26458,-0.440972 0,-0.08819 -0.26458,0.132292 -7.67292,6.394097 -9.78958,7.496527 -0.35278,0.220487 -0.88195,0.220487 -1.45521,0 -1.45521,-1.322917 0,-0.440972 0.22049,-0.79375 2.55764,-3.704167 3.92465,-4.982986 l 0.74966,-0.749653 q 0.0882,-0.08819 0.0882,-0.176389 0,-0.08819 -0.0882,-0.08819 -0.0882,0 -0.26459,0.176389 l -4.7184,3.704166 q -4.10104,3.219097 -4.49792,3.439584 -0.35277,0.176388 -0.66145,0.176388 -0.30869,0 -0.97014,-0.352777 -0.66146,-0.396875 -0.66146,-0.881945 0,-0.132291 0.13229,-0.352778 4.32153,-4.762499 6.3059,-7.849305 0.83785,-1.322917 1.45521,-2.337153 0.66146,-1.058333 1.01424,-1.499305 0.39687,-0.440972 0.83784,-0.440972 0.44098,0 0.97014,0.529166 0.57327,0.48507 0.57327,1.014236 0,0.529167 -0.35278,1.102431 -1.49931,2.68993 -2.33715,3.48368 -0.1323,0.132292 -0.1323,0.264584 0,0.08819 0.0882,0.08819 l 0.13229,-0.0441 5.90903,-4.101042 q 2.24896,-1.543402 2.68993,-1.543402 0.44097,0 0.92604,0.30868 0.52917,0.264583 0.52917,0.617361 0,0.352778 -0.22049,0.705556 l -2.86632,3.924652 q -0.57326,0.705556 -0.57326,0.79375 0,0.08819 0.0441,0.08819 l 0.22048,-0.132292 q 5.51215,-3.748264 7.45243,-5.203472 1.98438,-1.455208 2.38125,-1.852083 0.61736,-0.440972 1.01424,-0.440972 0.44097,0 0.57326,0.08819 l 0.97014,0.749653 q 0.44097,0.220486 0.44097,0.573264 0,0.352777 -0.17639,0.573264 -2.60173,2.822222 -4.18923,4.497916 -1.5434,1.675695 -2.24896,2.469445 -1.14653,1.367013 -1.41111,2.204861 -0.35278,0.617361 -0.35278,1.10243 z"
       style="font-style:normal;font-variant:normal;font-weight:normal;font-stretch:normal;font-size:44.09722137px;line-height:179.99999523%;font-family:'mr dafoe';-inkscape-font-specification:'mr dafoe';fill:url(#radialGradient1693);fill-opacity:1;stroke:none;stroke-width:1.32291663;stroke-miterlimit:4;stroke-dasharray:none;stroke-opacity:1"
       id="path1229" />
  </g>
  <g
     aria-label="CTF"
     style="font-style:normal;font-weight:normal;font-size:10.58333302px;line-height:125%;font-family:sans-serif;letter-spacing:0px;word-spacing:0px;fill:#00dfff;fill-opacity:1;stroke:none;stroke-width:0.26458332px;stroke-linecap:butt;stroke-linejoin:miter;stroke-opacity:1"
     id="text9261-3">
    <path
       d="m 142.02013,60.99501 -1.82935,1.209229 q -1.67432,-2.480469 -4.37183,-3.906738 -2.6665,-1.457276 -5.79809,-1.457276 -5.08496,0 -8.68164,3.59668 -3.59668,3.59668 -3.59668,8.681641 0,5.08496 3.59668,8.68164 3.59668,3.59668 8.68164,3.59668 3.13159,0 5.79809,-1.457276 2.69751,-1.457275 4.37183,-3.937744 l 1.79834,1.302246 q -1.98437,2.914551 -5.14697,4.619873 -3.1626,1.705323 -6.82129,1.705323 -2.94556,0 -5.64307,-1.147217 -2.6665,-1.147217 -4.61987,-3.100586 -1.95337,-1.953369 -3.10059,-4.619873 -1.14721,-2.69751 -1.14721,-5.643066 0,-2.945557 1.14721,-5.612061 1.14722,-2.69751 3.10059,-4.650879 1.95337,-1.953369 4.61987,-3.100586 2.69751,-1.147217 5.64307,-1.147217 3.6897,0 6.85229,1.736328 3.1626,1.705323 5.14698,4.650879 z m 3.68969,-2.54248 -1.86035,1.209228 q -2.29443,-3.348632 -5.95312,-5.302002 -3.62769,-1.984375 -7.87549,-1.984375 -4.55786,0 -8.40259,2.263428 -3.84473,2.232422 -6.10815,6.077149 -2.23243,3.844726 -2.23243,8.402588 0,4.557861 2.23243,8.402587 2.26342,3.844727 6.10815,6.108155 3.84473,2.232422 8.40259,2.232422 4.2478,0 7.90649,-1.984375 3.65869,-1.984375 5.95313,-5.364014 l 1.82934,1.27124 q -2.60449,3.844727 -6.75927,6.077149 -4.12378,2.232421 -8.92969,2.232421 -5.14697,0 -9.5188,-2.54248 -4.37183,-2.54248 -6.91431,-6.914307 -2.54248,-4.371826 -2.54248,-9.518798 0,-5.146973 2.54248,-9.518799 2.54248,-4.371826 6.91431,-6.914307 4.37183,-2.54248 9.5188,-2.54248 4.80591,0 8.92969,2.232421 4.15478,2.232422 6.75927,6.077149 z m 3.72071,-2.480469 -1.86035,1.209229 q -2.91456,-4.278809 -7.56543,-6.759278 -4.61988,-2.511474 -9.98389,-2.511474 -4.30982,0 -8.24756,1.674316 -3.93774,1.674317 -6.79028,4.526856 -2.82154,2.821533 -4.49585,6.759277 -1.67432,3.937744 -1.67432,8.247559 0,4.309814 1.67432,8.247558 1.67431,3.937744 4.49585,6.790283 2.85254,2.821534 6.79028,4.49585 3.93774,1.674316 8.24756,1.674316 5.39502,0 10.01489,-2.511474 4.61987,-2.511475 7.53443,-6.790283 l 1.79834,1.333251 q -3.22461,4.712891 -8.34058,7.472413 -5.08496,2.728515 -11.00708,2.728515 -6.3562,0 -11.75122,-3.131592 -5.39502,-3.162597 -8.55762,-8.557617 -3.13159,-5.395019 -3.13159,-11.75122 0,-6.356202 3.13159,-11.751221 3.1626,-5.39502 8.55762,-8.526611 5.39502,-3.162598 11.75122,-3.162598 5.95312,0 11.06909,2.790527 5.11597,2.759522 8.34058,7.503418 z m 3.65869,-2.54248 -1.86035,1.209228 q -3.53467,-5.177978 -9.14673,-8.185547 -5.58106,-3.007568 -12.06128,-3.007568 -5.20899,0 -9.98389,2.046387 -4.74389,2.015381 -8.18554,5.457031 -3.44166,3.44165 -5.48804,8.216553 -2.01538,4.743896 -2.01538,9.952881 0,5.208984 2.01538,9.983886 2.04638,4.743897 5.48804,8.185547 3.44165,3.441651 8.18554,5.488037 4.7749,2.015381 9.98389,2.015381 6.48022,0 12.09228,-3.038574 5.61206,-3.038574 9.14673,-8.216553 l 1.79834,1.364258 q -3.84472,5.581055 -9.92187,8.867676 -6.07715,3.255615 -13.11548,3.255615 -5.67407,0 -10.85205,-2.232422 -5.14697,-2.201416 -8.89868,-5.922119 -3.72071,-3.751709 -5.95313,-8.898682 -2.20141,-5.177978 -2.20141,-10.85205 0,-5.674073 2.20141,-10.821045 2.23242,-5.177979 5.95313,-8.898682 3.75171,-3.751709 8.89868,-5.953125 5.17798,-2.232422 10.85205,-2.232422 7.06933,0 13.14648,3.286621 6.07715,3.286621 9.92188,8.929688 z"
       style="font-style:normal;font-variant:normal;font-weight:normal;font-stretch:normal;font-size:63.5px;font-family:monoton;-inkscape-font-specification:monoton;fill:#00dfff;fill-opacity:1;stroke:none;stroke-width:0.26458332px;stroke-opacity:1"
       id="path1256" />
    <path
       d="m 156.34483,45.678116 v -2.232422 h 33.48633 v 2.232422 z m 0,4.464844 v -2.232422 h 33.48633 v 2.232422 z m 0,4.464843 v -2.232422 h 33.48633 v 2.232422 h -8.92969 v 40.183594 h -2.23242 V 54.607803 h -2.23242 v 40.183594 h -2.23242 V 54.607803 h -2.23242 v 40.183594 h -2.23243 V 54.607803 h -2.23242 v 40.183594 h -2.23242 V 54.607803 Z"
       style="font-style:normal;font-variant:normal;font-weight:normal;font-stretch:normal;font-size:63.5px;font-family:monoton;-inkscape-font-specification:monoton;fill:#00dfff;fill-opacity:1;stroke:none;stroke-width:0.26458332px;stroke-opacity:1"
       id="path1258" />
    <path
       d="m 210.54308,94.791397 h -2.23243 V 43.445694 h 24.71167 v 2.232422 h -22.47924 v 2.232422 h 22.47924 v 2.232422 h -22.47924 v 2.232421 h 22.47924 v 2.232422 h -22.47924 v 11.16211 h 21.42504 v 2.232422 h -21.42504 v 2.232421 h 21.42504 v 2.232422 H 210.54308 V 74.6996 h 21.42504 v 2.232422 h -21.42504 z m -4.46485,0 h -2.23242 V 43.445694 h 2.23242 z m -4.46484,0 h -2.23242 V 43.445694 h 2.23242 z m -4.46485,0 h -2.23242 V 43.445694 h 2.23242 z"
       style="font-style:normal;font-variant:normal;font-weight:normal;font-stretch:normal;font-size:63.5px;font-family:monoton;-inkscape-font-specification:monoton;fill:#00dfff;fill-opacity:1;stroke:none;stroke-width:0.26458332px;stroke-opacity:1"
       id="path1260" />
  </g>
  <g
     aria-label="CTF"
     style="font-style:normal;font-weight:normal;font-size:10.58333302px;line-height:125%;font-family:sans-serif;letter-spacing:0px;word-spacing:0px;fill:#000000;fill-opacity:1;stroke:none;stroke-width:0.26458332px;stroke-linecap:butt;stroke-linejoin:miter;stroke-opacity:1"
     id="text9261">
    <path
       d="m 143.07845,59.936676 -1.82935,1.209229 q -1.67432,-2.480469 -4.37183,-3.906739 -2.6665,-1.457275 -5.79809,-1.457275 -5.08496,0 -8.68164,3.59668 -3.59668,3.596679 -3.59668,8.68164 0,5.084961 3.59668,8.681641 3.59668,3.596679 8.68164,3.596679 3.13159,0 5.79809,-1.457275 2.69751,-1.457275 4.37183,-3.937744 l 1.79834,1.302246 q -1.98438,2.914551 -5.14697,4.619873 -3.1626,1.705322 -6.82129,1.705322 -2.94556,0 -5.64307,-1.147216 -2.6665,-1.147217 -4.61987,-3.100586 -1.95337,-1.95337 -3.10059,-4.619873 -1.14721,-2.69751 -1.14721,-5.643067 0,-2.945556 1.14721,-5.61206 1.14722,-2.69751 3.10059,-4.650879 1.95337,-1.953369 4.61987,-3.100586 2.69751,-1.147217 5.64307,-1.147217 3.6897,0 6.85229,1.736328 3.1626,1.705322 5.14698,4.650879 z m 3.68969,-2.54248 -1.86035,1.209228 q -2.29443,-3.348633 -5.95312,-5.302002 -3.62769,-1.984375 -7.87549,-1.984375 -4.55786,0 -8.40259,2.263428 -3.84473,2.232422 -6.10815,6.077148 -2.23243,3.844727 -2.23243,8.402588 0,4.557862 2.23243,8.402588 2.26342,3.844727 6.10815,6.108154 3.84473,2.232422 8.40259,2.232422 4.2478,0 7.90649,-1.984375 3.65869,-1.984375 5.95313,-5.364013 l 1.82934,1.27124 q -2.60449,3.844726 -6.75927,6.077148 -4.12378,2.232422 -8.92969,2.232422 -5.14697,0 -9.5188,-2.54248 -4.37183,-2.542481 -6.91431,-6.914307 -2.54248,-4.371826 -2.54248,-9.518799 0,-5.146972 2.54248,-9.518799 2.54248,-4.371826 6.91431,-6.914306 4.37183,-2.542481 9.5188,-2.542481 4.80591,0 8.92969,2.232422 4.15478,2.232422 6.75927,6.077149 z m 3.72071,-2.480469 -1.86036,1.209228 q -2.91455,-4.278808 -7.56543,-6.759277 -4.61987,-2.511475 -9.98388,-2.511475 -4.30982,0 -8.24756,1.674317 -3.93774,1.674316 -6.79028,4.526855 -2.82154,2.821533 -4.49585,6.759278 -1.67432,3.937744 -1.67432,8.247558 0,4.309815 1.67432,8.247559 1.67431,3.937744 4.49585,6.790283 2.85254,2.821533 6.79028,4.49585 3.93774,1.674316 8.24756,1.674316 5.39502,0 10.01489,-2.511475 4.61987,-2.511474 7.53442,-6.790283 l 1.79834,1.333252 q -3.22461,4.712891 -8.34057,7.472412 -5.08496,2.728516 -11.00708,2.728516 -6.3562,0 -11.75122,-3.131592 -5.39502,-3.162598 -8.55762,-8.557617 -3.13159,-5.39502 -3.13159,-11.751221 0,-6.356201 3.13159,-11.751221 3.1626,-5.395019 8.55762,-8.526611 5.39502,-3.162598 11.75122,-3.162598 5.95312,0 11.06909,2.790528 5.11597,2.759521 8.34058,7.503418 z m 3.65869,-2.542481 -1.86035,1.209229 q -3.53467,-5.177979 -9.14673,-8.185547 -5.58106,-3.007568 -12.06128,-3.007568 -5.20899,0 -9.98389,2.046386 -4.7439,2.015381 -8.18555,5.457032 -3.44165,3.44165 -5.48803,8.216552 -2.01538,4.743897 -2.01538,9.952881 0,5.208985 2.01538,9.983887 2.04638,4.743896 5.48803,8.185547 3.44165,3.44165 8.18555,5.488037 4.7749,2.015381 9.98389,2.015381 6.48022,0 12.09228,-3.038574 5.61206,-3.038575 9.14673,-8.216553 l 1.79834,1.364258 q -3.84473,5.581054 -9.92187,8.867675 -6.07715,3.255616 -13.11548,3.255616 -5.67407,0 -10.85205,-2.232422 -5.14698,-2.201416 -8.89868,-5.922119 -3.72071,-3.751709 -5.95313,-8.898682 -2.20142,-5.177979 -2.20142,-10.852051 0,-5.674072 2.20142,-10.821045 2.23242,-5.177978 5.95313,-8.898681 3.7517,-3.751709 8.89868,-5.953125 5.17798,-2.232422 10.85205,-2.232422 7.06933,0 13.14648,3.286621 6.07715,3.286621 9.92188,8.929687 z"
       style="font-style:normal;font-variant:normal;font-weight:normal;font-stretch:normal;font-size:63.5px;font-family:monoton;-inkscape-font-specification:monoton;fill:#000000;fill-opacity:1;stroke:none;stroke-width:0.26458332px;stroke-opacity:1"
       id="path1232"
       inkscape:connector-curvature="0" />
    <path
       d="M 157.40315,44.619781 V 42.38736 h 33.48633 v 2.232421 z m 0,4.464844 v -2.232422 h 33.48633 v 2.232422 z m 0,4.464844 v -2.232422 h 33.48633 v 2.232422 h -8.92969 v 40.183594 h -2.23242 V 53.549469 h -2.23242 v 40.183594 h -2.23242 V 53.549469 h -2.23242 v 40.183594 h -2.23243 V 53.549469 h -2.23242 v 40.183594 h -2.23242 V 53.549469 Z"
       style="font-style:normal;font-variant:normal;font-weight:normal;font-stretch:normal;font-size:63.5px;font-family:monoton;-inkscape-font-specification:monoton;fill:#000000;fill-opacity:1;stroke:none;stroke-width:0.26458332px;stroke-opacity:1"
       id="path1234"
       inkscape:connector-curvature="0" />
    <path
       d="m 211.60139,93.733063 h -2.23242 V 42.38736 h 24.71167 v 2.232421 h -22.47925 v 2.232422 h 22.47925 v 2.232422 h -22.47925 v 2.232422 h 22.47925 v 2.232422 h -22.47925 v 11.162109 h 21.42505 V 66.944 h -21.42505 v 2.232422 h 21.42505 v 2.232422 h -21.42505 v 2.232422 h 21.42505 v 2.232422 h -21.42505 z m -4.46484,0 h -2.23242 V 42.38736 h 2.23242 z m -4.46484,0 h -2.23242 V 42.38736 h 2.23242 z m -4.46485,0 h -2.23242 V 42.38736 h 2.23242 z"
       style="font-style:normal;font-variant:normal;font-weight:normal;font-stretch:normal;font-size:63.5px;font-family:monoton;-inkscape-font-specification:monoton;fill:#000000;fill-opacity:1;stroke:none;stroke-width:0.26458332px;stroke-opacity:1"
       id="path1236"
       inkscape:connector-curvature="0" />
  </g>
  <g
     aria-label="III: 2018"
     transform="rotate(-16.381827)"
     style="font-style:normal;font-weight:normal;font-size:10.58333302px;line-height:125%;font-family:sans-serif;letter-spacing:0px;word-spacing:0px;fill:none;fill-opacity:1;stroke:#ff00bf;stroke-width:1.58749998;stroke-linecap:butt;stroke-linejoin:miter;stroke-miterlimit:4;stroke-dasharray:none;stroke-opacity:1"
     id="text9265">
    <path
       d="m 103.58703,175.34303 q -0.38586,-0.24805 -0.60634,-0.6339 -0.24805,-0.38585 -0.38585,-0.82682 -0.16537,-0.44097 -0.24805,-0.90951 -0.11024,-0.49609 -0.22049,-0.93706 0,-0.38585 0.16537,-0.55122 0.16536,-0.19292 0.35829,-0.35829 0.66146,-0.0276 1.18511,-0.11024 0.52366,-0.0827 1.01975,-0.16537 0.49609,-0.0827 0.99219,-0.1378 0.49609,-0.0827 1.07487,-0.0827 0.41341,-0.85439 0.7717,-1.62609 0.35829,-0.79926 0.68902,-1.51584 0.16536,-0.68902 0.41341,-1.26779 0.27561,-0.60634 0.52365,-1.13 0.24805,-0.55121 0.44098,-1.07487 0.19292,-0.55121 0.24804,-1.15755 0.33073,-0.96462 0.57878,-1.76389 0.27561,-0.82682 0.41341,-1.95681 -1.04731,0.16536 -1.68121,0.33073 -0.63389,0.1378 -0.9095,0.27561 -0.55122,-0.0276 -0.88195,-0.22049 -0.30316,-0.19293 -0.49609,-0.46853 -0.19292,-0.27561 -0.33073,-0.6339 -0.1378,-0.35829 -0.33073,-0.74414 0.11025,-0.24805 0.0551,-0.71658 -0.0551,-0.49609 -0.33073,-0.71658 0.22049,-0.0551 0.33073,-0.35829 0.11025,-0.33073 0.0276,-0.49609 0.46854,-0.13781 0.99219,-0.16537 0.52366,-0.0551 1.01975,-0.0827 0.52365,-0.0551 0.99219,-0.11024 0.46853,-0.0827 0.79926,-0.30317 1.43316,-0.0551 2.97656,-0.11025 1.57097,-0.0551 2.89388,-0.1378 0.4961,0.16536 1.12999,0.16536 0.66146,0 1.29536,0.0827 0.66146,0.0827 1.15755,0.35829 0.52366,0.2756 0.71658,0.96462 0.41341,0.0551 0.60634,0.22049 0.22048,0.16536 0.27561,0.41341 0.0551,0.22049 0.0276,0.52366 0,0.2756 0,0.55121 -0.44098,0.33073 -1.12999,0.55122 -0.66146,0.19292 -1.46073,0.33073 -0.79926,0.11024 -1.6812,0.16536 -0.85439,0.0276 -1.68121,0.0551 -0.1378,0.90951 -0.49609,2.14974 -0.33073,1.21267 -0.68902,2.39779 -0.35829,1.15755 -0.6339,2.09462 -0.24805,0.9095 -0.22048,1.18511 -0.27561,0.6339 -0.46854,1.07487 -0.16536,0.44097 -0.33073,0.82682 -0.1378,0.38585 -0.30317,0.7717 -0.1378,0.35829 -0.35829,0.82683 h 1.87414 q 0.0551,0.30316 0.24804,0.41341 0.19293,0.11024 0.41341,0.19292 0.22049,0.0827 0.38586,0.22049 0.19292,0.11024 0.19292,0.38585 0.52366,0.1378 0.66146,0.41341 0.1378,0.27561 0.0551,0.60634 -0.0551,0.30317 -0.27561,0.63389 -0.19292,0.33073 -0.38585,0.57878 -0.24804,-0.0551 -0.46853,0.1378 -0.22049,0.16537 -0.41341,0.38585 -0.79926,-0.11024 -1.57097,-0.0276 -0.7717,0.0827 -1.43316,0.13781 -0.1378,0.0276 -0.11024,0.16536 0.0276,0.11025 -0.0551,0.16537 -0.85438,-0.27561 -1.76389,-0.22049 -0.88194,0.0551 -1.81901,0.27561 -0.9095,0.19292 -1.87413,0.41341 -0.96463,0.24805 -1.95681,0.27561 z"
       style="font-style:normal;font-variant:normal;font-weight:normal;font-stretch:normal;font-size:28.22222137px;font-family:'permanent marker';-inkscape-font-specification:'permanent marker';fill:none;stroke:#ff00bf;stroke-width:1.58749998;stroke-miterlimit:4;stroke-dasharray:none;stroke-opacity:1"
       id="path1239" />
    <path
       d="m 118.13911,175.34303 q -0.38585,-0.24805 -0.60634,-0.6339 -0.24805,-0.38585 -0.38585,-0.82682 -0.16536,-0.44097 -0.24805,-0.90951 -0.11024,-0.49609 -0.22048,-0.93706 0,-0.38585 0.16536,-0.55122 0.16537,-0.19292 0.35829,-0.35829 0.66146,-0.0276 1.18511,-0.11024 0.52366,-0.0827 1.01975,-0.16537 0.4961,-0.0827 0.99219,-0.1378 0.49609,-0.0827 1.07487,-0.0827 0.41341,-0.85439 0.7717,-1.62609 0.35829,-0.79926 0.68902,-1.51584 0.16537,-0.68902 0.41341,-1.26779 0.27561,-0.60634 0.52366,-1.13 0.24804,-0.55121 0.44097,-1.07487 0.19292,-0.55121 0.24805,-1.15755 0.33073,-0.96462 0.57877,-1.76389 0.27561,-0.82682 0.41341,-1.95681 -1.04731,0.16536 -1.6812,0.33073 -0.6339,0.1378 -0.90951,0.27561 -0.55121,-0.0276 -0.88194,-0.22049 -0.30317,-0.19293 -0.4961,-0.46853 -0.19292,-0.27561 -0.33073,-0.6339 -0.1378,-0.35829 -0.33072,-0.74414 0.11024,-0.24805 0.0551,-0.71658 -0.0551,-0.49609 -0.33073,-0.71658 0.22048,-0.0551 0.33073,-0.35829 0.11024,-0.33073 0.0276,-0.49609 0.46853,-0.13781 0.99218,-0.16537 0.52366,-0.0551 1.01975,-0.0827 0.52366,-0.0551 0.99219,-0.11024 0.46853,-0.0827 0.79926,-0.30317 1.43316,-0.0551 2.97657,-0.11025 1.57096,-0.0551 2.89388,-0.1378 0.49609,0.16536 1.12999,0.16536 0.66145,0 1.29535,0.0827 0.66146,0.0827 1.15755,0.35829 0.52366,0.2756 0.71658,0.96462 0.41342,0.0551 0.60634,0.22049 0.22049,0.16536 0.27561,0.41341 0.0551,0.22049 0.0276,0.52366 0,0.2756 0,0.55121 -0.44097,0.33073 -1.12999,0.55122 -0.66146,0.19292 -1.46072,0.33073 -0.79926,0.11024 -1.68121,0.16536 -0.85438,0.0276 -1.68121,0.0551 -0.1378,0.90951 -0.49609,2.14974 -0.33073,1.21267 -0.68902,2.39779 -0.35829,1.15755 -0.6339,2.09462 -0.24804,0.9095 -0.22048,1.18511 -0.27561,0.6339 -0.46853,1.07487 -0.16537,0.44097 -0.33073,0.82682 -0.13781,0.38585 -0.30317,0.7717 -0.13781,0.35829 -0.35829,0.82683 h 1.87413 q 0.0551,0.30316 0.24805,0.41341 0.19292,0.11024 0.41341,0.19292 0.22048,0.0827 0.38585,0.22049 0.19292,0.11024 0.19292,0.38585 0.52366,0.1378 0.66146,0.41341 0.13781,0.27561 0.0551,0.60634 -0.0551,0.30317 -0.2756,0.63389 -0.19293,0.33073 -0.38585,0.57878 -0.24805,-0.0551 -0.46854,0.1378 -0.22048,0.16537 -0.41341,0.38585 -0.79926,-0.11024 -1.57096,-0.0276 -0.7717,0.0827 -1.43316,0.13781 -0.13781,0.0276 -0.11025,0.16536 0.0276,0.11025 -0.0551,0.16537 -0.85438,-0.27561 -1.76389,-0.22049 -0.88194,0.0551 -1.81901,0.27561 -0.9095,0.19292 -1.87413,0.41341 -0.96462,0.24805 -1.95681,0.27561 z"
       style="font-style:normal;font-variant:normal;font-weight:normal;font-stretch:normal;font-size:28.22222137px;font-family:'permanent marker';-inkscape-font-specification:'permanent marker';fill:none;stroke:#ff00bf;stroke-width:1.58749998;stroke-miterlimit:4;stroke-dasharray:none;stroke-opacity:1"
       id="path1241" />
    <path
       d="m 132.69119,175.34303 q -0.38585,-0.24805 -0.60634,-0.6339 -0.24804,-0.38585 -0.38585,-0.82682 -0.16536,-0.44097 -0.24804,-0.90951 -0.11025,-0.49609 -0.22049,-0.93706 0,-0.38585 0.16537,-0.55122 0.16536,-0.19292 0.35829,-0.35829 0.66145,-0.0276 1.18511,-0.11024 0.52365,-0.0827 1.01975,-0.16537 0.49609,-0.0827 0.99218,-0.1378 0.4961,-0.0827 1.07487,-0.0827 0.41341,-0.85439 0.7717,-1.62609 0.35829,-0.79926 0.68902,-1.51584 0.16537,-0.68902 0.41342,-1.26779 0.2756,-0.60634 0.52365,-1.13 0.24805,-0.55121 0.44097,-1.07487 0.19293,-0.55121 0.24805,-1.15755 0.33073,-0.96462 0.57877,-1.76389 0.27561,-0.82682 0.41342,-1.95681 -1.04731,0.16536 -1.68121,0.33073 -0.6339,0.1378 -0.90951,0.27561 -0.55121,-0.0276 -0.88194,-0.22049 -0.30317,-0.19293 -0.49609,-0.46853 -0.19293,-0.27561 -0.33073,-0.6339 -0.13781,-0.35829 -0.33073,-0.74414 0.11024,-0.24805 0.0551,-0.71658 -0.0551,-0.49609 -0.33073,-0.71658 0.22049,-0.0551 0.33073,-0.35829 0.11024,-0.33073 0.0276,-0.49609 0.46853,-0.13781 0.99219,-0.16537 0.52365,-0.0551 1.01975,-0.0827 0.52365,-0.0551 0.99218,-0.11024 0.46854,-0.0827 0.79927,-0.30317 1.43316,-0.0551 2.97656,-0.11025 1.57096,-0.0551 2.89388,-0.1378 0.49609,0.16536 1.12999,0.16536 0.66146,0 1.29536,0.0827 0.66145,0.0827 1.15755,0.35829 0.52365,0.2756 0.71658,0.96462 0.41341,0.0551 0.60633,0.22049 0.22049,0.16536 0.27561,0.41341 0.0551,0.22049 0.0276,0.52366 0,0.2756 0,0.55121 -0.44097,0.33073 -1.12999,0.55122 -0.66146,0.19292 -1.46072,0.33073 -0.79926,0.11024 -1.68121,0.16536 -0.85438,0.0276 -1.6812,0.0551 -0.13781,0.90951 -0.4961,2.14974 -0.33073,1.21267 -0.68902,2.39779 -0.35829,1.15755 -0.63389,2.09462 -0.24805,0.9095 -0.22049,1.18511 -0.27561,0.6339 -0.46853,1.07487 -0.16537,0.44097 -0.33073,0.82682 -0.1378,0.38585 -0.30317,0.7717 -0.1378,0.35829 -0.35829,0.82683 h 1.87413 q 0.0551,0.30316 0.24805,0.41341 0.19292,0.11024 0.41341,0.19292 0.22049,0.0827 0.38585,0.22049 0.19293,0.11024 0.19293,0.38585 0.52365,0.1378 0.66146,0.41341 0.1378,0.27561 0.0551,0.60634 -0.0551,0.30317 -0.27561,0.63389 -0.19293,0.33073 -0.38585,0.57878 -0.24805,-0.0551 -0.46853,0.1378 -0.22049,0.16537 -0.41342,0.38585 -0.79926,-0.11024 -1.57096,-0.0276 -0.7717,0.0827 -1.43316,0.13781 -0.1378,0.0276 -0.11024,0.16536 0.0276,0.11025 -0.0551,0.16537 -0.85439,-0.27561 -1.76389,-0.22049 -0.88195,0.0551 -1.81901,0.27561 -0.90951,0.19292 -1.87413,0.41341 -0.96463,0.24805 -1.95682,0.27561 z"
       style="font-style:normal;font-variant:normal;font-weight:normal;font-stretch:normal;font-size:28.22222137px;font-family:'permanent marker';-inkscape-font-specification:'permanent marker';fill:none;stroke:#ff00bf;stroke-width:1.58749998;stroke-miterlimit:4;stroke-dasharray:none;stroke-opacity:1"
       id="path1243" />
    <path
       d="m 150.79861,171.73257 q 0.0551,0.22048 0.0827,0.41341 0.0276,0.19292 0.0827,0.41341 -0.11024,0.27561 -0.19293,0.55122 -0.0827,0.24804 -0.16536,0.49609 -0.0827,0.19293 -0.11024,0.24805 -0.0276,0.0551 -0.0276,0.0827 0,0.0276 0,0.0827 0.0276,0.0276 0.0276,0.22049 l -0.11025,0.33073 q -0.1378,0.19292 -0.33073,0.30316 -0.19292,0.11025 -0.38585,0.19293 -0.0551,0.0551 -0.16536,0.0827 -0.11025,0.0551 -0.16537,0.11025 l -0.0827,0.33072 -0.35829,0.0551 q -0.46853,0.11024 -0.79926,0.11024 h -0.33073 q -0.33073,-0.30317 -0.52365,-0.46853 -0.19293,-0.16537 -0.41342,-0.30317 -0.2756,-0.38585 -0.30316,-0.55122 -0.0276,-0.19292 -0.0827,-0.35829 -0.0551,-0.35829 -0.1378,-0.46853 l -0.38585,-0.38585 0.33073,-0.24805 -0.30317,-0.52365 q 0.33073,-0.24805 0.49609,-0.35829 0.16537,-0.11025 0.27561,-0.22049 0.11024,-0.1378 0.24805,-0.33073 0.1378,-0.19292 0.44097,-0.6339 l 0.24805,-0.35829 0.35829,0.19293 q 0.11024,0.0827 0.46853,0.16536 0.38585,0.0551 0.66146,0.11025 0.46853,0.1378 0.88194,0.22048 0.41341,0.0551 0.66146,0.27561 z m 1.51585,-7.71702 q -0.0551,0.41342 -0.11025,0.60634 -0.0276,0.19293 -0.0276,0.38585 0,0.16537 0.0276,0.41341 0.0551,0.24805 0.16537,0.7717 l 0.0827,0.44098 -0.41341,0.0827 q -0.13781,0.0551 -0.46854,0.27561 -0.30316,0.22048 -0.55121,0.35829 -0.38585,0.22048 -0.74414,0.49609 -0.35829,0.24805 -0.71658,0.27561 -0.44097,-0.22049 -0.60634,-0.33073 -0.16536,-0.11024 -0.33073,-0.24805 -0.1378,-0.27561 -0.24804,-0.52365 -0.11025,-0.24805 -0.24805,-0.4961 -0.0827,-0.19292 -0.11024,-0.24804 -0.0276,-0.0551 -0.0551,-0.0551 0,-0.0276 -0.0551,-0.0551 -0.0276,-0.0276 -0.16536,-0.16536 L 147.574,165.6692 q -0.0276,-0.41341 0.16537,-0.85438 0.0551,-0.22049 0.11024,-0.38585 l -0.19292,-0.30317 0.22048,-0.30317 q 0.19293,-0.27561 0.27561,-0.38585 0.0827,-0.13781 0.22049,-0.27561 l 0.24804,-0.22049 q 0.44098,-0.0276 0.68902,-0.0276 0.27561,-0.0276 0.55122,-0.11024 0.46853,0.11024 0.60633,0.22049 0.16537,0.0827 0.30317,0.19292 0.30317,0.22049 0.44097,0.22049 h 0.55122 l -0.0551,0.44097 z"
       style="font-style:normal;font-variant:normal;font-weight:normal;font-stretch:normal;font-size:28.22222137px;font-family:'permanent marker';-inkscape-font-specification:'permanent marker';fill:none;stroke:#ff00bf;stroke-width:1.58749998;stroke-miterlimit:4;stroke-dasharray:none;stroke-opacity:1"
       id="path1245" />
    <path
       d="m 183.45812,170.21673 q 0.66146,0.33072 0.66146,0.82682 0.0276,0.49609 -0.30317,0.93706 -0.30317,0.41342 -0.82683,0.6339 -0.49609,0.22049 -0.9095,-0.0276 -0.0551,0.22049 -0.24805,0.30317 -0.16536,0.0551 -0.22048,0.24805 -2.6734,0.41341 -5.45703,1.01974 -2.78364,0.60634 -5.56728,0.90951 -2.14974,-0.0827 -3.5829,-0.6339 -0.57877,-0.49609 -0.88194,-1.24023 -0.27561,-0.74414 -0.33073,-1.57097 -0.0551,-0.82682 0.0551,-1.59852 0.11024,-0.79926 0.33073,-1.37804 1.43316,-1.81901 2.97656,-3.47265 1.57096,-1.68121 3.55534,-2.97657 0.57878,-0.71658 1.35048,-1.21267 0.7717,-0.52365 1.4056,-1.15755 -0.82683,-0.30317 -1.73633,-0.30317 -0.90951,0 -1.79145,0.16536 -0.88195,0.13781 -1.65365,0.35829 -0.7717,0.22049 -1.35047,0.33073 -0.44098,-0.22048 -1.04731,-0.24804 -0.57878,-0.0276 -1.15756,-0.22049 -0.33072,-0.27561 -0.46853,-0.71658 -0.11024,-0.44097 -0.1378,-0.9095 -0.0276,-0.46854 -0.0276,-0.88195 0,-0.44097 -0.11025,-0.71658 0.22049,-0.35829 0.38585,-0.71658 0.19293,-0.35829 0.44098,-0.66146 1.29535,-0.35829 2.86632,-0.57877 1.57096,-0.24805 3.16948,-0.22049 1.59853,0.0276 3.08681,0.41341 1.48828,0.35829 2.64583,1.21268 0.13781,0.7717 0.57878,1.24023 0.44097,0.44097 1.07487,0.68902 0.30317,0.55121 0.52365,1.12999 0.22049,0.55122 0.30317,1.18511 -0.55121,1.46072 -1.57096,2.48047 -0.99219,0.99219 -2.01194,1.81901 -0.55121,0.46854 -1.18511,0.79926 -0.6339,0.33073 -1.10243,0.77171 -0.11024,0.11024 -0.13781,0.30316 -0.0276,0.16537 -0.1378,0.24805 -0.49609,0.44097 -1.10243,0.79926 -0.60634,0.33073 -1.10243,0.7717 -0.35829,0.30317 -0.60634,0.66146 -0.22048,0.35829 -0.60633,0.6339 0.49609,0.16537 0.96462,0.1378 0.4961,-0.0276 0.99219,-0.11024 0.52365,-0.0827 1.04731,-0.16536 0.55121,-0.0827 1.12999,-0.0551 0.79926,-0.27561 1.76389,-0.46854 0.96463,-0.22048 1.92925,-0.16536 0.82683,-0.33073 1.57097,-0.46854 0.7717,-0.16536 1.46072,-0.0827 0.35829,0.13781 0.52365,0.4961 0.19293,0.35829 0.57878,0.49609 -0.0827,0.30317 -0.0551,0.44097 0.0551,0.13781 0.0551,0.4961 z"
       style="font-style:normal;font-variant:normal;font-weight:normal;font-stretch:normal;font-size:28.22222137px;font-family:'permanent marker';-inkscape-font-specification:'permanent marker';fill:none;stroke:#ff00bf;stroke-width:1.58749998;stroke-miterlimit:4;stroke-dasharray:none;stroke-opacity:1"
       id="path1247" />
    <path
       d="m 188.61198,175.48083 q -1.07487,0.16537 -1.98437,-0.11024 -0.90951,-0.27561 -1.62609,-0.88195 -0.68902,-0.60633 -1.21267,-1.43316 -0.52366,-0.82682 -0.85439,-1.76388 -0.22048,-1.95682 0.13781,-3.55534 0.35829,-1.59853 1.01975,-2.949 0.68901,-1.35048 1.5434,-2.50803 0.85438,-1.18512 1.65364,-2.25999 0.16537,0.0827 0.27561,0 0.11024,-0.11024 0.19293,-0.24804 0.11024,-0.13781 0.19292,-0.27561 0.11025,-0.1378 0.27561,-0.19293 0.11024,-0.24804 0.27561,-0.41341 0.16536,-0.19292 0.33073,-0.35829 0.19292,-0.16536 0.35829,-0.33073 0.16536,-0.16536 0.2756,-0.41341 0.24805,-0.0551 0.44098,-0.19292 0.19292,-0.16537 0.35829,-0.33073 0.16536,-0.16537 0.33073,-0.30317 0.19292,-0.16537 0.44097,-0.24805 v -0.35829 q 0.55121,-0.30317 0.79926,-0.6339 0.24805,-0.35829 0.60634,-0.88194 0.2756,-0.0551 0.44097,-0.0276 0.16536,0 0.46853,-0.0551 0.24805,-0.46854 0.44097,-0.71658 0.19293,-0.24805 0.57878,-0.55122 0.35829,0.22049 0.79926,0.30317 0.44097,0.0551 0.74414,0.41341 0.0276,0.35829 0.16537,0.55122 0.16536,0.19292 0.35829,0.35829 0.19292,0.1378 0.35829,0.33073 0.16536,0.16536 0.22048,0.46853 0.11025,0 0.13781,-0.0551 0.0551,-0.0551 0.16536,-0.0276 0.0551,0.24804 0.11024,0.38585 0.0551,0.1378 0.11025,0.27561 0.0551,0.11024 0.11024,0.24804 0.0827,0.11025 0.1378,0.33073 -0.1378,0.33073 -0.24804,0.71658 -0.0827,0.38585 -0.38585,0.52366 0,0.22048 0.1378,0.24804 0.16537,0.0276 0.19293,0.22049 0,0.27561 -0.0827,0.44097 0.71658,1.35048 1.2678,2.83876 0.57878,1.46072 1.29536,2.78364 -0.0551,0.41341 0.0276,0.79926 0.11024,0.38585 0.22048,0.7717 0.13781,0.35829 0.24805,0.71658 0.1378,0.35829 0.19292,0.74414 0.0551,0.49609 0,1.07487 -0.0276,0.55122 -0.19292,1.07487 -0.13781,0.52365 -0.38585,0.96463 -0.24805,0.44097 -0.57878,0.66146 -0.0551,-0.0276 -0.30317,0.16536 -0.24804,0.16536 -0.57877,0.44097 -0.30317,0.27561 -0.6339,0.60634 -0.33073,0.33073 -0.57878,0.57878 -0.33073,0.22048 -0.74414,0.33072 -0.38585,0.0827 -0.79926,0.19293 -0.33073,0.22049 -0.79926,0.46853 -0.44097,0.22049 -0.93707,0.38585 -0.46853,0.16537 -0.93706,0.24805 -0.46854,0.11024 -0.82683,0.0551 -0.9095,0.38585 -1.76388,0.4961 -0.82683,0.1378 -1.98438,-0.13781 z m 0.60634,-10.41797 q -0.22049,0.66146 -0.52366,1.18512 -0.30317,0.52365 -0.60633,1.07487 -0.27561,0.55121 -0.4961,1.18511 -0.19292,0.60634 -0.22048,1.43316 0.44097,0.46853 1.04731,0.57877 0.63389,0.11025 1.26779,0.0276 0.66146,-0.0827 1.29536,-0.22048 0.63389,-0.1378 1.15755,-0.16537 0,-0.24804 0.19292,-0.22048 0.90951,-0.11024 1.70877,-0.66146 0.82682,-0.57878 1.70877,-1.15755 0.11024,-0.35829 0.27561,-0.60634 0.19292,-0.24805 0.19292,-0.71658 -0.11024,-0.30317 -0.1378,-0.44097 -0.0276,-0.16537 -0.0276,-0.52366 -0.57878,-1.0473 -1.01975,-2.25998 -0.41341,-1.24023 -0.96463,-2.28754 -0.0551,0.1378 -0.19292,0.27561 -0.13781,0.1378 -0.30317,-0.0551 -0.13781,0.55122 -0.4961,0.4961 -0.33072,-0.0551 -0.63389,-0.33073 -0.7717,0.79926 -1.54341,1.57096 -0.7717,0.74414 -1.37803,1.73633 -0.11025,0.0827 -0.13781,0.0551 -0.0276,-0.0551 -0.16536,0.0276 z"
       style="font-style:normal;font-variant:normal;font-weight:normal;font-stretch:normal;font-size:28.22222137px;font-family:'permanent marker';-inkscape-font-specification:'permanent marker';fill:none;stroke:#ff00bf;stroke-width:1.58749998;stroke-miterlimit:4;stroke-dasharray:none;stroke-opacity:1"
       id="path1249" />
    <path
       d="m 206.77452,155.05831 q 0.30317,0.60633 0.77171,0.99218 0.49609,0.35829 0.96462,0.74414 0.57878,1.07487 0.71658,2.39779 0.13781,1.32292 0.30317,2.89388 0,1.2678 -0.16536,2.39779 -0.16537,1.10243 -0.44098,2.1773 -0.24804,1.04731 -0.57877,2.09462 -0.33073,1.0473 -0.6339,2.20486 -0.38585,0.41341 -0.60634,1.18511 -0.19292,0.74414 -0.0276,1.46072 -0.35829,0.44097 -0.71658,0.85438 -0.35829,0.41341 -0.79926,0.7717 -0.16536,-0.16536 -0.44097,-0.19292 -0.24805,0 -0.52366,0 -0.2756,0.0276 -0.52365,0.0551 -0.22049,0.0551 -0.33073,0.0276 -0.1378,-0.22048 -0.38585,-0.46853 -0.22049,-0.24805 -0.41341,-0.52366 -0.16537,-0.2756 -0.27561,-0.52365 -0.0827,-0.27561 0.0551,-0.52365 0,-0.30317 -0.33073,-0.30317 0.0827,-1.2678 0.41342,-2.48047 0.33072,-1.24024 0.74414,-2.39779 0.41341,-1.18511 0.79926,-2.34266 0.41341,-1.15756 0.60633,-2.28755 0.22049,-1.12999 0.11025,-2.25998 -0.0827,-1.12999 -0.6339,-2.28754 0,-0.38585 -0.0276,-0.6339 0,-0.27561 -0.0276,-0.46853 0,-0.22049 -0.0276,-0.41341 -0.0276,-0.19293 -0.11025,-0.41342 0.13781,-0.38585 0.19293,-0.71658 0.0827,-0.33072 0,-0.60633 0.0276,-0.19293 0.11024,-0.30317 0.0827,-0.1378 0.19293,-0.24805 0.11024,-0.1378 0.19292,-0.24804 0.11025,-0.13781 0.13781,-0.33073 h 0.60633 q 0.30317,0.24804 0.52366,0.46853 0.22049,0.19292 0.57877,0.24805 z"
       style="font-style:normal;font-variant:normal;font-weight:normal;font-stretch:normal;font-size:28.22222137px;font-family:'permanent marker';-inkscape-font-specification:'permanent marker';fill:none;stroke:#ff00bf;stroke-width:1.58749998;stroke-miterlimit:4;stroke-dasharray:none;stroke-opacity:1"
       id="path1251" />
    <path
       d="m 225.37804,154.81026 q 0.60633,0.44097 0.96462,1.07487 0.38585,0.60634 0.60634,1.32292 0.22048,0.68901 0.33073,1.46072 0.1378,0.74414 0.22048,1.43316 -0.2756,0.96462 -0.93706,1.84657 -0.66146,0.88194 -1.57097,1.4056 -0.82682,0.63389 -1.48828,1.15755 -0.63389,0.49609 -1.51584,0.66146 -0.22048,0.22048 -0.44097,0.41341 -0.19293,0.16536 -0.35829,0.44097 0.46853,1.26779 0.96463,2.50803 0.49609,1.24023 0.66145,2.72851 -0.33072,0.19293 -0.35829,0.57878 -0.0276,0.38585 -0.0276,0.82682 -0.33073,0.38585 -0.49609,0.82683 -0.16536,0.41341 -0.52365,0.71658 -0.0827,0.0551 -0.19293,0.0276 -0.0827,-0.0551 -0.16536,0 -0.35829,0.19292 -0.74415,0.49609 -0.35829,0.30317 -0.74414,0.41341 -0.71658,0.19293 -1.46072,0.16537 -0.71658,-0.0276 -1.4056,-0.22049 -0.66145,-0.19292 -1.24023,-0.52365 -0.57878,-0.35829 -1.01975,-0.82683 -0.30317,-0.55121 -0.49609,-1.12999 -0.19293,-0.60633 -0.6339,-1.04731 -0.1378,-0.88194 -0.16536,-2.09461 0,-1.21268 0.38585,-2.39779 0.1378,-0.38585 0.35829,-0.68902 0.22048,-0.30317 0.19292,-0.68902 0.13781,-0.0276 0.19293,-0.11024 0.0827,-0.0827 0.22048,-0.13781 0.0827,-0.22048 -0.0276,-0.30316 -0.0827,-0.0827 -0.0276,-0.27561 -0.41341,-0.57878 -0.82682,-1.18512 -0.38585,-0.63389 -0.66146,-1.29535 -0.27561,-0.66146 -0.33073,-1.4056 -0.0551,-0.74414 0.24805,-1.59852 0,-0.41342 0.16536,-0.93707 0.19293,-0.52365 0.4961,-1.01975 0.30317,-0.49609 0.68902,-0.88194 0.38585,-0.41341 0.85438,-0.60634 0,-0.19292 0.0827,-0.22049 0.11025,-0.0551 0.11025,-0.24804 0.35829,-0.11025 0.66145,-0.27561 0.30317,-0.16536 0.60634,-0.30317 0.33073,-0.16536 0.68902,-0.27561 0.38585,-0.1378 0.88194,-0.16536 0.88195,-0.0551 1.79145,0.11024 0.93707,0.16537 1.57097,0.55122 0.2756,0.71658 0.66146,1.26779 0.41341,0.55122 0.60633,1.01975 0.0551,0.41341 0.11025,0.74414 0.0551,0.30317 0.0551,0.60634 0,0.30317 -0.0827,0.6339 -0.0827,0.30316 -0.30316,0.71658 0.55121,-0.13781 0.9095,-0.44098 0.38585,-0.30316 0.57878,-0.88194 0,-0.46853 -0.24805,-0.79926 -0.24805,-0.33073 -0.38585,-0.74414 0.16536,-0.0827 0.22049,-0.19293 0.0551,-0.1378 0.0276,-0.27561 -0.0276,-0.1378 -0.0827,-0.2756 -0.0276,-0.13781 -0.0276,-0.27561 0.16537,-0.0551 0.22049,0 0.0551,0.0551 0.1378,-0.0276 -0.0551,-0.22049 -0.0827,-0.22049 0,-0.0276 -0.0276,-0.19292 0.11024,-0.13781 0.27561,-0.27561 0.16536,-0.13781 0.30317,0.0276 -0.16537,-0.27561 -0.0276,-0.52366 0.16536,-0.24804 0.41341,-0.38585 0.1378,0.0551 0.2756,0.11025 0.16537,0.0551 0.38586,0.0827 z m -6.53191,15.70963 q 0,-0.19292 0.0827,-0.2756 0.0827,-0.11025 0.1378,-0.24805 -0.33073,-0.68902 -0.66146,-1.15755 -0.30317,-0.4961 -1.01975,-0.93707 -0.38585,0.24805 -0.57877,0.60634 -0.19293,0.35829 -0.22049,0.74414 -0.0276,0.35829 0.11024,0.71658 0.16537,0.35829 0.46854,0.6339 0.27561,-0.0827 0.7717,0.0276 0.49609,0.0827 0.9095,-0.11025 z m -0.68901,-7.99262 q 0.41341,-0.22048 0.85438,-0.38585 0.44097,-0.16536 0.88194,-0.33073 0.44098,-0.16536 0.85439,-0.35829 0.41341,-0.22048 0.71658,-0.55121 -1.04731,0 -1.73633,-0.35829 -0.66146,-0.35829 -0.6339,-1.2678 -0.38585,-0.19292 -0.82682,-0.16536 -0.44097,0 -0.79926,0.19292 -0.35829,0.16537 -0.52366,0.4961 -0.16536,0.30317 -0.0276,0.68902 -0.0551,0.1378 -0.19292,0.16536 -0.13781,0 -0.13781,0.19293 0.41341,0.38585 0.71658,0.85438 0.33073,0.46853 0.85439,0.82682 z"
       style="font-style:normal;font-variant:normal;font-weight:normal;font-stretch:normal;font-size:28.22222137px;font-family:'permanent marker';-inkscape-font-specification:'permanent marker';fill:none;stroke:#ff00bf;stroke-width:1.58749998;stroke-miterlimit:4;stroke-dasharray:none;stroke-opacity:1"
       id="path1253" />
  </g>
</svg>
