<?xml version="1.0" encoding="utf-8"?>
<!-- Generator: Adobe Illustrator 21.0.2, SVG Export Plug-In . SVG Version: 6.00 Build 0)  -->
<svg version="1.1"
	 id="svg8" inkscape:version="0.92.2 (5c3e80d, 2017-08-06)" sodipodi:docname="splash.svg" xmlns:cc="http://creativecommons.org/ns#" xmlns:dc="http://purl.org/dc/elements/1.1/" xmlns:inkscape="http://www.inkscape.org/namespaces/inkscape" xmlns:rdf="http://www.w3.org/1999/02/22-rdf-syntax-ns#" xmlns:sodipodi="http://sodipodi.sourceforge.net/DTD/sodipodi-0.dtd" xmlns:svg="http://www.w3.org/2000/svg"
	 xmlns="http://www.w3.org/2000/svg" xmlns:xlink="http://www.w3.org/1999/xlink" x="0px" y="0px" viewBox="0 0 850.4 510.2"
	 style="enable-background:new 0 0 850.4 510.2;" xml:space="preserve">
<style type="text/css">
	.st0{fill:none;stroke:#004C92;stroke-width:0.7577;stroke-linecap:round;stroke-linejoin:round;}
	.st1{fill:none;stroke:url(#path8240_1_);stroke-width:0.7937;}
	.st2{fill:none;stroke:url(#path8242_1_);stroke-width:0.7937;}
	.st3{fill:none;stroke:url(#path8244_1_);stroke-width:0.7937;}
	.st4{fill:none;stroke:url(#path8246_1_);stroke-width:0.7937;}
	.st5{fill:none;stroke:url(#path8250_1_);stroke-width:0.7937;}
	.st6{fill:none;stroke:url(#path8252_1_);stroke-width:0.7937;}
	.st7{fill:none;stroke:url(#path8254_1_);stroke-width:0.7937;}
	.st8{fill:none;stroke:url(#path8256_1_);stroke-width:0.7937;}
	.st9{fill:none;stroke:url(#path8258_1_);stroke-width:0.7937;}
	.st10{fill:none;stroke:url(#path8260_1_);stroke-width:0.7937;}
	.st11{fill:none;stroke:url(#path8262_1_);stroke-width:0.7937;}
	.st12{fill:none;stroke:url(#path8264_1_);stroke-width:0.7937;}
	.st13{fill:none;stroke:url(#path8266_1_);stroke-width:0.7937;}
	.st14{fill:none;stroke:url(#path8268_1_);stroke-width:0.7937;}
	.st15{fill:none;stroke:url(#path8270_1_);stroke-width:0.7937;}
	.st16{fill:none;stroke:url(#path8272_1_);stroke-width:0.7937;}
	.st17{fill:none;stroke:url(#path8274_1_);stroke-width:0.7937;}
	.st18{fill:none;stroke:url(#path8276_1_);stroke-width:0.7937;}
	.st19{fill:none;stroke:url(#path8278_1_);stroke-width:0.7937;}
	.st20{fill:none;stroke:url(#path8280_1_);stroke-width:0.7937;}
	.st21{fill:none;stroke:url(#path8282_1_);stroke-width:0.7937;}
	.st22{fill:none;stroke:url(#path8284_1_);stroke-width:0.7937;}
	.st23{fill:none;stroke:url(#path8286_1_);stroke-width:0.7937;}
	.st24{fill:none;stroke:url(#path8288_1_);stroke-width:0.7937;}
	.st25{fill:none;stroke:url(#path8290_1_);stroke-width:0.7937;}
	.st26{fill:none;stroke:url(#path8292_1_);stroke-width:0.7937;}
	.st27{fill:none;stroke:url(#path8294_1_);stroke-width:0.7937;}
	.st28{fill:none;stroke:url(#path8296_1_);stroke-width:0.7937;}
	.st29{fill:none;stroke:url(#path8298_1_);stroke-width:0.7937;}
	.st30{fill:none;stroke:url(#path8300_1_);stroke-width:0.7937;}
	.st31{fill:none;stroke:url(#path8302_1_);stroke-width:0.7937;}
	.st32{fill:none;stroke:url(#path8304_1_);stroke-width:0.7937;}
	.st33{fill:none;stroke:url(#path8306_1_);stroke-width:0.7937;}
	.st34{fill:#2C0041;}
	.st35{fill:#00F9FF;}
	.st36{fill:url(#path1215_1_);}
	.st37{fill:url(#path1217_1_);}
	.st38{fill:url(#path1219_1_);}
	.st39{fill:url(#path1221_1_);}
	.st40{fill:url(#path1223_1_);}
	.st41{fill:url(#path1225_1_);}
	.st42{fill:url(#path1227_1_);}
	.st43{fill:url(#path1229_1_);}
	.st44{fill:#00D0E0;}
	.st45{fill:none;stroke:#FF00BF;stroke-width:5;}
</style>
<sodipodi:namedview  bordercolor="#666666" borderopacity="1.0" id="base" inkscape:current-layer="svg8" inkscape:cx="557.10113" inkscape:cy="528.67651" inkscape:document-units="mm" inkscape:pagecheckerboard="true" inkscape:pageopacity="0" inkscape:pageshadow="2" inkscape:window-height="952" inkscape:window-maximized="1" inkscape:window-width="1920" inkscape:window-x="0" inkscape:window-y="27" inkscape:zoom="0.73516814" pagecolor="#000000" showgrid="false">
	</sodipodi:namedview>
<g id="layer1" transform="translate(0,-117)" inkscape:groupmode="layer" inkscape:label="Layer 1">
</g>
<path id="rect7792" inkscape:connector-curvature="0" sodipodi:nodetypes="ccccc" class="st0" d="M147.8,241.6h554.8l108,237.7H39.8
	L147.8,241.6z"/>
<g id="g8865" transform="matrix(1.0748349,0,0,0.84786284,-13.152222,8.765853)">
	<g id="g8248" transform="translate(96.699522,31.122591)" inkscape:label="MajorXGridlines">
		
			<linearGradient id="path8240_1_" gradientUnits="userSpaceOnUse" x1="-366.9617" y1="824.247" x2="-366.9617" y2="968.7869" gradientTransform="matrix(3.0468 0 0 -2.4034 1429.1798 2593.0244)">
			<stop  offset="0" style="stop-color:#004C92"/>
			<stop  offset="1" style="stop-color:#004C92;stop-opacity:0"/>
		</linearGradient>
		<path id="path8240" inkscape:connector-curvature="0" inkscape:label="MajorXDiv1" class="st1" d="M584.5,286.2H37.7"/>
		
			<linearGradient id="path8242_1_" gradientUnits="userSpaceOnUse" x1="-366.9617" y1="824.247" x2="-366.9617" y2="968.7869" gradientTransform="matrix(3.0468 0 0 -2.4034 1429.1798 2593.0244)">
			<stop  offset="0" style="stop-color:#004C92"/>
			<stop  offset="1" style="stop-color:#004C92;stop-opacity:0"/>
		</linearGradient>
		<path id="path8242" inkscape:connector-curvature="0" inkscape:label="MajorXDiv2" class="st2" d="M601.8,334.4H20.5"/>
		
			<linearGradient id="path8244_1_" gradientUnits="userSpaceOnUse" x1="-366.9617" y1="824.247" x2="-366.9617" y2="968.7869" gradientTransform="matrix(3.0468 0 0 -2.4034 1429.1798 2593.0244)">
			<stop  offset="0" style="stop-color:#004C92"/>
			<stop  offset="1" style="stop-color:#004C92;stop-opacity:0"/>
		</linearGradient>
		<path id="path8244" inkscape:connector-curvature="0" inkscape:label="MajorXDiv3" class="st3" d="M621.4,389H0.9"/>
		
			<linearGradient id="path8246_1_" gradientUnits="userSpaceOnUse" x1="-366.9617" y1="824.247" x2="-366.9617" y2="968.7869" gradientTransform="matrix(3.0468 0 0 -2.4034 1429.1798 2593.0244)">
			<stop  offset="0" style="stop-color:#004C92"/>
			<stop  offset="1" style="stop-color:#004C92;stop-opacity:0"/>
		</linearGradient>
		<path id="path8246" inkscape:connector-curvature="0" inkscape:label="MajorXDiv4" class="st4" d="M643.8,451.5H-21.6"/>
	</g>
	<g id="g8308" transform="translate(96.699522,31.122591)" inkscape:label="MajorYGridlines">
		
			<linearGradient id="path8250_1_" gradientUnits="userSpaceOnUse" x1="-272.5061" y1="824.247" x2="-272.5061" y2="968.7869" gradientTransform="matrix(3.0468 0 0 -2.4034 1429.1798 2593.0244)">
			<stop  offset="0" style="stop-color:#004C92"/>
			<stop  offset="1" style="stop-color:#004C92;stop-opacity:0"/>
		</linearGradient>
		<path id="path8250" inkscape:connector-curvature="0" inkscape:label="MajorYDiv1" class="st5" d="M552,243.5l93.8,280.3"/>
		
			<linearGradient id="path8252_1_" gradientUnits="userSpaceOnUse" x1="-279.2529" y1="824.247" x2="-279.2529" y2="968.7869" gradientTransform="matrix(3.0468 0 0 -2.4034 1429.1798 2593.0244)">
			<stop  offset="0" style="stop-color:#004C92"/>
			<stop  offset="1" style="stop-color:#004C92;stop-opacity:0"/>
		</linearGradient>
		<path id="path8252" inkscape:connector-curvature="0" inkscape:label="MajorYDiv2" class="st6" d="M534.8,243.5l87.1,280.3"/>
		
			<linearGradient id="path8254_1_" gradientUnits="userSpaceOnUse" x1="-285.9997" y1="824.247" x2="-285.9997" y2="968.7869" gradientTransform="matrix(3.0468 0 0 -2.4034 1429.1798 2593.0244)">
			<stop  offset="0" style="stop-color:#004C92"/>
			<stop  offset="1" style="stop-color:#004C92;stop-opacity:0"/>
		</linearGradient>
		<path id="path8254" inkscape:connector-curvature="0" inkscape:label="MajorYDiv3" class="st7" d="M517.6,243.5L598,523.8"/>
		
			<linearGradient id="path8256_1_" gradientUnits="userSpaceOnUse" x1="-292.7466" y1="824.247" x2="-292.7466" y2="968.7869" gradientTransform="matrix(3.0468 0 0 -2.4034 1429.1798 2593.0244)">
			<stop  offset="0" style="stop-color:#004C92"/>
			<stop  offset="1" style="stop-color:#004C92;stop-opacity:0"/>
		</linearGradient>
		<path id="path8256" inkscape:connector-curvature="0" inkscape:label="MajorYDiv4" class="st8" d="M500.4,243.5l73.7,280.3"/>
		
			<linearGradient id="path8258_1_" gradientUnits="userSpaceOnUse" x1="-299.4934" y1="824.247" x2="-299.4934" y2="968.7869" gradientTransform="matrix(3.0468 0 0 -2.4034 1429.1798 2593.0244)">
			<stop  offset="0" style="stop-color:#004C92"/>
			<stop  offset="1" style="stop-color:#004C92;stop-opacity:0"/>
		</linearGradient>
		<path id="path8258" inkscape:connector-curvature="0" inkscape:label="MajorYDiv5" class="st9" d="M483.2,243.5l67,280.3"/>
		
			<linearGradient id="path8260_1_" gradientUnits="userSpaceOnUse" x1="-306.2402" y1="824.247" x2="-306.2402" y2="968.7869" gradientTransform="matrix(3.0468 0 0 -2.4034 1429.1798 2593.0244)">
			<stop  offset="0" style="stop-color:#004C92"/>
			<stop  offset="1" style="stop-color:#004C92;stop-opacity:0"/>
		</linearGradient>
		<path id="path8260" inkscape:connector-curvature="0" inkscape:label="MajorYDiv6" class="st10" d="M466,243.5l60.3,280.3"/>
		
			<linearGradient id="path8262_1_" gradientUnits="userSpaceOnUse" x1="-312.9871" y1="824.247" x2="-312.9871" y2="968.7869" gradientTransform="matrix(3.0468 0 0 -2.4034 1429.1798 2593.0244)">
			<stop  offset="0" style="stop-color:#004C92"/>
			<stop  offset="1" style="stop-color:#004C92;stop-opacity:0"/>
		</linearGradient>
		<path id="path8262" inkscape:connector-curvature="0" inkscape:label="MajorYDiv7" class="st11" d="M448.8,243.5l53.6,280.3"/>
		
			<linearGradient id="path8264_1_" gradientUnits="userSpaceOnUse" x1="-319.7339" y1="824.247" x2="-319.7339" y2="968.7869" gradientTransform="matrix(3.0468 0 0 -2.4034 1429.1798 2593.0244)">
			<stop  offset="0" style="stop-color:#004C92"/>
			<stop  offset="1" style="stop-color:#004C92;stop-opacity:0"/>
		</linearGradient>
		<path id="path8264" inkscape:connector-curvature="0" inkscape:label="MajorYDiv8" class="st12" d="M431.6,243.5l46.9,280.3"/>
		
			<linearGradient id="path8266_1_" gradientUnits="userSpaceOnUse" x1="-326.4807" y1="824.247" x2="-326.4807" y2="968.7869" gradientTransform="matrix(3.0468 0 0 -2.4034 1429.1798 2593.0244)">
			<stop  offset="0" style="stop-color:#004C92"/>
			<stop  offset="1" style="stop-color:#004C92;stop-opacity:0"/>
		</linearGradient>
		<path id="path8266" inkscape:connector-curvature="0" inkscape:label="MajorYDiv9" class="st13" d="M414.4,243.5l40.2,280.3"/>
		
			<linearGradient id="path8268_1_" gradientUnits="userSpaceOnUse" x1="-333.2275" y1="824.247" x2="-333.2275" y2="968.7869" gradientTransform="matrix(3.0468 0 0 -2.4034 1429.1798 2593.0244)">
			<stop  offset="0" style="stop-color:#004C92"/>
			<stop  offset="1" style="stop-color:#004C92;stop-opacity:0"/>
		</linearGradient>
		<path id="path8268" inkscape:connector-curvature="0" inkscape:label="MajorYDiv10" class="st14" d="M397.2,243.5l33.5,280.3"/>
		
			<linearGradient id="path8270_1_" gradientUnits="userSpaceOnUse" x1="-339.9744" y1="824.247" x2="-339.9744" y2="968.7869" gradientTransform="matrix(3.0468 0 0 -2.4034 1429.1798 2593.0244)">
			<stop  offset="0" style="stop-color:#004C92"/>
			<stop  offset="1" style="stop-color:#004C92;stop-opacity:0"/>
		</linearGradient>
		<path id="path8270" inkscape:connector-curvature="0" inkscape:label="MajorYDiv11" class="st15" d="M380,243.5l26.8,280.3"/>
		
			<linearGradient id="path8272_1_" gradientUnits="userSpaceOnUse" x1="-346.7212" y1="824.247" x2="-346.7212" y2="968.7869" gradientTransform="matrix(3.0468 0 0 -2.4034 1429.1798 2593.0244)">
			<stop  offset="0" style="stop-color:#004C92"/>
			<stop  offset="1" style="stop-color:#004C92;stop-opacity:0"/>
		</linearGradient>
		<path id="path8272" inkscape:connector-curvature="0" inkscape:label="MajorYDiv12" class="st16" d="M362.7,243.5l20.1,280.3"/>
		
			<linearGradient id="path8274_1_" gradientUnits="userSpaceOnUse" x1="-353.468" y1="824.247" x2="-353.468" y2="968.7869" gradientTransform="matrix(3.0468 0 0 -2.4034 1429.1798 2593.0244)">
			<stop  offset="0" style="stop-color:#004C92"/>
			<stop  offset="1" style="stop-color:#004C92;stop-opacity:0"/>
		</linearGradient>
		<path id="path8274" inkscape:connector-curvature="0" inkscape:label="MajorYDiv13" class="st17" d="M345.5,243.5l13.4,280.3"/>
		
			<linearGradient id="path8276_1_" gradientUnits="userSpaceOnUse" x1="-360.2149" y1="824.247" x2="-360.2149" y2="968.7869" gradientTransform="matrix(3.0468 0 0 -2.4034 1429.1798 2593.0244)">
			<stop  offset="0" style="stop-color:#004C92"/>
			<stop  offset="1" style="stop-color:#004C92;stop-opacity:0"/>
		</linearGradient>
		<path id="path8276" inkscape:connector-curvature="0" inkscape:label="MajorYDiv14" class="st18" d="M328.3,243.5l6.7,280.3"/>
		
			<linearGradient id="path8278_1_" gradientUnits="userSpaceOnUse" x1="-366.9617" y1="824.247" x2="-366.9617" y2="968.7869" gradientTransform="matrix(3.0468 0 0 -2.4034 1429.1798 2593.0244)">
			<stop  offset="0" style="stop-color:#004C92"/>
			<stop  offset="1" style="stop-color:#004C92;stop-opacity:0"/>
		</linearGradient>
		<path id="path8278" inkscape:connector-curvature="0" inkscape:label="MajorYDiv15" class="st19" d="M311.1,243.5v280.3"/>
		
			<linearGradient id="path8280_1_" gradientUnits="userSpaceOnUse" x1="-373.7085" y1="824.247" x2="-373.7085" y2="968.7869" gradientTransform="matrix(3.0468 0 0 -2.4034 1429.1798 2593.0244)">
			<stop  offset="0" style="stop-color:#004C92"/>
			<stop  offset="1" style="stop-color:#004C92;stop-opacity:0"/>
		</linearGradient>
		<path id="path8280" inkscape:connector-curvature="0" inkscape:label="MajorYDiv16" class="st20" d="M293.9,243.5l-6.7,280.3"/>
		
			<linearGradient id="path8282_1_" gradientUnits="userSpaceOnUse" x1="-380.4554" y1="824.247" x2="-380.4554" y2="968.7869" gradientTransform="matrix(3.0468 0 0 -2.4034 1429.1798 2593.0244)">
			<stop  offset="0" style="stop-color:#004C92"/>
			<stop  offset="1" style="stop-color:#004C92;stop-opacity:0"/>
		</linearGradient>
		<path id="path8282" inkscape:connector-curvature="0" inkscape:label="MajorYDiv17" class="st21" d="M276.7,243.5l-13.4,280.3"/>
		
			<linearGradient id="path8284_1_" gradientUnits="userSpaceOnUse" x1="-387.2022" y1="824.247" x2="-387.2022" y2="968.7869" gradientTransform="matrix(3.0468 0 0 -2.4034 1429.1798 2593.0244)">
			<stop  offset="0" style="stop-color:#004C92"/>
			<stop  offset="1" style="stop-color:#004C92;stop-opacity:0"/>
		</linearGradient>
		<path id="path8284" inkscape:connector-curvature="0" inkscape:label="MajorYDiv18" class="st22" d="M259.5,243.5l-20.1,280.3"/>
		
			<linearGradient id="path8286_1_" gradientUnits="userSpaceOnUse" x1="-393.949" y1="824.247" x2="-393.949" y2="968.7869" gradientTransform="matrix(3.0468 0 0 -2.4034 1429.1798 2593.0244)">
			<stop  offset="0" style="stop-color:#004C92"/>
			<stop  offset="1" style="stop-color:#004C92;stop-opacity:0"/>
		</linearGradient>
		<path id="path8286" inkscape:connector-curvature="0" inkscape:label="MajorYDiv19" class="st23" d="M242.3,243.5l-26.8,280.3"/>
		
			<linearGradient id="path8288_1_" gradientUnits="userSpaceOnUse" x1="-400.6959" y1="824.247" x2="-400.6959" y2="968.7869" gradientTransform="matrix(3.0468 0 0 -2.4034 1429.1798 2593.0244)">
			<stop  offset="0" style="stop-color:#004C92"/>
			<stop  offset="1" style="stop-color:#004C92;stop-opacity:0"/>
		</linearGradient>
		<path id="path8288" inkscape:connector-curvature="0" inkscape:label="MajorYDiv20" class="st24" d="M225.1,243.5l-33.5,280.3"/>
		
			<linearGradient id="path8290_1_" gradientUnits="userSpaceOnUse" x1="-407.4427" y1="824.247" x2="-407.4427" y2="968.7869" gradientTransform="matrix(3.0468 0 0 -2.4034 1429.1798 2593.0244)">
			<stop  offset="0" style="stop-color:#004C92"/>
			<stop  offset="1" style="stop-color:#004C92;stop-opacity:0"/>
		</linearGradient>
		<path id="path8290" inkscape:connector-curvature="0" inkscape:label="MajorYDiv21" class="st25" d="M207.9,243.5l-40.2,280.3"/>
		
			<linearGradient id="path8292_1_" gradientUnits="userSpaceOnUse" x1="-414.1895" y1="824.247" x2="-414.1895" y2="968.7869" gradientTransform="matrix(3.0468 0 0 -2.4034 1429.1798 2593.0244)">
			<stop  offset="0" style="stop-color:#004C92"/>
			<stop  offset="1" style="stop-color:#004C92;stop-opacity:0"/>
		</linearGradient>
		<path id="path8292" inkscape:connector-curvature="0" inkscape:label="MajorYDiv22" class="st26" d="M190.7,243.5l-46.9,280.3"/>
		
			<linearGradient id="path8294_1_" gradientUnits="userSpaceOnUse" x1="-420.9363" y1="824.247" x2="-420.9363" y2="968.7869" gradientTransform="matrix(3.0468 0 0 -2.4034 1429.1798 2593.0244)">
			<stop  offset="0" style="stop-color:#004C92"/>
			<stop  offset="1" style="stop-color:#004C92;stop-opacity:0"/>
		</linearGradient>
		<path id="path8294" inkscape:connector-curvature="0" inkscape:label="MajorYDiv23" class="st27" d="M173.5,243.5l-53.6,280.3"/>
		
			<linearGradient id="path8296_1_" gradientUnits="userSpaceOnUse" x1="-427.6832" y1="824.247" x2="-427.6832" y2="968.7869" gradientTransform="matrix(3.0468 0 0 -2.4034 1429.1798 2593.0244)">
			<stop  offset="0" style="stop-color:#004C92"/>
			<stop  offset="1" style="stop-color:#004C92;stop-opacity:0"/>
		</linearGradient>
		<path id="path8296" inkscape:connector-curvature="0" inkscape:label="MajorYDiv24" class="st28" d="M156.3,243.5L96,523.8"/>
		
			<linearGradient id="path8298_1_" gradientUnits="userSpaceOnUse" x1="-434.43" y1="824.247" x2="-434.43" y2="968.7869" gradientTransform="matrix(3.0468 0 0 -2.4034 1429.1798 2593.0244)">
			<stop  offset="0" style="stop-color:#004C92"/>
			<stop  offset="1" style="stop-color:#004C92;stop-opacity:0"/>
		</linearGradient>
		<path id="path8298" inkscape:connector-curvature="0" inkscape:label="MajorYDiv25" class="st29" d="M139.1,243.5l-67,280.3"/>
		
			<linearGradient id="path8300_1_" gradientUnits="userSpaceOnUse" x1="-441.1768" y1="824.247" x2="-441.1768" y2="968.7869" gradientTransform="matrix(3.0468 0 0 -2.4034 1429.1798 2593.0244)">
			<stop  offset="0" style="stop-color:#004C92"/>
			<stop  offset="1" style="stop-color:#004C92;stop-opacity:0"/>
		</linearGradient>
		<path id="path8300" inkscape:connector-curvature="0" inkscape:label="MajorYDiv26" class="st30" d="M121.9,243.5L48.2,523.8"/>
		
			<linearGradient id="path8302_1_" gradientUnits="userSpaceOnUse" x1="-447.9237" y1="824.247" x2="-447.9237" y2="968.7869" gradientTransform="matrix(3.0468 0 0 -2.4034 1429.1798 2593.0244)">
			<stop  offset="0" style="stop-color:#004C92"/>
			<stop  offset="1" style="stop-color:#004C92;stop-opacity:0"/>
		</linearGradient>
		<path id="path8302" inkscape:connector-curvature="0" inkscape:label="MajorYDiv27" class="st31" d="M104.7,243.5L24.3,523.8"/>
		
			<linearGradient id="path8304_1_" gradientUnits="userSpaceOnUse" x1="-454.6705" y1="824.247" x2="-454.6705" y2="968.7869" gradientTransform="matrix(3.0468 0 0 -2.4034 1429.1798 2593.0244)">
			<stop  offset="0" style="stop-color:#004C92"/>
			<stop  offset="1" style="stop-color:#004C92;stop-opacity:0"/>
		</linearGradient>
		<path id="path8304" inkscape:connector-curvature="0" inkscape:label="MajorYDiv28" class="st32" d="M87.5,243.5L0.4,523.8"/>
		
			<linearGradient id="path8306_1_" gradientUnits="userSpaceOnUse" x1="-461.4173" y1="824.247" x2="-461.4173" y2="968.7869" gradientTransform="matrix(3.0468 0 0 -2.4034 1429.1798 2593.0244)">
			<stop  offset="0" style="stop-color:#004C92"/>
			<stop  offset="1" style="stop-color:#004C92;stop-opacity:0"/>
		</linearGradient>
		<path id="path8306" inkscape:connector-curvature="0" inkscape:label="MajorYDiv29" class="st33" d="M70.2,243.5l-93.8,280.3"/>
	</g>
</g>
<path id="path9279" inkscape:connector-curvature="0" sodipodi:nodetypes="cccc" class="st34" d="M147.8,241.6L535.4,25l209.3,364.8
	L147.8,241.6z"/>
<g id="text9261_1_">
	<image style="overflow:visible;" width="405" height="205" xlink:href="D75A3A91.png"  transform="matrix(1 0 0 1 267 90.2362)">
	</image>
	<g>
		<g>
			<path class="st35" d="M370.1,271.1c-10.6,0-20.9-2.1-30.5-6.3c-9.6-4.1-18-9.7-25-16.6c-7-7-12.6-15.4-16.7-25
				c-4.1-9.7-6.2-20-6.2-30.5c0-10.6,2.1-20.8,6.2-30.4c4.2-9.6,9.8-18,16.7-25c7-7,15.4-12.6,25-16.7c9.7-4.2,19.9-6.3,30.5-6.3
				c13.2,0,25.6,3.1,37,9.3c11.3,6.1,20.7,14.6,27.9,25.1l2.7,3.9l-9.9,6.4l0.2,0.3l-9.9,6.4l0.1,0.1l-9.9,6.5l0.2,0.2l-12.6,8.3
				l-2.6-3.8c-2.5-3.8-5.8-6.6-9.9-8.8c-4.1-2.2-8.4-3.3-13.1-3.3c-7.7,0-14.2,2.7-19.7,8.1s-8.1,11.9-8.1,19.7
				c0,7.7,2.7,14.2,8.1,19.7c5.5,5.5,11.9,8.1,19.7,8.1c4.8,0,9.1-1.1,13.1-3.3c4.1-2.2,7.4-5.2,9.9-8.9l2.7-4l9.6,6.9l0.1-0.2
				l9.7,6.7l0.1-0.2l9.5,7l0.3-0.4l12.2,9.3l-2.5,3.7c-7.2,10.4-16.5,18.8-27.9,24.9C395.6,268,383.2,271.1,370.1,271.1z"/>
			<polygon class="st35" points="458.7,265.2 458.7,159 435,159 435,120.2 532.9,120.2 532.9,159 509.3,159 509.3,265.2 			"/>
			<polygon class="st35" points="537,265.2 537,120.2 647.1,120.2 647.1,159 587.7,159 587.7,179.2 644.3,179.2 644.3,218 
				587.7,218 587.7,265.2 			"/>
			<path id="path1232_13_" inkscape:connector-curvature="0" class="st35" d="M401.8,171.2l-4.8,3.2c-3-4.4-6.8-7.8-11.6-10.3
				c-4.7-2.6-9.8-3.9-15.3-3.9c-9,0-16.6,3.2-23,9.5c-6.3,6.3-9.5,14-9.5,23s3.2,16.6,9.5,23c6.3,6.3,14,9.5,23,9.5
				c5.5,0,10.6-1.3,15.3-3.9c4.8-2.6,8.6-6,11.6-10.4l4.8,3.4c-3.5,5.1-8,9.2-13.6,12.2s-11.6,4.5-18,4.5c-5.2,0-10.2-1-14.9-3
				c-4.7-2-8.8-4.8-12.2-8.2c-3.4-3.4-6.2-7.5-8.2-12.2c-2-4.8-3-9.7-3-14.9s1-10.1,3-14.8c2-4.8,4.8-8.9,8.2-12.3
				c3.4-3.4,7.5-6.2,12.2-8.2c4.8-2,9.7-3,14.9-3c6.5,0,12.5,1.5,18.1,4.6C393.8,161.9,398.3,166,401.8,171.2z M411.6,164.5
				l-4.9,3.2c-4-5.9-9.3-10.6-15.7-14c-6.4-3.5-13.3-5.2-20.8-5.2c-8,0-15.4,2-22.2,6c-6.8,3.9-12.2,9.3-16.1,16.1
				c-3.9,6.8-5.9,14.2-5.9,22.2s2,15.4,5.9,22.2c4,6.8,9.4,12.2,16.1,16.1c6.8,3.9,14.2,5.9,22.2,5.9c7.5,0,14.5-1.7,20.9-5.2
				c6.4-3.5,11.7-8.2,15.7-14.2l4.8,3.4C407,227.7,401,233,393.7,237c-7.3,3.9-15.1,5.9-23.6,5.9c-9.1,0-17.5-2.2-25.2-6.7
				c-7.7-4.5-13.8-10.6-18.3-18.3c-4.5-7.7-6.7-16.1-6.7-25.2s2.2-17.5,6.7-25.2c4.5-7.7,10.6-13.8,18.3-18.3
				c7.7-4.5,16.1-6.7,25.2-6.7c8.5,0,16.3,2,23.6,5.9C401,152.4,407,157.7,411.6,164.5z M421.4,157.9l-4.9,3.2
				c-5.1-7.5-11.8-13.5-20-17.9c-8.1-4.4-16.9-6.6-26.4-6.6c-7.6,0-14.9,1.5-21.8,4.4s-12.9,6.9-18,12c-5,5-8.9,10.9-11.9,17.9
				c-3,6.9-4.4,14.2-4.4,21.8c0,7.6,1.5,14.9,4.4,21.8c3,6.9,6.9,12.9,11.9,18c5,5,11,8.9,18,11.9s14.2,4.4,21.8,4.4
				c9.5,0,18.3-2.2,26.5-6.6c8.1-4.4,14.8-10.4,19.9-18l4.8,3.5c-5.7,8.3-13,14.9-22.1,19.8c-9,4.8-18.7,7.2-29.1,7.2
				c-11.2,0-21.6-2.8-31.1-8.3c-9.5-5.6-17.1-13.1-22.6-22.6c-5.5-9.5-8.3-19.9-8.3-31.1c0-11.2,2.8-21.6,8.3-31.1
				c5.6-9.5,13.1-17,22.6-22.5c9.5-5.6,19.9-8.4,31.1-8.4c10.5,0,20.2,2.5,29.3,7.4C408.4,143,415.7,149.6,421.4,157.9L421.4,157.9z
				 M431.1,151.2l-4.9,3.2c-6.2-9.1-14.3-16.3-24.2-21.6c-9.8-5.3-20.5-8-31.9-8c-9.2,0-18,1.8-26.4,5.4
				c-8.4,3.6-15.6,8.4-21.6,14.4c-6.1,6.1-10.9,13.3-14.5,21.7c-3.6,8.4-5.3,17.1-5.3,26.3s1.8,18,5.3,26.4
				c3.6,8.4,8.4,15.6,14.5,21.6c6.1,6.1,13.3,10.9,21.6,14.5c8.4,3.6,17.2,5.3,26.4,5.3c11.4,0,22.1-2.7,32-8
				c9.9-5.4,18-12.6,24.2-21.7l4.8,3.6c-6.8,9.8-15.5,17.7-26.2,23.4c-10.7,5.7-22.3,8.6-34.7,8.6c-10,0-19.6-2-28.7-5.9
				c-9.1-3.9-16.9-9.1-23.5-15.7c-6.6-6.6-11.8-14.5-15.7-23.5c-3.9-9.1-5.8-18.7-5.8-28.7s1.9-19.5,5.8-28.6
				c3.9-9.1,9.2-17,15.7-23.5c6.6-6.6,14.5-11.9,23.5-15.7c9.1-3.9,18.7-5.9,28.7-5.9c12.5,0,24,2.9,34.8,8.7
				C415.6,133.4,424.3,141.3,431.1,151.2z"/>
			<path id="path1234_13_" inkscape:connector-curvature="0" class="st35" d="M439.7,130.7v-5.9h88.5v5.9H439.7z M439.7,142.5v-5.9
				h88.5v5.9H439.7z M439.7,154.3v-5.9h88.5v5.9h-23.6v106.2h-5.9V154.3h-5.9v106.2h-5.9V154.3H481v106.2h-5.9V154.3h-5.9v106.2
				h-5.9V154.3H439.7z"/>
			<path id="path1236_13_" inkscape:connector-curvature="0" class="st35" d="M583,260.6h-5.9V124.8h65.3v5.9H583v5.9h59.4v5.9H583
				v5.9h59.4v5.9H583v29.5h56.6v5.9H583v5.9h56.6v5.9H583v5.9h56.6v5.9H583V260.6z M571.2,260.6h-5.9V124.8h5.9V260.6z M559.4,260.6
				h-5.9V124.8h5.9V260.6z M547.6,260.6h-5.9V124.8h5.9V260.6z"/>
		</g>
	</g>
</g>
<g id="text9257">
	
		<radialGradient id="path1215_1_" cx="-222.4198" cy="251.1548" r="76.1294" gradientTransform="matrix(2.8346 0 0 -0.7676 979.7007 271.3365)" gradientUnits="userSpaceOnUse">
		<stop  offset="0" style="stop-color:#FF00BF"/>
		<stop  offset="1" style="stop-color:#9C00FF"/>
	</radialGradient>
	<path id="path1215" class="st36" d="M161.3,85l1-8c0-0.3-0.1-0.4-0.2-0.4c-0.1,0-0.3,0.2-0.6,0.5c-1.1,1.2-2.5,2.6-4.1,4.4
		c-1.7,1.7-4.5,4-8.6,6.9c-4,2.8-7.3,4.3-9.8,4.3c-0.4-0.1-0.9-0.3-1.5-0.5c-0.7-0.2-1.5-0.8-2.5-2c-1-1.2-1.5-2.8-1.5-5
		c0-2.2,1.7-5.5,5-9.9c3.3-4.5,7.2-8.9,11.7-13.1c4.6-4.3,9.7-8.1,15.3-11.3c5.7-3.2,10.6-4.7,14.8-4.7c1.6,0.1,2.8,1.2,3.8,3.4
		c0.8-0.8,1.6-1.2,2.2-1.2s1.5,0.5,2.4,1.5c0.5,0.1,1,0.4,1.5,0.9c0.5,0.4,0.7,1,0.7,1.9c0,0.8-0.6,1.8-1.8,2.7
		c-1.8,2.2-3.8,4.6-6.1,7.4c-2.3,2.8-4,4.8-5,6c-1,1.2-2,2.5-3.1,4c-1.8,2.6-2.8,4.7-3,6.3c8.5-4.1,21.9-12.9,40.1-26.4
		c0.7,0.6,1.1,1.3,1.1,2.1c0,0.8-0.3,1.5-1,2.1c-0.7,0.6-1.5,1.3-2.5,2.1c-0.9,0.8-2.8,2.5-5.6,4.9c-2.8,2.4-5.6,4.7-8.2,7
		c-2.6,2.2-5.6,4.6-9,7.4c-3.3,2.7-6.3,5-9,6.9c-6.4,4.6-10.4,6.9-12,6.9c-1.6,0-2.7-0.5-3.4-1.5C161.6,89.4,161.3,87.6,161.3,85
		L161.3,85z M148.5,79.7c1,0,4-2,9.1-6.1c5.2-4.1,10-8.2,14.6-12.3l7-6.1c0.3-0.3,0.5-0.5,0.5-0.6c0-0.2-0.1-0.3-0.4-0.3
		c-3.2,0-7.3,1.8-12.4,5.5c-5.1,3.6-9.5,7.4-13.3,11.5c-3.7,4-5.5,6.7-5.5,8.1C148.3,79.7,148.4,79.7,148.5,79.7L148.5,79.7z
		 M192.2,25c2.8,0,4.8,1.2,6,3.5c0.5,0.9,0.8,2,0.8,3.2c0,3.4-1,6.3-3.1,8.6c-2,2.2-5.5,3.4-10.5,3.4c-1.7,0-3.1-0.5-4.3-1.6
		c-1.2-1.2-1.8-2.5-1.8-4.1c0-1.6,0.1-3,0.4-4.1c0.3-1.2,0.9-2.5,1.6-3.9C183.1,26.7,186.8,25,192.2,25z M186.2,39
		c3.3,0,5.4-0.4,6.4-1.1c1.1-0.8,1.6-2.3,1.6-4.6c0-2.4-1.1-3.6-3.3-3.6c-3,0-4.9,0.5-5.6,1.4c-0.7,0.8-1,2.6-1,5.4
		C184.3,37.8,184.9,38.7,186.2,39z"/>
	
		<radialGradient id="path1217_1_" cx="-222.4198" cy="251.1548" r="76.1294" gradientTransform="matrix(2.8346 0 0 -0.7676 979.7007 271.3365)" gradientUnits="userSpaceOnUse">
		<stop  offset="0" style="stop-color:#FF00BF"/>
		<stop  offset="1" style="stop-color:#9C00FF"/>
	</radialGradient>
	<path id="path1217" class="st37" d="M216.7,48.9c0.7,0,1.8,0.3,3.3,1c1.6,0.7,2.4,1.4,2.4,2.3c0,0.6-0.2,1.2-0.6,1.8l-9.4,13
		c-1.1,1.3-1.6,2.1-1.6,2.3c0,0.2,0,0.3,0.1,0.2l0.6-0.4c9.7-6.7,17.6-12.7,23.9-17.7c1.2-0.8,2.1-1.3,2.9-1.3
		c0.8,0,1.4,0.1,1.6,0.2l3.5,1c0.8,0.4,1.3,1,1.3,1.6c0,0.7-0.2,1.2-0.5,1.6c-1.6,1.8-3.4,3.7-5.5,6c-2,2.2-3.5,3.8-4.5,5
		c-1,1.1-2.1,2.3-3.4,3.8c-1.3,1.4-2.2,2.5-2.8,3.3c-0.5,0.8-1.1,1.6-1.8,2.6c-0.7,0.9-1.1,1.7-1.4,2.4c-0.5,1.9-0.7,3.6-0.7,5
		c0,0.8,0.5,1.1,1.4,1.1c1,0,2.8-0.6,5.3-1.8c2.6-1.2,5.6-3,9.1-5.4c3.6-2.4,8.3-5.8,14.1-10.3c5.9-4.5,11.1-8.3,15.5-11.4
		c0.8,0.6,1.1,1.3,1.1,2.1s-0.4,1.6-1.1,2.3c-2.7,2.6-6,5.8-10.1,9.7c-4.1,3.8-10.3,9-18.8,15.5c-8.3,6.5-14.2,9.8-17.5,9.8
		c-6.4,0-9.6-3.4-9.6-10.3c0-2.6,1-5.3,3-8.1l5.4-7.4c0.5-0.8,0.7-1.2,0.7-1.3c0-0.2-0.2,0-0.7,0.4c-14.5,12.1-23.8,19.2-27.8,21.3
		c-0.7,0.4-1.5,0.6-2.5,0.6c-2.8,0-4.1-1.3-4.1-3.8c0-0.8,0.2-1.6,0.6-2.3c6.2-5.7,10.5-10.3,13-13.9c2-2,4.1-4.8,6.3-8.4
		c2.3-3.6,4.1-6.5,5.6-8.9C214.5,50,215.8,48.9,216.7,48.9L216.7,48.9z"/>
	
		<radialGradient id="path1219_1_" cx="-222.4198" cy="251.1548" r="76.1294" gradientTransform="matrix(2.8346 0 0 -0.7676 979.7007 271.3365)" gradientUnits="userSpaceOnUse">
		<stop  offset="0" style="stop-color:#FF00BF"/>
		<stop  offset="1" style="stop-color:#9C00FF"/>
	</radialGradient>
	<path id="path1219" class="st38" d="M296,53.7c1.2,0.9,1.9,1.8,1.9,2.6c0,0.8-0.4,1.5-1.1,2.1c-0.7,0.7-4.5,5.8-11.6,15.4
		c-7.1,9.5-11.9,16-14.4,19.6c-2.4,3.6-4.1,6.2-5.1,7.8c-1,1.7-3.1,4.6-6.3,8.8c-3.1,4.2-6.2,7.9-9.4,11.3c-3.2,3.4-7,6.7-11.4,9.7
		c-4.5,3.2-8.8,5.2-12.9,6c-1.8,0-3.5-0.4-5.3-1.1c-3.3-1.4-5-4-5-7.9c0-4.8,4.5-10.5,13.6-17.1c9-6.5,15.7-9.7,20.1-9.7
		c0.7,0,1,0.1,1,0.4c0,0.2-0.4,0.7-1.2,1.3c-7.2,4.9-13.7,10.2-19.5,15.9c-5.9,5.8-8.9,9.8-8.9,12.3c0,0.3,0.3,0.5,0.8,0.5
		c0.5,0,1.6-0.5,3.3-1.6c4-2.8,9.7-8,17-15.5c8.1-9,13-14.8,14.9-17.2c3.3-4.4,7.1-9,11.6-13.8l2.5-2.6c0.1-0.2,0.2-0.3,0.4-0.5
		c0.2-0.2,0.4-0.5,0.6-0.9c0.7-1.1,1-1.6,0.9-1.6c-0.3,0-0.8,0.4-1.6,1.3c-0.8,0.8-2,2-3.6,3.5c-1.5,1.4-4.1,3.4-7.8,5.9
		c-3.7,2.4-6.6,3.6-8.9,3.6c-2.3,0-4-0.8-5.3-2.3c-1.3-1.5-1.9-3.1-1.9-4.8c0-1.7,1.1-4.3,3.3-7.7c2.2-3.4,5-7.1,8.5-11.1
		c3.5-4,8-7.7,13.5-11.1c5.6-3.4,11.3-5.5,17.1-6.1c3.4,0.8,5.6,2,6.6,3.6c0.2-0.1,0.5-0.1,1-0.1S294.9,52.7,296,53.7L296,53.7z
		 M257.3,80.1c2.2-0.2,5.9-2.2,11.3-6c5.4-3.8,10.3-7.7,14.6-11.5c4.4-3.8,6.6-6,6.6-6.6c0-0.2-0.2-0.2-0.5-0.2
		c-4.3,0.9-9.2,3.2-14.5,6.9c-5.3,3.7-9.7,7.2-13,10.6c-3.3,3.4-5,5.6-5,6.5C256.8,80,256.9,80.1,257.3,80.1L257.3,80.1z"/>
	
		<radialGradient id="path1221_1_" cx="-222.4198" cy="251.1548" r="76.1294" gradientTransform="matrix(2.8346 0 0 -0.7676 979.7007 271.3365)" gradientUnits="userSpaceOnUse">
		<stop  offset="0" style="stop-color:#FF00BF"/>
		<stop  offset="1" style="stop-color:#9C00FF"/>
	</radialGradient>
	<path id="path1221" class="st39" d="M303.9,81.1c2.9,0,5.6-1.8,8-5.3c2.5-3.6,4.3-7.2,5.3-10.8c1-3.7,1.5-6.6,1.5-8.7
		c0-0.6-0.5-0.9-1.4-0.9c-0.8,0-1.8,0.5-3,1.4l-16.4,12.6c-1.2,0.7-2.5,1-4,1s-2.2-0.5-2.3-1.6c0-0.8,0.1-1.3,0.3-1.5
		c0.3-0.3,0.9-0.7,1.9-1.3c6.2-4.3,14.6-11.2,25.3-20.8c1.3-1.7,2.4-2.5,3.4-2.5c1,0,2.7,0.3,5,1c2.3,0.6,3.5,1.3,3.5,2.1
		c0,5-0.5,9.5-1.4,13.6c-0.9,4.1-1.9,7.2-2.9,9.4c-0.9,2.1-1.4,3.2-1.4,3.4c0,0.2,0.1,0.2,0.3,0.2s0.5-0.1,1-0.4
		c6.2-3.2,14.2-8.3,23.9-15.5l3-2.3c0.8,0.6,1.1,1.3,1.1,2.1c0,0.8-0.4,1.6-1.1,2.3c-0.2,0-2.3,1.8-6.5,5.3
		c-4.1,3.5-8.7,7.3-13.8,11.5c-5,4.1-10.4,7.8-16.1,11.3S306.9,92,303.7,92c-7.8,0-11.8-4.7-11.8-14.1c0-0.8,0.3-1.4,0.9-2
		c0.7-0.7,1.5-1,2.5-1c0,0.4,0.2,1.1,0.6,2c0.5,0.8,1,1.5,1.5,2.1C298.9,80.4,301.1,81.1,303.9,81.1L303.9,81.1z"/>
	
		<radialGradient id="path1223_1_" cx="-222.4198" cy="251.1548" r="76.1294" gradientTransform="matrix(2.8346 0 0 -0.7676 979.7007 271.3365)" gradientUnits="userSpaceOnUse">
		<stop  offset="0" style="stop-color:#FF00BF"/>
		<stop  offset="1" style="stop-color:#9C00FF"/>
	</radialGradient>
	<path id="path1223" class="st40" d="M390,32.5l6.4-0.1c8.3,0,14.2,1.2,18,3.5c1.8,0.6,2.8,1.3,2.8,2.3c0,0.7-0.8,1.1-2.5,1.4
		c-1.6,0.2-7.2,0.9-16.9,2c-9.6,1-16.2,1.6-19.8,1.8c-1.6,0.1-5.3,2.8-11,8.2c-5.7,5.4-11.1,11.4-16.3,17.9S343,80.4,343,83
		c0,0.4,0.2,0.8,0.6,1.1c0.4,0.3,0.9,0.4,1.5,0.4c0.7,0,1.7-0.3,3-0.8c15.8-9.3,31.2-19.5,46.1-30.6c0.7,0.6,1.1,1.3,1.1,2.1
		c0,0.8-0.4,1.7-1.3,2.5c-0.8,0.8-2.1,1.9-3.8,3.4c-1.6,1.5-4.6,4.2-9,8.1c-4.4,3.9-8.6,7.4-12.5,10.5c-10.5,8.5-17.8,13.4-22,14.8
		c-1.5,0.4-3.3,0.6-5.4,0.6c-2,0-3.9-1-5.6-3.1c-1.7-2.1-2.5-4.9-2.5-8.5c0-3.6,2.3-8.8,6.9-15.5c4.7-6.7,11-13.7,19-20.7
		c0.8-0.6,1.1-1.1,1.1-1.6c0-0.5-0.9-0.7-2.6-0.7l-7.9,0.2c-11.1,0-16.8-1.3-17.1-3.8c-2.6-0.5-3.9-1.3-3.9-2.3
		c0-0.3,0.2-0.5,0.5-0.5c0.3-0.1,0.6-0.1,0.9-0.1c0.3-0.1,0.7-0.2,1.3-0.2c0.6-0.1,5.2-0.8,13.8-2c8.7-1.3,18.5-2.3,29.5-3.1
		l8.6-11.5c0.5-1,2.2-1.5,5.2-1.5s4.5,0.6,4.5,1.9c0,0.4-0.3,1.2-1,2.2l-3.1,4.4c-0.4,1.3-0.7,2.3-0.8,3
		C388.3,32.2,388.9,32.5,390,32.5L390,32.5z"/>
	
		<radialGradient id="path1225_1_" cx="-222.4198" cy="251.1548" r="76.1294" gradientTransform="matrix(2.8346 0 0 -0.7676 979.7007 271.3365)" gradientUnits="userSpaceOnUse">
		<stop  offset="0" style="stop-color:#FF00BF"/>
		<stop  offset="1" style="stop-color:#9C00FF"/>
	</radialGradient>
	<path id="path1225" class="st41" d="M376.3,66.9c4.6-3.2,9.4-6.6,14.4-10.2c-2.7-1.8-4.4-3.6-5.1-5.4c-0.3-0.6-0.4-1-0.4-1.2
		c0-1.7,0.5-2.8,1.6-3.3c1.1-0.6,2.8-0.9,5.3-0.9c0.9,0,3.6,1.1,8.1,3.4c4.5,2.2,7.3,3.4,8.5,3.4c1.2,0,3-0.3,5.1-1
		c2.2-0.8,3.9-1.1,5.1-1.1c1.3,0,2.3,0.3,2.9,0.9c2.1,2.8,3.1,4.4,3.1,5c0,0.6-0.3,1.1-0.9,1.5c-0.5,0.3-2.2,1.5-5.1,3.5
		c-2.8,2-5.6,4-8.4,6.1c-2.8,2.1-5.3,4.4-7.7,7c-2.4,2.6-3.6,4.7-3.6,6.3c0,0.3,0.2,0.4,0.6,0.4c4.5,0,19.7-9.1,45.5-27.4
		c0.6,0,0.9,0.5,0.9,1.6c0,1-3.3,4.6-9.9,10.7c-6.6,6.1-14,12.1-22.4,18c-8.3,5.8-14.3,8.8-18,8.8c-5.8,0-8.8-2.9-8.8-8.8
		c0-3.2,1-6.2,3.1-9.1c2.2-3,6.7-7,13.5-12c-1.4,0-3.3-0.3-5.8-1c-2.4-0.7-4-1.6-4.6-2.6c-2.2,1.9-5.9,5.1-11.3,9.6
		c-1.2,0.9-2.9,1.4-4.9,1.4c-2,0-3-0.3-3-0.9C374.3,68.8,375,67.9,376.3,66.9L376.3,66.9z"/>
	
		<radialGradient id="path1227_1_" cx="-222.4198" cy="251.1548" r="76.1294" gradientTransform="matrix(2.8346 0 0 -0.7676 979.7007 271.3365)" gradientUnits="userSpaceOnUse">
		<stop  offset="0" style="stop-color:#FF00BF"/>
		<stop  offset="1" style="stop-color:#9C00FF"/>
	</radialGradient>
	<path id="path1227" class="st42" d="M430.6,84.7c2.7,0,6-1.8,9.9-5.3c3.9-3.5,6-5.9,6.1-7.3c-1-0.8-2.1-2.3-3.2-4.5
		c-1.1-2.3-1.7-3.4-1.8-3.4c-2.6,2.4-4.9,5.2-6.9,8.4c-3.2,5.3-4.8,9-4.8,11C430,84.4,430.2,84.7,430.6,84.7z M457.6,54.1
		c-0.8,0-2.6,1.3-5.3,3.9c-2.6,2.6-3.9,4.4-3.9,5.4c0,0.3,0.3,0.8,0.8,1.5c0.5,0.8,0.9,1.1,1.1,1.1c1.4,0,3-1.7,4.8-5.1
		c1.8-3.4,2.7-5.4,2.7-5.9C457.8,54.4,457.8,54.1,457.6,54.1L457.6,54.1z M457.8,70.2c2.3,0,6-1.4,10.9-4.3c5-2.8,9.4-5.7,13.1-8.5
		l5.6-4.4c0.7,0.6,1.1,1.3,1.1,2.1c0,0.8-0.4,1.6-1.1,2.3c-13.8,12.8-24.2,19.1-31.3,19.1c-0.5,0-1.3-0.1-2.3-0.2
		c-9.4,10.9-17.5,16.4-24.3,16.4c-4.5-0.7-7.3-2.3-8.5-4.8c-0.7-1.3-1-2.8-1-4.8c0-5.5,3.2-12,9.5-19.6c6.3-7.7,14.3-13.3,23.9-16.9
		c0.8,0,1.5,0.2,1.9,0.6c0.4,0.3,0.8,0.5,1.1,0.6c0.3,0,0.8-0.2,1.2-0.5c0.6-0.4,1.3-0.6,2.3-0.6c0.9-0.1,1.9,0.4,2.9,1.5
		c1.3,1.1,2,2.4,2,4C465,57,462.6,63,457.8,70.2L457.8,70.2z"/>
	
		<radialGradient id="path1229_1_" cx="-222.4198" cy="251.1548" r="76.1294" gradientTransform="matrix(2.8346 0 0 -0.7676 979.7007 271.3365)" gradientUnits="userSpaceOnUse">
		<stop  offset="0" style="stop-color:#FF00BF"/>
		<stop  offset="1" style="stop-color:#9C00FF"/>
	</radialGradient>
	<path id="path1229" class="st43" d="M520,82.5c0,0.8,0.5,1.1,1.4,1.1c1,0,2.8-0.6,5.2-1.8c2.6-1.2,5.6-3,9.1-5.4
		c3.6-2.4,8.3-5.8,14.1-10.3c5.9-4.5,11.1-8.3,15.5-11.4c0.8,0.6,1.1,1.3,1.1,2.1c0,0.8-0.4,1.6-1.1,2.3c-2.7,2.6-6,5.8-10.1,9.8
		c-4.1,3.8-10.3,9-18.8,15.5c-8.3,6.5-14.2,9.8-17.5,9.8c-6.4,0-9.6-3.4-9.6-10.3c0-2.6,1-5.3,3-8.1l5.4-7.4
		c0.5-0.8,0.8-1.2,0.8-1.3c0-0.2-0.3,0-0.8,0.4C503.2,79.7,494,86.8,490,88.9c-0.7,0.4-1.5,0.6-2.5,0.6c-2.8,0-4.1-1.3-4.1-3.8
		c0-0.8,0.2-1.6,0.6-2.3c4.8-7,8.5-11.7,11.1-14.1l2.1-2.1c0.2-0.2,0.2-0.3,0.3-0.5c0-0.2-0.1-0.2-0.3-0.2c-0.2,0-0.4,0.2-0.8,0.5
		l-13.4,10.5c-7.8,6.1-12,9.3-12.8,9.8c-0.7,0.3-1.3,0.5-1.9,0.5c-0.6,0-1.5-0.3-2.8-1c-1.3-0.8-1.9-1.6-1.9-2.5
		c0-0.3,0.1-0.6,0.4-1c8.2-9,14.1-16.4,17.9-22.3c1.6-2.5,3-4.7,4.1-6.6c1.2-2,2.2-3.4,2.9-4.3c0.8-0.8,1.5-1.2,2.4-1.2
		c0.8,0,1.8,0.5,2.8,1.5c1.1,0.9,1.6,1.9,1.6,2.9c0,1-0.3,2-1,3.1c-2.8,5.1-5,8.4-6.6,9.9c-0.2,0.3-0.4,0.5-0.4,0.8
		c0,0.2,0.1,0.2,0.3,0.2l0.4-0.1l16.8-11.6c4.3-2.9,6.8-4.4,7.6-4.4s1.7,0.3,2.6,0.9c1,0.5,1.5,1.1,1.5,1.8c0,0.7-0.2,1.3-0.6,2
		l-8.1,11.1c-1.1,1.3-1.6,2.1-1.6,2.3c0,0.2,0,0.2,0.1,0.2l0.6-0.4c10.4-7.1,17.5-12,21.1-14.8c3.7-2.7,6-4.5,6.8-5.2
		c1.2-0.8,2.1-1.3,2.9-1.3c0.8,0,1.4,0.1,1.6,0.2l2.8,2.1c0.8,0.4,1.3,1,1.3,1.6c0,0.7-0.2,1.2-0.5,1.6c-4.9,5.3-8.9,9.6-11.9,12.8
		c-2.9,3.2-5,5.5-6.4,7c-2.2,2.6-3.5,4.7-4,6.3C520.3,80.5,520,81.6,520,82.5L520,82.5z"/>
</g>
<g id="text9261">
	<path id="path1232" inkscape:connector-curvature="0" class="st44" d="M401.8,171.2l-4.8,3.2c-3-4.4-6.8-7.8-11.6-10.3
		c-4.7-2.6-9.8-3.9-15.3-3.9c-9,0-16.6,3.2-23,9.5c-6.3,6.3-9.5,14-9.5,23c0,9,3.2,16.6,9.5,23c6.3,6.3,14,9.5,23,9.5
		c5.5,0,10.6-1.3,15.3-3.9c4.8-2.6,8.6-6,11.6-10.4l4.8,3.4c-3.5,5.1-8,9.2-13.6,12.2c-5.6,3-11.6,4.5-18,4.5c-5.2,0-10.2-1-14.9-3
		c-4.7-2-8.8-4.8-12.2-8.2c-3.4-3.4-6.2-7.5-8.2-12.2c-2-4.8-3-9.7-3-14.9c0-5.2,1-10.1,3-14.8c2-4.8,4.8-8.9,8.2-12.3
		c3.4-3.4,7.5-6.2,12.2-8.2c4.8-2,9.7-3,14.9-3c6.5,0,12.5,1.5,18.1,4.6C393.7,161.9,398.3,166,401.8,171.2z M411.5,164.5l-4.9,3.2
		c-4-5.9-9.3-10.6-15.7-14c-6.4-3.5-13.3-5.2-20.8-5.2c-8,0-15.4,2-22.2,6c-6.8,3.9-12.2,9.3-16.1,16.1c-3.9,6.8-5.9,14.2-5.9,22.2
		c0,8,2,15.4,5.9,22.2c4,6.8,9.4,12.2,16.1,16.1c6.8,3.9,14.2,5.9,22.2,5.9c7.5,0,14.5-1.7,20.9-5.2c6.4-3.5,11.7-8.2,15.7-14.2
		l4.8,3.4c-4.6,6.8-10.5,12.1-17.9,16.1c-7.3,3.9-15.1,5.9-23.6,5.9c-9.1,0-17.5-2.2-25.2-6.7c-7.7-4.5-13.8-10.6-18.3-18.3
		c-4.5-7.7-6.7-16.1-6.7-25.2c0-9.1,2.2-17.5,6.7-25.2s10.6-13.8,18.3-18.3c7.7-4.5,16.1-6.7,25.2-6.7c8.5,0,16.3,2,23.6,5.9
		C401,152.4,406.9,157.7,411.5,164.5z M421.3,157.9l-4.9,3.2c-5.1-7.5-11.8-13.5-20-17.9c-8.1-4.4-16.9-6.6-26.4-6.6
		c-7.6,0-14.9,1.5-21.8,4.4s-12.9,6.9-18,12c-5,5-8.9,10.9-11.9,17.9c-3,6.9-4.4,14.2-4.4,21.8c0,7.6,1.5,14.9,4.4,21.8
		c3,6.9,6.9,12.9,11.9,18c5,5,11,8.9,18,11.9s14.2,4.4,21.8,4.4c9.5,0,18.3-2.2,26.5-6.6c8.1-4.4,14.8-10.4,19.9-18l4.8,3.5
		c-5.7,8.3-13,14.9-22.1,19.8c-9,4.8-18.7,7.2-29.1,7.2c-11.2,0-21.6-2.8-31.1-8.3c-9.5-5.6-17.1-13.1-22.6-22.6
		c-5.5-9.5-8.3-19.9-8.3-31.1c0-11.2,2.8-21.6,8.3-31.1c5.6-9.5,13.1-17,22.6-22.5c9.5-5.6,19.9-8.4,31.1-8.4
		c10.5,0,20.2,2.5,29.3,7.4C408.3,143,415.7,149.6,421.3,157.9L421.3,157.9z M431,151.2l-4.9,3.2c-6.2-9.1-14.3-16.3-24.2-21.6
		c-9.8-5.3-20.5-8-31.9-8c-9.2,0-18,1.8-26.4,5.4c-8.4,3.6-15.6,8.4-21.6,14.4c-6.1,6.1-10.9,13.3-14.5,21.7
		c-3.6,8.4-5.3,17.1-5.3,26.3s1.8,18,5.3,26.4c3.6,8.4,8.4,15.6,14.5,21.6c6.1,6.1,13.3,10.9,21.6,14.5c8.4,3.6,17.2,5.3,26.4,5.3
		c11.4,0,22.1-2.7,32-8c9.9-5.4,18-12.6,24.2-21.7l4.8,3.6c-6.8,9.8-15.5,17.7-26.2,23.4c-10.7,5.7-22.3,8.6-34.7,8.6
		c-10,0-19.6-2-28.7-5.9c-9.1-3.9-16.9-9.1-23.5-15.7c-6.6-6.6-11.8-14.5-15.7-23.5c-3.9-9.1-5.8-18.7-5.8-28.7s1.9-19.5,5.8-28.6
		c3.9-9.1,9.2-17,15.7-23.5c6.6-6.6,14.5-11.9,23.5-15.7c9.1-3.9,18.7-5.9,28.7-5.9c12.5,0,24,2.9,34.8,8.7
		C415.5,133.4,424.2,141.3,431,151.2z"/>
	<path id="path1234" inkscape:connector-curvature="0" class="st44" d="M439.6,130.7v-5.9h88.5v5.9H439.6z M439.6,142.5v-5.9h88.5
		v5.9H439.6z M439.6,154.3v-5.9h88.5v5.9h-23.6v106.2h-5.9V154.3h-5.9v106.2h-5.9V154.3h-5.9v106.2H475V154.3h-5.9v106.2h-5.9V154.3
		H439.6z"/>
	<path id="path1236" inkscape:connector-curvature="0" class="st44" d="M582.9,260.6H577V124.8h65.3v5.9h-59.4v5.9h59.4v5.9h-59.4
		v5.9h59.4v5.9h-59.4v29.5h56.6v5.9h-56.6v5.9h56.6v5.9h-56.6v5.9h56.6v5.9h-56.6V260.6z M571.1,260.6h-5.9V124.8h5.9V260.6z
		 M559.3,260.6h-5.9V124.8h5.9V260.6z M547.5,260.6h-5.9V124.8h5.9V260.6z"/>
</g>
<g id="text9265" transform="rotate(-16.381827)">
	<path id="path1239" class="st45" d="M293.6,497c-0.7-0.5-1.3-1.1-1.7-1.8c-0.5-0.7-0.8-1.5-1.1-2.3c-0.3-0.8-0.5-1.7-0.7-2.6
		c-0.2-0.9-0.4-1.8-0.6-2.7c0-0.7,0.2-1.3,0.5-1.6c0.3-0.4,0.7-0.7,1-1c1.3-0.1,2.4-0.2,3.4-0.3c1-0.2,2-0.3,2.9-0.5
		c0.9-0.2,1.9-0.3,2.8-0.4c0.9-0.2,2-0.2,3-0.2c0.8-1.6,1.5-3.2,2.2-4.6c0.7-1.5,1.3-2.9,2-4.3c0.3-1.3,0.7-2.5,1.2-3.6
		c0.5-1.1,1-2.2,1.5-3.2c0.5-1,0.9-2.1,1.3-3c0.4-1,0.6-2.1,0.7-3.3c0.6-1.8,1.2-3.5,1.6-5c0.5-1.6,0.9-3.4,1.2-5.5
		c-2,0.3-3.6,0.6-4.8,0.9c-1.2,0.3-2.1,0.5-2.6,0.8c-1-0.1-1.9-0.3-2.5-0.6c-0.6-0.4-1-0.8-1.4-1.3c-0.4-0.5-0.7-1.1-0.9-1.8
		c-0.3-0.7-0.6-1.4-0.9-2.1c0.2-0.5,0.3-1.1,0.2-2c-0.1-0.9-0.4-1.6-0.9-2c0.4-0.1,0.7-0.4,0.9-1c0.2-0.6,0.2-1.1,0.1-1.4
		c0.9-0.3,1.8-0.4,2.8-0.5c1-0.1,2-0.2,2.9-0.2c1-0.1,1.9-0.2,2.8-0.3c0.9-0.2,1.6-0.4,2.3-0.9c2.7-0.1,5.5-0.2,8.4-0.3
		c3-0.1,5.7-0.2,8.2-0.4c0.9,0.3,2,0.5,3.2,0.5c1.3,0,2.5,0.1,3.7,0.2c1.3,0.2,2.3,0.5,3.3,1c1,0.5,1.7,1.4,2,2.7
		c0.8,0.1,1.4,0.3,1.7,0.6c0.4,0.3,0.7,0.7,0.8,1.2c0.1,0.4,0.1,0.9,0.1,1.5c0,0.5,0,1,0,1.6c-0.8,0.6-1.9,1.1-3.2,1.6
		c-1.3,0.4-2.6,0.7-4.1,0.9c-1.5,0.2-3.1,0.4-4.8,0.5c-1.6,0.1-3.2,0.1-4.8,0.2c-0.3,1.7-0.7,3.8-1.4,6.1c-0.6,2.3-1.3,4.6-2,6.8
		c-0.7,2.2-1.3,4.2-1.8,5.9c-0.5,1.7-0.7,2.8-0.6,3.4c-0.5,1.2-1,2.2-1.3,3c-0.3,0.8-0.6,1.6-0.9,2.3c-0.3,0.7-0.5,1.5-0.9,2.2
		c-0.3,0.7-0.6,1.5-1,2.3h5.3c0.1,0.6,0.3,1,0.7,1.2c0.4,0.2,0.8,0.4,1.2,0.5c0.4,0.2,0.8,0.4,1.1,0.6c0.4,0.2,0.5,0.6,0.5,1.1
		c1,0.3,1.6,0.7,1.9,1.2c0.3,0.5,0.3,1.1,0.2,1.7c-0.1,0.6-0.4,1.2-0.8,1.8c-0.4,0.6-0.7,1.2-1.1,1.6c-0.5-0.1-0.9,0-1.3,0.4
		c-0.4,0.3-0.8,0.7-1.2,1.1c-1.5-0.2-3-0.2-4.5-0.1c-1.5,0.2-2.8,0.3-4.1,0.4c-0.3,0.1-0.4,0.2-0.3,0.5c0.1,0.2,0,0.4-0.2,0.5
		c-1.6-0.5-3.3-0.7-5-0.6c-1.7,0.1-3.4,0.4-5.2,0.8c-1.7,0.4-3.5,0.8-5.3,1.2C297.4,496.7,295.5,497,293.6,497L293.6,497z"/>
	<path id="path1241" class="st45" d="M334.9,497c-0.7-0.5-1.3-1.1-1.7-1.8c-0.5-0.7-0.8-1.5-1.1-2.3c-0.3-0.8-0.5-1.7-0.7-2.6
		c-0.2-0.9-0.4-1.8-0.6-2.7c0-0.7,0.2-1.3,0.5-1.6c0.3-0.4,0.7-0.7,1-1c1.3-0.1,2.4-0.2,3.4-0.3c1-0.2,2-0.3,2.9-0.5
		c0.9-0.2,1.9-0.3,2.8-0.4c0.9-0.2,2-0.2,3-0.2c0.8-1.6,1.5-3.2,2.2-4.6c0.7-1.5,1.3-2.9,2-4.3c0.3-1.3,0.7-2.5,1.2-3.6
		c0.5-1.1,1-2.2,1.5-3.2c0.5-1,0.9-2.1,1.3-3c0.4-1,0.6-2.1,0.7-3.3c0.6-1.8,1.2-3.5,1.6-5c0.5-1.6,0.9-3.4,1.2-5.5
		c-2,0.3-3.6,0.6-4.8,0.9c-1.2,0.3-2.1,0.5-2.6,0.8c-1-0.1-1.9-0.3-2.5-0.6c-0.6-0.4-1-0.8-1.4-1.3c-0.4-0.5-0.7-1.1-0.9-1.8
		c-0.3-0.7-0.6-1.4-0.9-2.1c0.2-0.5,0.3-1.1,0.2-2c-0.1-0.9-0.4-1.6-0.9-2c0.4-0.1,0.7-0.4,0.9-1c0.2-0.6,0.2-1.1,0.1-1.4
		c0.9-0.3,1.8-0.4,2.8-0.5c1-0.1,2-0.2,2.9-0.2c1-0.1,1.9-0.2,2.8-0.3c0.9-0.2,1.6-0.4,2.3-0.9c2.7-0.1,5.5-0.2,8.4-0.3
		c3-0.1,5.7-0.2,8.2-0.4c0.9,0.3,2,0.5,3.2,0.5c1.2,0,2.5,0.1,3.7,0.2c1.2,0.2,2.3,0.5,3.3,1c1,0.5,1.7,1.4,2,2.7
		c0.8,0.1,1.4,0.3,1.7,0.6c0.4,0.3,0.7,0.7,0.8,1.2c0.1,0.4,0.1,0.9,0.1,1.5c0,0.5,0,1,0,1.6c-0.8,0.6-1.9,1.1-3.2,1.6
		c-1.2,0.4-2.6,0.7-4.1,0.9c-1.5,0.2-3.1,0.4-4.8,0.5c-1.6,0.1-3.2,0.1-4.8,0.2c-0.3,1.7-0.7,3.8-1.4,6.1c-0.6,2.3-1.3,4.6-2,6.8
		c-0.7,2.2-1.3,4.2-1.8,5.9c-0.5,1.7-0.7,2.8-0.6,3.4c-0.5,1.2-1,2.2-1.3,3c-0.3,0.8-0.6,1.6-0.9,2.3c-0.3,0.7-0.5,1.5-0.9,2.2
		c-0.3,0.7-0.6,1.5-1,2.3h5.3c0.1,0.6,0.3,1,0.7,1.2c0.4,0.2,0.8,0.4,1.2,0.5c0.4,0.2,0.8,0.4,1.1,0.6c0.4,0.2,0.5,0.6,0.5,1.1
		c1,0.3,1.6,0.7,1.9,1.2c0.3,0.5,0.3,1.1,0.2,1.7c-0.1,0.6-0.4,1.2-0.8,1.8c-0.4,0.6-0.7,1.2-1.1,1.6c-0.5-0.1-0.9,0-1.3,0.4
		c-0.4,0.3-0.8,0.7-1.2,1.1c-1.5-0.2-3-0.2-4.5-0.1c-1.5,0.2-2.8,0.3-4.1,0.4c-0.3,0.1-0.4,0.2-0.3,0.5c0.1,0.2,0,0.4-0.2,0.5
		c-1.6-0.5-3.3-0.7-5-0.6c-1.7,0.1-3.4,0.4-5.2,0.8c-1.7,0.4-3.5,0.8-5.3,1.2C338.6,496.7,336.8,497,334.9,497L334.9,497z"/>
	<path id="path1243" class="st45" d="M376.1,497c-0.7-0.5-1.3-1.1-1.7-1.8c-0.5-0.7-0.8-1.5-1.1-2.3c-0.3-0.8-0.5-1.7-0.7-2.6
		c-0.2-0.9-0.4-1.8-0.6-2.7c0-0.7,0.2-1.3,0.5-1.6c0.3-0.4,0.7-0.7,1-1c1.3-0.1,2.4-0.2,3.4-0.3c1-0.2,2-0.3,2.9-0.5
		c0.9-0.2,1.9-0.3,2.8-0.4c0.9-0.2,2-0.2,3-0.2c0.8-1.6,1.5-3.2,2.2-4.6c0.7-1.5,1.3-2.9,2-4.3c0.3-1.3,0.7-2.5,1.2-3.6
		c0.5-1.1,1-2.2,1.5-3.2c0.5-1,0.9-2.1,1.3-3c0.4-1,0.6-2.1,0.7-3.3c0.6-1.8,1.2-3.5,1.6-5c0.5-1.6,0.9-3.4,1.2-5.5
		c-2,0.3-3.6,0.6-4.8,0.9c-1.2,0.3-2.1,0.5-2.6,0.8c-1-0.1-1.9-0.3-2.5-0.6c-0.6-0.4-1-0.8-1.4-1.3c-0.4-0.5-0.7-1.1-0.9-1.8
		c-0.3-0.7-0.6-1.4-0.9-2.1c0.2-0.5,0.3-1.1,0.2-2c-0.1-0.9-0.4-1.6-0.9-2c0.4-0.1,0.7-0.4,0.9-1c0.2-0.6,0.2-1.1,0.1-1.4
		c0.9-0.3,1.8-0.4,2.8-0.5c1-0.1,2-0.2,2.9-0.2c1-0.1,1.9-0.2,2.8-0.3c0.9-0.2,1.6-0.4,2.3-0.9c2.7-0.1,5.5-0.2,8.4-0.3
		c3-0.1,5.7-0.2,8.2-0.4c0.9,0.3,2,0.5,3.2,0.5c1.2,0,2.5,0.1,3.7,0.2c1.2,0.2,2.3,0.5,3.3,1c1,0.5,1.7,1.4,2,2.7
		c0.8,0.1,1.4,0.3,1.7,0.6c0.4,0.3,0.7,0.7,0.8,1.2c0.1,0.4,0.1,0.9,0.1,1.5c0,0.5,0,1,0,1.6c-0.8,0.6-1.9,1.1-3.2,1.6
		c-1.3,0.4-2.6,0.7-4.1,0.9c-1.5,0.2-3.1,0.4-4.8,0.5c-1.6,0.1-3.2,0.1-4.8,0.2c-0.3,1.7-0.7,3.8-1.4,6.1c-0.6,2.3-1.3,4.6-2,6.8
		c-0.7,2.2-1.3,4.2-1.8,5.9c-0.5,1.7-0.7,2.8-0.6,3.4c-0.5,1.2-1,2.2-1.3,3c-0.3,0.8-0.6,1.6-0.9,2.3c-0.3,0.7-0.5,1.5-0.9,2.2
		c-0.3,0.7-0.6,1.5-1,2.3h5.3c0.1,0.6,0.3,1,0.7,1.2c0.4,0.2,0.8,0.4,1.2,0.5c0.4,0.2,0.8,0.4,1.1,0.6c0.4,0.2,0.5,0.6,0.5,1.1
		c1,0.3,1.6,0.7,1.9,1.2c0.3,0.5,0.3,1.1,0.2,1.7c-0.1,0.6-0.4,1.2-0.8,1.8c-0.4,0.6-0.7,1.2-1.1,1.6c-0.5-0.1-0.9,0-1.3,0.4
		c-0.4,0.3-0.8,0.7-1.2,1.1c-1.5-0.2-3-0.2-4.5-0.1c-1.5,0.2-2.8,0.3-4.1,0.4c-0.3,0.1-0.4,0.2-0.3,0.5c0.1,0.2,0,0.4-0.2,0.5
		c-1.6-0.5-3.3-0.7-5-0.6c-1.7,0.1-3.4,0.4-5.2,0.8c-1.7,0.4-3.5,0.8-5.3,1.2C379.9,496.7,378,497,376.1,497L376.1,497z"/>
	<path id="path1245" class="st45" d="M427.5,486.8c0.1,0.4,0.2,0.8,0.2,1.2c0.1,0.4,0.1,0.8,0.2,1.2c-0.2,0.5-0.4,1-0.5,1.6
		c-0.2,0.5-0.3,0.9-0.5,1.4c-0.2,0.4-0.3,0.6-0.3,0.7c-0.1,0.1-0.1,0.2-0.1,0.2c0,0.1,0,0.1,0,0.2c0.1,0.1,0.1,0.3,0.1,0.6l-0.3,0.9
		c-0.3,0.4-0.6,0.7-0.9,0.9c-0.4,0.2-0.7,0.4-1.1,0.5c-0.1,0.1-0.3,0.2-0.5,0.2c-0.2,0.1-0.4,0.2-0.5,0.3l-0.2,0.9l-1,0.2
		c-0.9,0.2-1.6,0.3-2.3,0.3h-0.9c-0.6-0.6-1.1-1-1.5-1.3c-0.4-0.3-0.8-0.6-1.2-0.9c-0.5-0.7-0.8-1.2-0.9-1.6c-0.1-0.4-0.1-0.7-0.2-1
		c-0.1-0.7-0.2-1.1-0.4-1.3l-1.1-1.1l0.9-0.7l-0.9-1.5c0.6-0.5,1.1-0.8,1.4-1s0.6-0.4,0.8-0.6c0.2-0.3,0.4-0.6,0.7-0.9
		c0.3-0.4,0.7-1,1.2-1.8l0.7-1l1,0.5c0.2,0.2,0.7,0.3,1.3,0.5c0.7,0.1,1.4,0.2,1.9,0.3c0.9,0.3,1.7,0.5,2.5,0.6
		c0.8,0.1,1.4,0.4,1.9,0.8L427.5,486.8z M431.8,464.9c-0.1,0.8-0.2,1.4-0.3,1.7c-0.1,0.4-0.1,0.7-0.1,1.1c0,0.3,0,0.7,0.1,1.2
		c0.1,0.5,0.3,1.2,0.5,2.2l0.2,1.3l-1.2,0.2c-0.3,0.1-0.7,0.4-1.3,0.8c-0.6,0.4-1.1,0.8-1.6,1c-0.7,0.4-1.4,0.9-2.1,1.4
		c-0.7,0.5-1.4,0.7-2,0.8c-0.8-0.4-1.4-0.7-1.7-0.9s-0.6-0.4-0.9-0.7c-0.3-0.5-0.5-1-0.7-1.5c-0.2-0.5-0.4-0.9-0.7-1.4
		c-0.2-0.4-0.3-0.6-0.3-0.7c-0.1-0.1-0.1-0.2-0.2-0.2c0-0.1-0.1-0.1-0.2-0.2c-0.1-0.1-0.2-0.2-0.5-0.5l-0.5-0.9
		c-0.1-0.8,0.1-1.6,0.5-2.4c0.1-0.4,0.2-0.8,0.3-1.1l-0.5-0.9l0.6-0.9c0.4-0.5,0.6-0.9,0.8-1.1c0.2-0.3,0.4-0.5,0.6-0.8l0.7-0.6
		c0.8-0.1,1.5-0.1,2-0.1c0.5-0.1,1-0.2,1.6-0.3c0.9,0.2,1.5,0.4,1.7,0.6c0.3,0.2,0.6,0.3,0.9,0.5c0.6,0.4,1,0.6,1.3,0.6h1.6
		l-0.2,1.3L431.8,464.9z"/>
	<path id="path1247" class="st45" d="M520,482.5c1.3,0.6,1.9,1.4,1.9,2.3c0.1,0.9-0.2,1.8-0.9,2.7c-0.6,0.8-1.4,1.4-2.3,1.8
		c-0.9,0.4-1.8,0.4-2.6-0.1c-0.1,0.4-0.3,0.7-0.7,0.9c-0.3,0.1-0.5,0.3-0.6,0.7c-5.1,0.8-10.2,1.7-15.5,2.9
		c-5.3,1.1-10.5,2-15.8,2.6c-4.1-0.2-7.4-0.8-10.2-1.8c-1.1-0.9-1.9-2.1-2.5-3.5c-0.5-1.4-0.8-2.9-0.9-4.5c-0.1-1.6-0.1-3.1,0.2-4.5
		c0.2-1.5,0.5-2.8,0.9-3.9c2.7-3.4,5.5-6.7,8.4-9.8c3-3.2,6.3-6,10.1-8.4c1.1-1.4,2.4-2.5,3.8-3.4c1.5-1,2.8-2.1,4-3.3
		c-1.6-0.6-3.2-0.9-4.9-0.9c-1.7,0-3.4,0.2-5.1,0.5c-1.7,0.3-3.2,0.6-4.7,1s-2.7,0.7-3.8,0.9c-0.8-0.4-1.8-0.7-3-0.7
		c-1.1-0.1-2.2-0.3-3.3-0.6c-0.6-0.5-1.1-1.2-1.3-2c-0.2-0.8-0.3-1.7-0.4-2.6c-0.1-0.9-0.1-1.7-0.1-2.5c0-0.8-0.1-1.5-0.3-2
		c0.4-0.7,0.8-1.4,1.1-2c0.4-0.7,0.8-1.3,1.3-1.9c2.4-0.7,5.2-1.2,8.1-1.6c3-0.5,6-0.7,9-0.6c3,0.1,5.9,0.4,8.8,1.2
		c2.8,0.7,5.3,1.8,7.5,3.4c0.3,1.5,0.8,2.6,1.6,3.5c0.8,0.8,1.8,1.5,3,2c0.6,1,1.1,2.1,1.5,3.2c0.4,1,0.7,2.2,0.9,3.4
		c-1,2.8-2.5,5.1-4.5,7c-1.9,1.9-3.8,3.6-5.7,5.2c-1,0.9-2.2,1.6-3.4,2.3c-1.2,0.6-2.2,1.4-3.1,2.2c-0.2,0.2-0.3,0.5-0.4,0.9
		c-0.1,0.3-0.2,0.5-0.4,0.7c-0.9,0.8-2,1.6-3.1,2.3c-1.1,0.6-2.2,1.4-3.1,2.2c-0.7,0.6-1.3,1.2-1.7,1.9c-0.4,0.7-1,1.3-1.7,1.8
		c0.9,0.3,1.8,0.4,2.7,0.4c0.9-0.1,1.9-0.2,2.8-0.3c1-0.2,2-0.3,3-0.5c1-0.2,2.1-0.2,3.2-0.2c1.5-0.5,3.2-1,5-1.3
		c1.8-0.4,3.6-0.6,5.5-0.5c1.6-0.6,3-1.1,4.5-1.3c1.5-0.3,2.8-0.4,4.1-0.2c0.7,0.3,1.2,0.7,1.5,1.4c0.4,0.7,0.9,1.1,1.6,1.4
		c-0.2,0.6-0.2,1-0.2,1.3C520,481.4,520,481.8,520,482.5L520,482.5z"/>
	<path id="path1249" class="st45" d="M534.6,497.4c-2,0.3-3.9,0.2-5.6-0.3c-1.7-0.5-3.3-1.4-4.6-2.5c-1.3-1.1-2.4-2.5-3.4-4.1
		c-1-1.6-1.8-3.2-2.4-5c-0.4-3.7-0.3-7.1,0.4-10.1c0.7-3,1.6-5.8,2.9-8.4c1.3-2.6,2.8-4.9,4.4-7.1c1.6-2.2,3.2-4.4,4.7-6.4
		c0.3,0.2,0.6,0.2,0.8,0c0.2-0.2,0.4-0.4,0.5-0.7c0.2-0.3,0.4-0.5,0.5-0.8c0.2-0.3,0.5-0.4,0.8-0.5c0.2-0.5,0.5-0.9,0.8-1.2
		c0.3-0.4,0.6-0.7,0.9-1c0.4-0.3,0.7-0.6,1-0.9c0.3-0.3,0.6-0.7,0.8-1.2c0.5-0.1,0.9-0.3,1.3-0.5c0.4-0.3,0.7-0.6,1-0.9
		c0.3-0.3,0.6-0.6,0.9-0.9c0.4-0.3,0.8-0.5,1.3-0.7v-1c1-0.6,1.8-1.2,2.3-1.8c0.5-0.7,1-1.5,1.7-2.5c0.5-0.1,0.9-0.1,1.2-0.1
		c0.3,0,0.8-0.1,1.3-0.2c0.5-0.9,0.9-1.6,1.3-2c0.4-0.5,0.9-1,1.6-1.6c0.7,0.4,1.4,0.7,2.3,0.9c0.8,0.1,1.5,0.5,2.1,1.2
		c0.1,0.7,0.2,1.2,0.5,1.6c0.3,0.4,0.7,0.7,1,1c0.4,0.3,0.7,0.6,1,0.9c0.3,0.3,0.5,0.8,0.6,1.3c0.2,0,0.3-0.1,0.4-0.2
		c0.1-0.1,0.3-0.1,0.5-0.1c0.1,0.5,0.2,0.8,0.3,1.1c0.1,0.3,0.2,0.5,0.3,0.8c0.1,0.2,0.2,0.4,0.3,0.7c0.2,0.2,0.3,0.5,0.4,0.9
		c-0.3,0.6-0.5,1.3-0.7,2c-0.2,0.7-0.5,1.2-1.1,1.5c0,0.4,0.1,0.7,0.4,0.7c0.3,0.1,0.5,0.3,0.5,0.6c0,0.5-0.1,0.9-0.2,1.2
		c1.4,2.6,2.6,5.2,3.6,8c1.1,2.8,2.3,5.4,3.7,7.9c-0.1,0.8-0.1,1.5,0.1,2.3c0.2,0.7,0.4,1.5,0.6,2.2c0.3,0.7,0.5,1.4,0.7,2
		c0.3,0.7,0.4,1.4,0.5,2.1c0.1,0.9,0.1,2,0,3c-0.1,1-0.2,2.1-0.5,3c-0.3,1-0.6,1.9-1.1,2.7c-0.5,0.8-1,1.5-1.6,1.9
		c-0.1-0.1-0.4,0.1-0.9,0.5c-0.5,0.3-1,0.7-1.6,1.2c-0.6,0.5-1.2,1.1-1.8,1.7s-1.2,1.2-1.6,1.6c-0.6,0.4-1.3,0.7-2.1,0.9
		c-0.7,0.2-1.5,0.3-2.3,0.5c-0.6,0.4-1.4,0.9-2.3,1.3c-0.8,0.4-1.7,0.8-2.7,1.1c-0.9,0.3-1.8,0.5-2.7,0.7c-0.9,0.2-1.7,0.3-2.3,0.2
		c-1.7,0.7-3.4,1.2-5,1.4C538.7,498.1,536.8,497.9,534.6,497.4L534.6,497.4z M536.4,467.9c-0.4,1.2-0.9,2.4-1.5,3.4
		c-0.6,1-1.1,2-1.7,3c-0.5,1-1,2.2-1.4,3.4c-0.4,1.1-0.6,2.5-0.6,4.1c0.8,0.9,1.8,1.4,3,1.6c1.2,0.2,2.4,0.2,3.6,0.1
		c1.3-0.2,2.5-0.4,3.7-0.6c1.2-0.3,2.3-0.4,3.3-0.5c0-0.5,0.2-0.7,0.5-0.6c1.7-0.2,3.3-0.8,4.8-1.9c1.6-1.1,3.2-2.2,4.8-3.3
		c0.2-0.7,0.5-1.3,0.8-1.7c0.4-0.5,0.5-1.1,0.5-2c-0.2-0.6-0.3-1-0.4-1.2c-0.1-0.3-0.1-0.8-0.1-1.5c-1.1-2-2.1-4.1-2.9-6.4
		c-0.8-2.3-1.7-4.5-2.7-6.5c-0.1,0.3-0.3,0.5-0.5,0.8c-0.3,0.3-0.5,0.2-0.9-0.2c-0.3,1-0.7,1.5-1.4,1.4c-0.6-0.1-1.2-0.4-1.8-0.9
		c-1.5,1.5-2.9,3-4.4,4.5c-1.5,1.4-2.8,3-3.9,4.9c-0.2,0.2-0.3,0.2-0.4,0.2C536.8,467.7,536.6,467.7,536.4,467.9L536.4,467.9z"/>
	<path id="path1251" class="st45" d="M586.1,439.5c0.6,1.1,1.3,2.1,2.2,2.8c0.9,0.7,1.8,1.4,2.7,2.1c1.1,2,1.8,4.3,2,6.8
		c0.3,2.5,0.5,5.2,0.9,8.2c0,2.4-0.2,4.7-0.5,6.8c-0.3,2.1-0.7,4.1-1.3,6.2c-0.5,2-1,4-1.6,5.9c-0.6,2-1.2,4.1-1.8,6.3
		c-0.7,0.8-1.3,1.9-1.7,3.4c-0.4,1.4-0.4,2.8-0.1,4.1c-0.7,0.8-1.4,1.6-2,2.4c-0.7,0.8-1.4,1.5-2.3,2.2c-0.3-0.3-0.7-0.5-1.2-0.5
		c-0.5,0-1,0-1.5,0c-0.5,0.1-1,0.1-1.5,0.2c-0.4,0.1-0.7,0.1-0.9,0.1c-0.3-0.4-0.6-0.9-1.1-1.3c-0.4-0.5-0.8-1-1.2-1.5
		c-0.3-0.5-0.6-1-0.8-1.5c-0.2-0.5-0.1-1,0.2-1.5c0-0.6-0.3-0.9-0.9-0.9c0.2-2.4,0.5-4.7,1.2-7c0.6-2.3,1.3-4.6,2.1-6.8
		c0.8-2.2,1.5-4.5,2.3-6.6c0.8-2.2,1.4-4.3,1.7-6.5c0.4-2.1,0.5-4.3,0.3-6.4c-0.2-2.1-0.8-4.3-1.8-6.5c0-0.7,0-1.3-0.1-1.8
		c0-0.5,0-1-0.1-1.3c0-0.4,0-0.8-0.1-1.2c-0.1-0.4-0.2-0.8-0.3-1.2c0.3-0.7,0.4-1.4,0.5-2c0.2-0.6,0.2-1.2,0-1.7
		c0.1-0.4,0.2-0.7,0.3-0.9c0.2-0.3,0.3-0.5,0.5-0.7c0.2-0.3,0.4-0.5,0.5-0.7c0.2-0.3,0.3-0.6,0.4-0.9h1.7c0.6,0.5,1.1,0.9,1.5,1.3
		C584.9,439.2,585.5,439.4,586.1,439.5L586.1,439.5z"/>
	<path id="path1253" class="st45" d="M638.9,438.8c1.1,0.8,2.1,1.8,2.7,3c0.7,1.1,1.3,2.4,1.7,3.8c0.4,1.3,0.7,2.7,0.9,4.1
		c0.3,1.4,0.5,2.8,0.6,4.1c-0.5,1.8-1.4,3.6-2.7,5.2c-1.2,1.7-2.7,3-4.5,4c-1.6,1.2-3,2.3-4.2,3.3c-1.2,0.9-2.6,1.6-4.3,1.9
		c-0.4,0.4-0.8,0.8-1.3,1.2c-0.4,0.3-0.7,0.7-1,1.3c0.9,2.4,1.8,4.8,2.7,7.1c0.9,2.3,1.6,4.9,1.9,7.7c-0.6,0.4-1,0.9-1,1.6
		s-0.1,1.5-0.1,2.3c-0.6,0.7-1.1,1.5-1.4,2.3c-0.3,0.8-0.8,1.5-1.5,2c-0.2,0.1-0.3,0.1-0.5,0.1c-0.2-0.1-0.3-0.1-0.5,0
		c-0.7,0.4-1.4,0.8-2.1,1.4c-0.7,0.6-1.4,1-2.1,1.2c-1.4,0.4-2.7,0.5-4.1,0.5c-1.4-0.1-2.7-0.3-4-0.6c-1.3-0.4-2.4-0.9-3.5-1.5
		c-1.1-0.7-2.1-1.5-2.9-2.3c-0.6-1-1-2.1-1.4-3.2c-0.4-1.1-1-2.1-1.8-3c-0.3-1.7-0.4-3.6-0.5-5.9c0-2.3,0.4-4.6,1.1-6.8
		c0.3-0.7,0.6-1.4,1-2c0.4-0.6,0.6-1.2,0.5-2c0.3-0.1,0.4-0.2,0.5-0.3c0.2-0.2,0.4-0.3,0.6-0.4c0.2-0.4,0.1-0.7-0.1-0.9
		c-0.2-0.2-0.2-0.4-0.1-0.8c-0.8-1.1-1.6-2.2-2.3-3.4c-0.7-1.2-1.4-2.4-1.9-3.7s-0.8-2.6-0.9-4c-0.1-1.4,0.1-2.9,0.7-4.5
		c0-0.8,0.2-1.7,0.5-2.7c0.4-1,0.8-2,1.4-2.9c0.6-0.9,1.2-1.8,2-2.5c0.7-0.8,1.5-1.4,2.4-1.7c0-0.4,0.1-0.6,0.2-0.6
		c0.2-0.1,0.3-0.3,0.3-0.7c0.7-0.2,1.3-0.5,1.9-0.8c0.6-0.3,1.1-0.6,1.7-0.9c0.6-0.3,1.3-0.6,2-0.8c0.7-0.3,1.6-0.4,2.5-0.5
		c1.7-0.1,3.4,0,5.1,0.3c1.8,0.3,3.3,0.8,4.5,1.6c0.5,1.4,1.1,2.6,1.9,3.6c0.8,1,1.4,2,1.7,2.9c0.1,0.8,0.2,1.5,0.3,2.1
		c0.1,0.6,0.2,1.1,0.2,1.7c0,0.6-0.1,1.2-0.2,1.8c-0.2,0.6-0.4,1.3-0.9,2c1-0.3,1.9-0.7,2.6-1.3c0.7-0.6,1.3-1.4,1.6-2.5
		c0-0.9-0.2-1.6-0.7-2.3c-0.5-0.6-0.8-1.3-1.1-2.1c0.3-0.2,0.5-0.3,0.6-0.5c0.1-0.3,0.1-0.5,0.1-0.8c-0.1-0.3-0.1-0.5-0.2-0.8
		c-0.1-0.3-0.1-0.5-0.1-0.8c0.3-0.1,0.5-0.1,0.6,0c0.1,0.1,0.2,0.1,0.4-0.1c-0.1-0.4-0.2-0.6-0.2-0.6c0-0.1,0-0.2-0.1-0.5
		c0.2-0.3,0.5-0.5,0.8-0.8c0.3-0.3,0.6-0.2,0.9,0.1c-0.3-0.5-0.3-1-0.1-1.5c0.3-0.5,0.7-0.8,1.2-1.1c0.3,0.1,0.5,0.2,0.8,0.3
		C638.1,438.7,638.4,438.8,638.9,438.8L638.9,438.8z M620.4,483.4c0-0.4,0.1-0.6,0.2-0.8c0.2-0.2,0.3-0.4,0.4-0.7
		c-0.6-1.3-1.3-2.4-1.9-3.3c-0.6-0.9-1.5-1.8-2.9-2.7c-0.7,0.5-1.3,1-1.6,1.7s-0.6,1.4-0.6,2.1c-0.1,0.7,0.1,1.4,0.3,2
		c0.3,0.7,0.8,1.3,1.3,1.8c0.5-0.2,1.3-0.1,2.2,0.1C618.7,483.8,619.6,483.7,620.4,483.4L620.4,483.4z M618.4,460.7
		c0.8-0.4,1.6-0.8,2.4-1.1s1.7-0.6,2.5-0.9c0.8-0.3,1.6-0.7,2.4-1c0.8-0.4,1.5-0.9,2-1.6c-2,0-3.6-0.3-4.9-1
		c-1.3-0.7-1.8-1.9-1.8-3.6c-0.7-0.4-1.5-0.5-2.3-0.5c-0.8,0-1.6,0.2-2.3,0.5c-0.7,0.3-1.2,0.8-1.5,1.4c-0.3,0.6-0.3,1.2-0.1,2
		c-0.1,0.3-0.3,0.4-0.5,0.5c-0.3,0-0.4,0.2-0.4,0.5c0.8,0.7,1.5,1.5,2,2.4C616.6,459.2,617.4,460,618.4,460.7L618.4,460.7z"/>
</g>
</svg>
