<?xml version="1.0" encoding="utf-8"?>
<!-- Generator: Adobe Illustrator 18.0.0, SVG Export Plug-In . SVG Version: 6.00 Build 0)  -->
<!DOCTYPE svg PUBLIC "-//W3C//DTD SVG 1.1//EN" "http://www.w3.org/Graphics/SVG/1.1/DTD/svg11.dtd">
<svg version="1.1" id="Layer_1" xmlns="http://www.w3.org/2000/svg" xmlns:xlink="http://www.w3.org/1999/xlink" x="0px" y="0px"
	 viewBox="0 0 1416.1 424.5" enable-background="new 0 0 1416.1 424.5" xml:space="preserve">
<g id="XMLID_1_">
	<g id="XMLID_870_">
		<path id="XMLID_902_" fill="#FFFFFF" d="M1244.7,255.7c0,6.2,5,9.9,9.8,9.9c4.8,0,7.6-2.1,10.5-5.9l22.7-29.6l23,30.1
			c2.7,3.5,5.3,5.3,9.9,5.3c6.2,0,10.7-4.6,10.7-10.7c0-3.1-1.5-5.9-3.2-8l-26.3-32.4l24.9-30.5c2.1-2.7,3.2-5.2,3.2-8.3
			c0-6.2-5-9.9-9.8-9.9c-4.8,0-7.6,2.1-10.5,5.9l-21.3,28l-21.4-28.6c-2.7-3.5-5.3-5.3-9.9-5.3c-6.2,0-10.7,4.6-10.7,10.6
			c0,3.1,1.5,5.9,3.2,8l24.9,30.4l-26.5,32.5C1245.8,250.1,1244.7,252.6,1244.7,255.7 M1175.9,214.4v-28.2h21.4c10.5,0,17,4.8,17,14
			v0.3c0,8.3-6,13.9-16.5,13.9H1175.9z M1154.3,254.9c0,6,4.8,10.8,10.8,10.8c6,0,10.8-4.8,10.8-10.8v-21.4h17.2l21,26.6
			c2.5,3.2,5.7,5.6,10.7,5.6c5.2,0,10.2-3.9,10.2-9.9c0-3.4-1.4-5.6-3.5-8.3l-15-18.2c11.9-4.9,19.6-14.4,19.6-29.8v-0.3
			c0-9.3-2.9-17-8.4-22.4c-6.4-6.4-16.1-9.9-28.6-9.9h-34c-6,0-10.8,4.8-10.8,10.8V254.9z M1080.6,223.8l13.6-32.4l13.6,32.4H1080.6
			z M1045.8,255.6c0,5.6,4.3,10.1,10,10.1c4.5,0,8.1-2.5,9.9-6.7l6.9-16.1h43.2l6.6,15.4c2,4.5,5.3,7.4,10.4,7.4
			c5.7,0,10.2-4.6,10.2-10.4c0-1.4-0.4-2.8-1.1-4.3l-34.2-77.2c-2.4-5.3-6.6-8.5-12.5-8.5h-1.3c-5.9,0-10.2,3.2-12.6,8.5l-34.2,77.2
			C1046.4,252.5,1045.8,254,1045.8,255.6 M936.5,255.1c0,5.9,4.6,10.5,10.5,10.5c5.9,0,10.6-4.6,10.6-10.5v-48.8l18.6,28.7
			c2.2,3.4,5,5.5,9,5.5c3.9,0,6.7-2.1,9-5.5l18.9-29.1v48.9c0,5.9,4.8,10.8,10.7,10.8c6,0,10.8-4.8,10.8-10.8V177
			c0-6-4.8-10.8-10.8-10.8h-2.4c-4.3,0-7.4,1.8-9.7,5.5l-26.2,42.6l-26.1-42.5c-2-3.2-5.2-5.6-9.8-5.6h-2.4c-6,0-10.8,4.8-10.8,10.8
			V255.1z M842.4,254.9c0,6,4.8,10.8,10.8,10.8s10.8-4.8,10.8-10.8v-19.6l12.3-11.5l28,36.7c2.4,3.1,4.9,5.2,9.1,5.2
			c6.3,0,10.9-4.5,10.9-10.5c0-3.2-1.3-5.5-2.9-7.6l-30.1-37.8l27.6-25.8c2.4-2.2,3.9-4.8,3.9-8.1c0-5.3-3.9-9.9-10-9.9
			c-3.8,0-6.4,1.5-9.1,4.2L864,209.6v-32.9c0-6-4.8-10.8-10.8-10.8s-10.8,4.8-10.8,10.8V254.9z M790.5,266.5
			c15.7,0,26.1-4.6,34.9-12.3c2-1.7,3.6-4.3,3.6-7.7c0-5.5-4.6-10-10.1-10c-2.5,0-4.8,1-6.4,2.4c-6.2,4.9-12.2,7.7-21.3,7.7
			c-16.8,0-28.4-14-28.4-30.8v-0.3c0-16.8,11.9-30.5,28.4-30.5c7.7,0,14,2.5,20,7c1.5,1,3.5,2.1,6.4,2.1c5.9,0,10.6-4.6,10.6-10.5
			c0-3.8-2-6.9-4.2-8.5c-8.1-6-18.1-9.9-32.8-9.9c-30.1,0-51.1,22.8-51.1,50.7v0.3C740.2,244.2,761.7,266.5,790.5,266.5
			 M528.8,254.9c0,6,4.8,10.8,10.8,10.8c6,0,10.8-4.8,10.8-10.8v-29.4h39.8v29.4c0,6,4.8,10.8,10.8,10.8s10.8-4.8,10.8-10.8v-78.2
			c0-6-4.8-10.8-10.8-10.8s-10.8,4.8-10.8,10.8v28.9h-39.8v-28.9c0-6-4.8-10.8-10.8-10.8c-6,0-10.8,4.8-10.8,10.8V254.9z M477,266.5
			c15.7,0,26.1-4.6,34.9-12.3c2-1.7,3.6-4.3,3.6-7.7c0-5.5-4.6-10-10.1-10c-2.5,0-4.8,1-6.4,2.4c-6.2,4.9-12.2,7.7-21.3,7.7
			c-16.8,0-28.4-14-28.4-30.8v-0.3c0-16.8,11.9-30.5,28.4-30.5c7.7,0,14,2.5,20,7c1.5,1,3.5,2.1,6.4,2.1c5.9,0,10.7-4.6,10.7-10.5
			c0-3.8-2-6.9-4.2-8.5c-8.1-6-18.1-9.9-32.8-9.9c-30.1,0-51.1,22.8-51.1,50.7v0.3C426.6,244.2,448.1,266.5,477,266.5"/>
		<path id="XMLID_901_" fill="#FFFFFF" d="M702.2,265.4h-45.7c-15.1,0-27.4-12.3-27.4-27.4v-44.7c0-15.1,12.3-27.4,27.4-27.4h45.7
			c11.9,0,21.7,5.8,25.5,15.2c3.8,9.2,2,19.8-7.2,27.9c-0.3,0.3-4.3,3.4-4.7,3.7l-30.4,22.2c-4,3-9.7,2.2-12.7-1.8l-13.4-17.3
			c-3.1-4-2.4-9.8,1.6-12.9c4-3.1,9.8-2.4,12.9,1.6l7.9,10.2l26.3-19.3c3.1-2.6,2.5-5.4,1.7-7.3c-1-2.3-3.2-3.9-7.5-3.9h-45.7
			c-5,0-9,4.1-9,9v44.7c0,5,4.1,9,9,9h45.7c5,0,9-4.1,9-9v-3.5c0-5.1,4.1-9.2,9.2-9.2s9.2,4.1,9.2,9.2v3.5
			C729.6,253.1,717.3,265.4,702.2,265.4"/>
	</g>
	<g id="XMLID_869_">
		<g id="XMLID_1093_">
			<defs>
				<path id="XMLID_1094_" d="M165.6,77.9c-41.8,0-75.8,34-75.8,75.8v123.6c0,41.8,34,75.8,75.8,75.8H292c41.8,0,75.8-34,75.8-75.8
					v-9.6c0-14-11.4-25.4-25.4-25.4c-14,0-25.4,11.4-25.4,25.4v9.6c0,13.8-11.2,25-25,25H165.6c-13.8,0-25-11.2-25-25V154.7
					c0-13.8,11.2-25,25-25h126.1c3.2,0,5.9,0,8.4,0c0,0,0,0,0,0h13.2c31.2,0,58.1,24.3,30,66.4c-0.4,0.3-0.7,0.7-1.1,1
					c25.5-22.5,30.5-51.6,20-77.1c-10.7-25.9-37.7-42-70.5-42H165.6z"/>
			</defs>
			<clipPath id="XMLID_3_">
				<use xlink:href="#XMLID_1094_"  overflow="visible"/>
			</clipPath>
			
				<linearGradient id="XMLID_4_" gradientUnits="userSpaceOnUse" x1="404.2151" y1="582.4489" x2="410.4004" y2="582.4489" gradientTransform="matrix(19.5515 -53.7174 -53.7174 -19.5515 23555.1348 33483.6289)">
				<stop  offset="0" style="stop-color:#5AA342"/>
				<stop  offset="1" style="stop-color:#AFD241"/>
			</linearGradient>
			<polygon id="XMLID_1095_" clip-path="url(#XMLID_3_)" fill="url(#XMLID_4_)" points="1.4,320.9 122.9,-13 461.2,110.1 339.6,444 
							"/>
		</g>
		<g id="XMLID_1082_">
			<defs>
				<path id="XMLID_1083_" d="M165.6,77.9c-41.8,0-75.8,34-75.8,75.8v123.6c0,41.8,34,75.8,75.8,75.8H292c41.8,0,75.8-34,75.8-75.8
					v-9.6c0-14-11.4-25.4-25.4-25.4c-14,0-25.4,11.4-25.4,25.4v9.6c0,13.8-11.2,25-25,25H165.6c-13.8,0-25-11.2-25-25V154.7
					c0-13.8,11.2-25,25-25h126.1c3.2,0,5.9,0,8.4,0c0,0,0,0,0,0h13.2c31.2,0,58.1,24.3,30,66.4c-0.4,0.3-0.7,0.7-1.1,1
					c25.5-22.5,30.5-51.6,20-77.1c-10.7-25.9-37.7-42-70.5-42H165.6z"/>
			</defs>
			<clipPath id="XMLID_5_">
				<use xlink:href="#XMLID_1083_"  overflow="visible"/>
			</clipPath>
			<g id="XMLID_1084_" opacity="0.7" clip-path="url(#XMLID_5_)">
				<g id="XMLID_1085_">
					<defs>
						<rect id="XMLID_1086_" x="-86.3" y="36.8" width="442.1" height="168"/>
					</defs>
					<clipPath id="XMLID_6_">
						<use xlink:href="#XMLID_1086_"  overflow="visible"/>
					</clipPath>
					<defs>
						<filter id="Adobe_OpacityMaskFilter" filterUnits="userSpaceOnUse" x="-86.3" y="36.8" width="442.1" height="168">
							<feFlood  style="flood-color:white;flood-opacity:1" result="back"/>
							<feBlend  in="SourceGraphic" in2="back" mode="normal"/>
						</filter>
					</defs>
					<mask maskUnits="userSpaceOnUse" x="-86.3" y="36.8" width="442.1" height="168" id="XMLID_7_">
						<g id="XMLID_128_" filter="url(#Adobe_OpacityMaskFilter)">
							
								<linearGradient id="XMLID_8_" gradientUnits="userSpaceOnUse" x1="358.3729" y1="541.54" x2="364.5583" y2="541.54" gradientTransform="matrix(-8.213950e-02 9.4123 9.4123 8.213950e-02 -4932.6387 -3336.1133)">
								<stop  offset="0" style="stop-color:#FFFFFF"/>
								<stop  offset="1" style="stop-color:#000000"/>
							</linearGradient>
							<polygon id="XMLID_129_" clip-path="url(#XMLID_6_)" fill="url(#XMLID_8_)" points="357.2,36.9 355.7,208.7 -87.8,204.8 
								-86.3,33 							"/>
						</g>
					</mask>
					<g id="XMLID_1087_" clip-path="url(#XMLID_6_)" mask="url(#XMLID_7_)">
						<g id="XMLID_1090_">
							<defs>
								<rect id="XMLID_1091_" x="-86.3" y="36.8" width="442.1" height="168"/>
							</defs>
							<clipPath id="XMLID_9_">
								<use xlink:href="#XMLID_1091_"  overflow="visible"/>
							</clipPath>
							<path id="XMLID_1092_" clip-path="url(#XMLID_9_)" fill="#5AA342" d="M221,81.7C-88.4,67.1-25.3,158.5-25.5,175.5
								c19.9,8.1,322.6-11.5,303.2,19.6c-0.5,0.8-1,1.7-1.6,2.5c-0.4,0.3-0.7,0.7-1.1,1c1.4-1.3,2.8-2.5,4.1-3.8
								c0.3-0.3,0.6-0.6,0.8-0.8c1.2-1.3,2.4-2.6,3.5-3.9c0.2-0.2,0.4-0.4,0.6-0.7c1-1.2,2-2.4,2.9-3.6c0.2-0.2,0.3-0.5,0.5-0.7
								c1-1.3,1.9-2.7,2.7-4.1c0.2-0.3,0.4-0.6,0.6-0.9c0.8-1.4,1.7-2.8,2.4-4.2c0,0,0-0.1,0.1-0.1c0.7-1.4,1.3-2.8,1.9-4.2
								c0.1-0.3,0.3-0.7,0.4-1c0.6-1.4,1.1-2.8,1.6-4.2c0.1-0.3,0.2-0.6,0.3-0.8c0.4-1.3,0.8-2.5,1.1-3.8c0.1-0.3,0.1-0.5,0.2-0.8
								c0.3-1.4,0.6-2.8,0.8-4.3c0.1-0.4,0.1-0.7,0.2-1.1c0.2-1.5,0.4-2.9,0.5-4.4C284.2,78.5,221,81.7,221,81.7"/>
						</g>
					</g>
				</g>
			</g>
		</g>
		<path id="XMLID_1081_" fill="#50963C" d="M312.3,139.5c2.2,5.4,4,13-4.7,20.3L235.2,213l-21.9-28.3c-8.6-11.1-24.5-13.1-35.6-4.5
			c-11.1,8.6-13.1,24.5-4.5,35.6l37.1,47.9c8.4,10.9,24,13.1,35.1,4.9l84-61.4c1-0.7,12.1-9.3,13-10.1c0.4-0.3,0.7-0.7,1.1-1
			c28.1-42.1,1.2-66.4-30-66.4h-13.2C306.5,131.3,310.4,134.8,312.3,139.5"/>
		<defs>
			<filter id="Adobe_OpacityMaskFilter_1_" filterUnits="userSpaceOnUse" x="265.2" y="183.4" width="111.3" height="49.5">
				<feFlood  style="flood-color:white;flood-opacity:1" result="back"/>
				<feBlend  in="SourceGraphic" in2="back" mode="normal"/>
			</filter>
		</defs>
		<mask maskUnits="userSpaceOnUse" x="265.2" y="183.4" width="111.3" height="49.5" id="XMLID_10_">
			<g id="XMLID_116_" filter="url(#Adobe_OpacityMaskFilter_1_)">
				
					<linearGradient id="XMLID_11_" gradientUnits="userSpaceOnUse" x1="379.7267" y1="583.1445" x2="385.912" y2="583.1445" gradientTransform="matrix(-3.5185 12.1901 12.1901 3.5185 -5142.0493 -6424.0088)">
					<stop  offset="0" style="stop-color:#FFFFFF"/>
					<stop  offset="1" style="stop-color:#000000"/>
				</linearGradient>
				<polygon id="XMLID_117_" fill="url(#XMLID_11_)" points="1456.9,102.3 1224,909.1 -219.4,492.5 13.5,-314.3 				"/>
			</g>
		</mask>
		<g id="XMLID_1075_" mask="url(#XMLID_10_)">
			<g id="XMLID_1078_">
				<defs>
					<rect id="XMLID_1079_" x="265.2" y="183.4" width="111.3" height="49.5"/>
				</defs>
				<clipPath id="XMLID_12_">
					<use xlink:href="#XMLID_1079_"  overflow="visible"/>
				</clipPath>
				<path id="XMLID_1080_" clip-path="url(#XMLID_12_)" d="M320.9,226.7"/>
			</g>
		</g>
		<defs>
			<filter id="Adobe_OpacityMaskFilter_2_" filterUnits="userSpaceOnUse" x="268.8" y="172.2" width="111.3" height="49.5">
				<feFlood  style="flood-color:white;flood-opacity:1" result="back"/>
				<feBlend  in="SourceGraphic" in2="back" mode="normal"/>
			</filter>
		</defs>
		<mask maskUnits="userSpaceOnUse" x="268.8" y="172.2" width="111.3" height="49.5" id="XMLID_13_">
			<g id="XMLID_110_" filter="url(#Adobe_OpacityMaskFilter_2_)">
				
					<linearGradient id="XMLID_14_" gradientUnits="userSpaceOnUse" x1="378.9478" y1="583.1397" x2="385.1331" y2="583.1397" gradientTransform="matrix(-3.5185 12.1901 12.1901 3.5185 -5141.4634 -6425.8232)">
					<stop  offset="0" style="stop-color:#FFFFFF"/>
					<stop  offset="1" style="stop-color:#000000"/>
				</linearGradient>
				<polygon id="XMLID_111_" fill="url(#XMLID_14_)" points="1456.9,102.3 1224,909.1 -219.4,492.5 13.5,-314.3 				"/>
			</g>
		</mask>
		<g id="XMLID_1069_" mask="url(#XMLID_13_)">
			<g id="XMLID_1072_">
				<defs>
					<rect id="XMLID_1073_" x="268.8" y="172.2" width="111.3" height="49.5"/>
				</defs>
				<clipPath id="XMLID_15_">
					<use xlink:href="#XMLID_1073_"  overflow="visible"/>
				</clipPath>
				<path id="XMLID_1074_" clip-path="url(#XMLID_15_)" d="M324.5,215.5"/>
			</g>
		</g>
		<g id="XMLID_1040_" opacity="0.7">
			<g id="XMLID_1041_">
				<defs>
					<rect id="XMLID_1042_" x="233.4" y="38.4" width="189.5" height="164.8"/>
				</defs>
				<clipPath id="XMLID_16_">
					<use xlink:href="#XMLID_1042_"  overflow="visible"/>
				</clipPath>
				<defs>
					<filter id="Adobe_OpacityMaskFilter_3_" filterUnits="userSpaceOnUse" x="233.4" y="38.4" width="189.5" height="164.8">
						<feFlood  style="flood-color:white;flood-opacity:1" result="back"/>
						<feBlend  in="SourceGraphic" in2="back" mode="normal"/>
					</filter>
				</defs>
				<mask maskUnits="userSpaceOnUse" x="233.4" y="38.4" width="189.5" height="164.8" id="XMLID_17_">
					<g id="XMLID_70_" filter="url(#Adobe_OpacityMaskFilter_3_)">
						
							<linearGradient id="XMLID_18_" gradientUnits="userSpaceOnUse" x1="358.1798" y1="560.9393" x2="364.3651" y2="560.9393" gradientTransform="matrix(-8.213950e-02 9.4123 9.4123 8.213950e-02 -4921.7778 -3336.3706)">
							<stop  offset="0" style="stop-color:#FFFFFF"/>
							<stop  offset="1" style="stop-color:#000000"/>
						</linearGradient>
						<polygon id="XMLID_71_" clip-path="url(#XMLID_16_)" fill="url(#XMLID_18_)" points="424.4,38.4 422.9,204.9 232,203.2 
							233.4,36.7 						"/>
					</g>
				</mask>
				<g id="XMLID_1043_" clip-path="url(#XMLID_16_)" mask="url(#XMLID_17_)">
					<g id="XMLID_1046_">
						<defs>
							<rect id="XMLID_1047_" x="233.4" y="38.4" width="189.5" height="164.8"/>
						</defs>
						<clipPath id="XMLID_19_">
							<use xlink:href="#XMLID_1047_"  overflow="visible"/>
						</clipPath>
						<g id="XMLID_1048_" clip-path="url(#XMLID_19_)">
							<defs>
								<path id="XMLID_1049_" d="M289.1,81.8c39.4,10.1,44.5,34.7,44.4,51.7c19.9,8.1,30.9,29,11.5,60.1c-0.5,0.8-1,1.7-1.6,2.5
									c-0.4,0.3-0.7,0.7-1.1,1c1.4-1.3,2.8-2.5,4.1-3.8c0.3-0.3,0.6-0.6,0.8-0.8c1.2-1.3,2.4-2.6,3.5-3.9c0.2-0.2,0.4-0.4,0.6-0.7
									c1-1.2,2-2.4,2.9-3.6c0.2-0.2,0.3-0.4,0.5-0.7c1-1.3,1.9-2.7,2.7-4.1c0.2-0.3,0.4-0.6,0.6-0.9c0.8-1.4,1.7-2.8,2.4-4.2
									c0,0,0-0.1,0.1-0.1c0.7-1.4,1.3-2.8,1.9-4.2c0.1-0.3,0.3-0.7,0.4-1c0.6-1.4,1.1-2.8,1.6-4.2c0.1-0.3,0.2-0.6,0.3-0.8
									c0.4-1.3,0.8-2.5,1.1-3.8c0.1-0.3,0.1-0.5,0.2-0.8c0.3-1.4,0.6-2.8,0.8-4.3c0.1-0.4,0.1-0.7,0.2-1.1
									c0.2-1.5,0.4-2.9,0.5-4.4C359.5,76.9,289.1,81.8,289.1,81.8"/>
							</defs>
							<clipPath id="XMLID_20_">
								<use xlink:href="#XMLID_1049_"  overflow="visible"/>
							</clipPath>
							
								<linearGradient id="XMLID_21_" gradientUnits="userSpaceOnUse" x1="-96.5309" y1="136.9869" x2="-90.3455" y2="136.9869" gradientTransform="matrix(1.000000e-03 0 0 -1.000000e-03 400.1512 498.1884)">
								<stop  offset="0" style="stop-color:#AFD241"/>
								<stop  offset="1" style="stop-color:#5AA342"/>
							</linearGradient>
							
								<rect id="XMLID_1050_" x="289.1" y="76.9" clip-path="url(#XMLID_20_)" fill="url(#XMLID_21_)" width="78.2" height="120.1"/>
						</g>
					</g>
				</g>
			</g>
		</g>
		<g id="XMLID_1031_" opacity="0.75">
			<g id="XMLID_1032_">
				<defs>
					<rect id="XMLID_1033_" x="244.4" y="86.4" width="166.4" height="119.2"/>
				</defs>
				<clipPath id="XMLID_22_">
					<use xlink:href="#XMLID_1033_"  overflow="visible"/>
				</clipPath>
				<defs>
					<filter id="Adobe_OpacityMaskFilter_4_" filterUnits="userSpaceOnUse" x="244.4" y="86.4" width="166.4" height="119.2">
						<feFlood  style="flood-color:white;flood-opacity:1" result="back"/>
						<feBlend  in="SourceGraphic" in2="back" mode="normal"/>
					</filter>
				</defs>
				<mask maskUnits="userSpaceOnUse" x="244.4" y="86.4" width="166.4" height="119.2" id="XMLID_23_">
					<g id="XMLID_59_" filter="url(#Adobe_OpacityMaskFilter_4_)">
						
							<linearGradient id="XMLID_24_" gradientUnits="userSpaceOnUse" x1="388.3409" y1="567.6286" x2="394.5277" y2="567.6286" gradientTransform="matrix(-7.2013 24.9495 24.9495 7.2013 -11015.6562 -13707.8037)">
							<stop  offset="0" style="stop-color:#FFFFFF"/>
							<stop  offset="1" style="stop-color:#000000"/>
						</linearGradient>
						<polygon id="XMLID_60_" clip-path="url(#XMLID_22_)" fill="url(#XMLID_24_)" points="442.5,95.5 398,249.9 212.6,196.4 
							257.2,42 						"/>
					</g>
				</mask>
				<g id="XMLID_1034_" clip-path="url(#XMLID_22_)" mask="url(#XMLID_23_)">
					<g id="XMLID_1037_">
						<defs>
							<rect id="XMLID_1038_" x="244.4" y="86.4" width="166.4" height="119.2"/>
						</defs>
						<clipPath id="XMLID_25_">
							<use xlink:href="#XMLID_1038_"  overflow="visible"/>
						</clipPath>
						<path id="XMLID_1039_" clip-path="url(#XMLID_25_)" fill="#36712A" d="M313.3,129.7h-13.2c6.5,1.6,10.3,5.1,12.3,9.8
							c1.6,3.9,2.9,8.9,0.4,14.1c36.3,3.1,31.6,35.9,26.6,45.8c0,0,0,0,0,0c0.3-0.3,0.7-0.5,1-0.8c0,0,0.1-0.1,0.1-0.1
							c0.3-0.2,0.5-0.4,0.7-0.6c0.1,0,0.1-0.1,0.2-0.1c0.2-0.1,0.3-0.3,0.5-0.4c0,0,0.1-0.1,0.1-0.1c0.1-0.1,0.3-0.2,0.3-0.3
							c0.4-0.3,0.7-0.7,1.1-1C371.4,154,344.5,129.7,313.3,129.7"/>
					</g>
				</g>
			</g>
		</g>
		<defs>
			<filter id="Adobe_OpacityMaskFilter_5_" filterUnits="userSpaceOnUse" x="116.2" y="170.8" width="122.3" height="63.8">
				<feFlood  style="flood-color:white;flood-opacity:1" result="back"/>
				<feBlend  in="SourceGraphic" in2="back" mode="normal"/>
			</filter>
		</defs>
		<mask maskUnits="userSpaceOnUse" x="116.2" y="170.8" width="122.3" height="63.8" id="XMLID_26_">
			<g id="XMLID_46_" filter="url(#Adobe_OpacityMaskFilter_5_)">
				
					<linearGradient id="XMLID_27_" gradientUnits="userSpaceOnUse" x1="385.2631" y1="583.5056" x2="391.4484" y2="583.5056" gradientTransform="matrix(-4.2725 14.8023 14.8023 4.2725 -6367.9497 -7914.0195)">
					<stop  offset="0" style="stop-color:#FFFFFF"/>
					<stop  offset="1" style="stop-color:#000000"/>
				</linearGradient>
				<polygon id="XMLID_47_" fill="url(#XMLID_27_)" points="1456.9,102.3 1224,909.1 -219.4,492.5 13.5,-314.3 				"/>
			</g>
		</mask>
		<g id="XMLID_1023_" mask="url(#XMLID_26_)">
			<g id="XMLID_1026_">
				<defs>
					<rect id="XMLID_1027_" x="116.2" y="170.8" width="122.3" height="63.8"/>
				</defs>
				<clipPath id="XMLID_29_">
					<use xlink:href="#XMLID_1027_"  overflow="visible"/>
				</clipPath>
				<g id="XMLID_1028_" clip-path="url(#XMLID_29_)">
					<defs>
						<path id="XMLID_1029_" d="M182.8,228.4l-11-14.3c0.4,0.6,0.8,1.2,1.2,1.7L182.8,228.4z"/>
					</defs>
					<clipPath id="XMLID_30_">
						<use xlink:href="#XMLID_1029_"  overflow="visible"/>
					</clipPath>
					
						<linearGradient id="XMLID_32_" gradientUnits="userSpaceOnUse" x1="-96.5309" y1="221.2254" x2="-90.3455" y2="221.2254" gradientTransform="matrix(1.000000e-03 0 0 -1.000000e-03 400.1512 498.1884)">
						<stop  offset="0" style="stop-color:#AFD241"/>
						<stop  offset="1" style="stop-color:#5AA342"/>
					</linearGradient>
					<rect id="XMLID_1030_" x="171.9" y="214.1" clip-path="url(#XMLID_30_)" fill="url(#XMLID_32_)" width="11" height="14.3"/>
				</g>
			</g>
		</g>
		<defs>
			<filter id="Adobe_OpacityMaskFilter_6_" filterUnits="userSpaceOnUse" x="84.9" y="199.4" width="338.6" height="160.3">
				<feFlood  style="flood-color:white;flood-opacity:1" result="back"/>
				<feBlend  in="SourceGraphic" in2="back" mode="normal"/>
			</filter>
		</defs>
		<mask maskUnits="userSpaceOnUse" x="84.9" y="199.4" width="338.6" height="160.3" id="XMLID_33_">
			<g id="XMLID_38_" filter="url(#Adobe_OpacityMaskFilter_6_)">
				
					<linearGradient id="XMLID_34_" gradientUnits="userSpaceOnUse" x1="391.3318" y1="586.5242" x2="397.5171" y2="586.5242" gradientTransform="matrix(25.553 0 0 -25.553 -9857.6279 15284.8203)">
					<stop  offset="0" style="stop-color:#FFFFFF"/>
					<stop  offset="1" style="stop-color:#000000"/>
				</linearGradient>
				<rect id="XMLID_39_" x="-96.5" y="66.8" fill="url(#XMLID_34_)" width="1430.6" height="461.1"/>
			</g>
		</mask>
		<g id="XMLID_1017_" mask="url(#XMLID_33_)">
			<g id="XMLID_1020_">
				<defs>
					<rect id="XMLID_1021_" x="84.9" y="199.4" width="338.6" height="160.3"/>
				</defs>
				<clipPath id="XMLID_35_">
					<use xlink:href="#XMLID_1021_"  overflow="visible"/>
				</clipPath>
				<path id="XMLID_1022_" clip-path="url(#XMLID_35_)" fill="#36712A" d="M367.8,277.7v-9.6c0-14-11.4-25.4-25.4-25.4
					c-14,0-25.4,11.4-25.4,25.4v9.6c0,13.8-11.2,25-25,25H165.7c-13.3,0-24.2-10.5-24.9-23.6h-0.2c0.9,22.1,8.2,74.4,57.1,74.4H292
					C333.8,353.5,367.8,319.5,367.8,277.7"/>
			</g>
		</g>
		<g id="XMLID_1008_" opacity="0.66">
			<g id="XMLID_1009_">
				<defs>
					<rect id="XMLID_1010_" x="84.8" y="235.4" width="171.7" height="123.9"/>
				</defs>
				<clipPath id="XMLID_36_">
					<use xlink:href="#XMLID_1010_"  overflow="visible"/>
				</clipPath>
				<defs>
					<filter id="Adobe_OpacityMaskFilter_7_" filterUnits="userSpaceOnUse" x="84.8" y="235.4" width="171.7" height="123.9">
						<feFlood  style="flood-color:white;flood-opacity:1" result="back"/>
						<feBlend  in="SourceGraphic" in2="back" mode="normal"/>
					</filter>
				</defs>
				<mask maskUnits="userSpaceOnUse" x="84.8" y="235.4" width="171.7" height="123.9" id="XMLID_37_">
					<g id="XMLID_28_" filter="url(#Adobe_OpacityMaskFilter_7_)">
						
							<linearGradient id="XMLID_40_" gradientUnits="userSpaceOnUse" x1="390.545" y1="553.5644" x2="396.7303" y2="553.5644" gradientTransform="matrix(-3.9545 13.7007 13.7007 3.9545 -5861.8081 -7267.7007)">
							<stop  offset="0" style="stop-color:#FFFFFF"/>
							<stop  offset="1" style="stop-color:#000000"/>
						</linearGradient>
						<polygon id="XMLID_31_" clip-path="url(#XMLID_36_)" fill="url(#XMLID_40_)" points="289.6,244.9 243.3,405 51.8,349.8 
							98.1,189.6 						"/>
					</g>
				</mask>
				<g id="XMLID_1011_" clip-path="url(#XMLID_36_)" mask="url(#XMLID_37_)">
					<g id="XMLID_1014_">
						<defs>
							<rect id="XMLID_1015_" x="84.8" y="235.4" width="171.7" height="123.9"/>
						</defs>
						<clipPath id="XMLID_41_">
							<use xlink:href="#XMLID_1015_"  overflow="visible"/>
						</clipPath>
						<path id="XMLID_1016_" clip-path="url(#XMLID_41_)" fill="#36712A" d="M190.6,302.3h-25c-13.3,0-24.2-10.5-24.9-23.6h-0.2
							c0.9,22.1,8.2,74.4,57.1,74.4h3.2C200.9,353.1,172.2,332.1,190.6,302.3"/>
					</g>
				</g>
			</g>
		</g>
	</g>
</g>
</svg>
