<?xml version="1.0" encoding="UTF-8" standalone="no"?>
<!-- Created with Inkscape (http://www.inkscape.org/) -->

<svg
   xmlns:dc="http://purl.org/dc/elements/1.1/"
   xmlns:cc="http://creativecommons.org/ns#"
   xmlns:rdf="http://www.w3.org/1999/02/22-rdf-syntax-ns#"
   xmlns:svg="http://www.w3.org/2000/svg"
   xmlns="http://www.w3.org/2000/svg"
   xmlns:sodipodi="http://sodipodi.sourceforge.net/DTD/sodipodi-0.dtd"
   xmlns:inkscape="http://www.inkscape.org/namespaces/inkscape"
   id="svg4295"
   version="1.1"
   inkscape:version="0.91 r13725"
   xml:space="preserve"
   width="750"
   height="126.4"
   viewBox="0 0 750 126.4"
   sodipodi:docname="digitalocean.svg"><metadata
     id="metadata4301"><rdf:RDF><cc:Work
         rdf:about=""><dc:format>image/svg+xml</dc:format><dc:type
           rdf:resource="http://purl.org/dc/dcmitype/StillImage" /><dc:title></dc:title></cc:Work></rdf:RDF></metadata><defs
     id="defs4299" /><sodipodi:namedview
     pagecolor="#ffffff"
     bordercolor="#666666"
     borderopacity="1"
     objecttolerance="10"
     gridtolerance="10"
     guidetolerance="10"
     inkscape:pageopacity="0"
     inkscape:pageshadow="2"
     inkscape:window-width="1920"
     inkscape:window-height="985"
     id="namedview4297"
     showgrid="false"
     inkscape:zoom="1.7094039"
     inkscape:cx="539.77842"
     inkscape:cy="63.200001"
     inkscape:window-x="0"
     inkscape:window-y="24"
     inkscape:window-maximized="1"
     inkscape:current-layer="g4303" /><g
     id="g4303"
     inkscape:groupmode="layer"
     inkscape:label="ink_ext_XXXXXX"
     transform="matrix(1.25,0,0,-1.25,0,126.4)"><g
       id="g4305"
       transform="scale(0.1,0.1)"><path
         d="m 505.613,0 0,195.82 c 207.813,0 368.489,205.676 289.157,424.141 -29.387,80.922 -93.934,145.461 -174.864,174.824 -218.433,79.266 -424.054,-81.363 -424.086,-289.133 0,0 -0.019,-0.047 -0.047,-0.047 L 0,505.602 C 0,836.668 319.84,1094.45 666.758,986.148 818.359,938.82 938.828,818.352 986.156,666.746 1094.45,319.832 836.684,0 505.613,0"
         style="fill:#4b73c2;fill-opacity:1;fill-rule:nonzero;stroke:none"
         id="path4307"
         inkscape:connector-curvature="0" /><path
         d="m 506.063,195.32 -195.239,0 0,195.176 c 0,0 0.016,0.031 0.035,0.031 l 195.172,0 c 0.02,0 0.032,-0.011 0.032,-0.011 l 0,-195.196"
         style="fill:#4b73c2;fill-opacity:1;fill-rule:evenodd;stroke:none"
         id="path4309"
         inkscape:connector-curvature="0" /><path
         d="m 310.789,45.3125 -149.961,0 -0.031,0.0352 0,149.9723 150.027,0 0,-149.9723 -0.035,-0.0352"
         style="fill:#4b73c2;fill-opacity:1;fill-rule:evenodd;stroke:none"
         id="path4311"
         inkscape:connector-curvature="0" /><path
         d="m 160.898,195.316 -125.7105,0 c -0.0508,0 -0.0898,0.043 -0.0898,0.043 l 0,125.653 c 0,0 0.039,0.086 0.0898,0.086 l 125.6215,0 c 0.046,0 0.089,-0.039 0.089,-0.039 l 0,-125.743"
         style="fill:#4b73c2;fill-opacity:1;fill-rule:evenodd;stroke:none"
         id="path4313"
         inkscape:connector-curvature="0" /><path
         d="m 1509.79,681.09 57.52,0 c 64,0 116.69,-12.586 156.63,-37.445 44.35,-26.743 66.85,-77.622 66.85,-151.215 0,-75.805 -22.55,-128.973 -67,-158.067 l -0.03,0 c -38.27,-25.316 -90.63,-38.148 -155.65,-38.148 l -58.32,0 0,384.875 z m 290.37,37.758 c -57.9,40.172 -129.95,60.535 -214.14,60.535 l -183.27,0 0,-581.461 183.27,0 c 83.98,0 156.06,21.5 214.21,63.855 31.64,22.45 56.5,53.832 73.9,93.239 17.31,39.203 26.09,85.437 26.09,137.414 0,51.375 -8.78,97.011 -26.1,135.656 -17.4,38.832 -42.28,69.367 -73.96,90.762"
         style="fill:#4b73c2;fill-opacity:1;fill-rule:nonzero;stroke:none"
         id="path4315"
         inkscape:connector-curvature="0" /><path
         d="m 2027.8,786.543 c -17.62,0 -32.8,-6.25 -45.02,-18.488 -12.37,-11.782 -18.65,-26.719 -18.65,-44.379 0,-17.621 6.25,-32.785 18.56,-45.102 12.31,-12.316 27.49,-18.57 45.11,-18.57 17.59,0 32.77,6.254 45.1,18.57 12.33,12.336 18.57,27.5 18.57,45.102 0,17.64 -6.28,32.578 -18.57,44.297 -12.33,12.32 -27.51,18.57 -45.1,18.57"
         style="fill:#4b73c2;fill-opacity:1;fill-rule:nonzero;stroke:none"
         id="path4317"
         inkscape:connector-curvature="0" /><path
         d="m 1975.28,197.922 103.039,0 0,409.531 -103.039,0 0,-409.531 z"
         style="fill:#4b73c2;fill-opacity:1;fill-rule:nonzero;stroke:none"
         id="path4319"
         inkscape:connector-curvature="0" /><path
         d="M 2425.54,331.371 C 2407.53,310.926 2384.4,301 2354.85,301 c -29.55,0 -52.55,9.926 -70.29,30.352 -17.67,20.324 -26.64,47.269 -26.64,80.093 0,33.344 8.97,60.641 26.65,81.106 17.51,20.262 41.15,30.539 70.28,30.539 29.53,0 52.66,-9.988 70.68,-30.578 17.94,-20.469 27.04,-47.746 27.04,-81.067 0,-32.804 -9.1,-59.75 -27.03,-80.074 z m 27.03,241.867 c -31.07,27.645 -65.78,43.77 -103.3,43.77 -56.88,0 -104.16,-19.684 -140.5,-58.453 -36.82,-38.457 -55.49,-87.957 -55.49,-147.11 0,-57.812 18.38,-107.144 54.7,-146.695 36.62,-38.273 84.15,-57.668 141.29,-57.668 39.73,0 73.89,11.059 101.71,32.91 l 0,-9.429 c 0,-33.981 -9.1,-60.411 -27.04,-78.571 -17.92,-18.133 -42.77,-27.316 -73.86,-27.316 -47.57,0 -77.38,18.691 -113.68,67.75 l -70.17,-67.422 1.89,-2.66 c 15.16,-21.27 38.37,-42.0901 69.02,-61.8752 30.65,-19.7032 69.18,-29.711 114.53,-29.711 61.17,0 110.67,18.8594 147.11,56.0391 36.65,37.3871 55.24,87.4371 55.24,148.7381 l 0,371.918 -101.45,0 0,-34.215"
         style="fill:#4b73c2;fill-opacity:1;fill-rule:nonzero;stroke:none"
         id="path4321"
         inkscape:connector-curvature="0" /><path
         d="m 2642.21,197.922 103.051,0 0,409.531 -103.051,0 0,-409.531 z"
         style="fill:#4b73c2;fill-opacity:1;fill-rule:nonzero;stroke:none"
         id="path4323"
         inkscape:connector-curvature="0" /><path
         d="m 2694.73,786.543 c -17.62,0 -32.79,-6.25 -45.02,-18.488 -12.37,-11.782 -18.64,-26.719 -18.64,-44.379 0,-17.621 6.24,-32.785 18.56,-45.102 12.31,-12.316 27.48,-18.57 45.1,-18.57 17.6,0 32.78,6.254 45.1,18.57 12.33,12.336 18.57,27.5 18.57,45.102 0,17.64 -6.27,32.578 -18.57,44.297 -12.32,12.32 -27.5,18.57 -45.1,18.57"
         style="fill:#4b73c2;fill-opacity:1;fill-rule:nonzero;stroke:none"
         id="path4325"
         inkscape:connector-curvature="0" /><path
         d="m 2971.13,718.105 -101.45,0 0,-110.652 -58.91,0 0,-93.918 58.91,0 0,-170.113 c 0,-53.231 10.63,-91.32 31.62,-113.192 21.04,-21.972 58.4,-33.113 111.04,-33.113 16.74,0 33.59,0.559 50.07,1.629 l 4.64,0.309 0,93.859 -35.34,-1.859 c -24.53,0 -40.91,4.312 -48.7,12.793 -7.88,8.625 -11.88,26.863 -11.88,54.179 l 0,155.508 95.92,0 0,93.918 -95.92,0 0,110.652"
         style="fill:#4b73c2;fill-opacity:1;fill-rule:nonzero;stroke:none"
         id="path4327"
         inkscape:connector-curvature="0" /><path
         d="m 3550.24,197.922 103.063,0 0,581.461 -103.063,0 0,-581.461 z"
         style="fill:#4b73c2;fill-opacity:1;fill-rule:nonzero;stroke:none"
         id="path4329"
         inkscape:connector-curvature="0" /><path
         d="m 4694.4,344.355 c -18.44,-20.66 -37.3,-38.566 -51.82,-47.875 l 0,-0.019 c -14.25,-9.141 -32.23,-13.781 -53.44,-13.781 -30.36,0 -54.78,11.058 -74.67,33.836 -19.78,22.656 -29.81,51.765 -29.81,86.574 0,34.808 9.9,63.879 29.43,86.367 19.62,22.633 43.91,33.633 74.25,33.633 33.19,0 68.19,-20.641 98.18,-56.094 l 68.11,65.313 0,0 c -44.41,57.8 -101.06,84.699 -168.67,84.699 -56.58,0 -105.63,-20.613 -145.77,-61.238 -39.93,-40.336 -60.18,-91.711 -60.18,-152.68 0,-60.969 20.23,-112.465 60.12,-153.07 39.93,-40.645 89,-61.258 145.83,-61.258 74.62,0 134.83,32.211 175.43,91.218 l -66.99,64.375"
         style="fill:#4b73c2;fill-opacity:1;fill-rule:nonzero;stroke:none"
         id="path4331"
         inkscape:connector-curvature="0" /><path
         d="m 4892.11,453.824 c 4.96,19.582 13.99,35.903 26.91,48.571 13.97,13.742 32.14,20.695 54.03,20.695 24.98,0 44.31,-7.102 57.47,-21.149 12.19,-13 19.07,-29.175 20.51,-48.117 l -158.92,0 z m 225.24,96.414 c -14.62,20.367 -34.52,36.746 -59.18,48.735 -24.58,11.968 -53.23,18.035 -85.15,18.035 -57.52,0 -104.59,-21.231 -139.93,-63.117 -34.31,-41.575 -51.69,-93.239 -51.69,-153.586 0,-62.063 19.08,-113.438 56.7,-152.68 37.42,-39.059 87.5,-58.863 148.85,-58.863 69.49,0 126.52,28.101 169.49,83.539 l 2.32,2.98 -67.23,64.606 0,0 c -6.24,-7.512 -15.06,-16.039 -23.12,-23.637 -10.18,-9.602 -19.74,-17.027 -29.96,-22.113 -15.4,-7.672 -32.68,-11.457 -52,-11.457 -28.56,0 -52.2,8.398 -70.28,24.965 -16.91,15.496 -26.79,36.394 -29.41,62.207 l 273.02,0 0.92,37.613 c 0,26.613 -3.62,52.262 -10.77,76.234 -7.15,24.02 -18.12,46.403 -32.58,66.539"
         style="fill:#4b73c2;fill-opacity:1;fill-rule:nonzero;stroke:none"
         id="path4333"
         inkscape:connector-curvature="0" /><path
         d="m 5330.13,354.418 c 11.69,8.148 28.2,12.258 49.09,12.258 24.81,0 51.12,-4.977 78.23,-14.817 l 0,-40.171 c -22.4,-20.817 -52.31,-31.379 -88.95,-31.379 -17.84,0 -31.71,3.961 -41.24,11.8 -9.36,7.676 -13.9,17.434 -13.9,29.793 0,14.051 5.48,24.696 16.77,32.516 z m 182.97,222.395 -0.01,0 c -31.23,26.66 -74.4,40.195 -128.3,40.195 -34.29,0 -66.35,-7.535 -95.36,-22.242 -26.83,-13.606 -53.18,-36.141 -69.92,-65.637 l 1.04,-1.254 65.99,-63.172 c 27.18,43.34 57.4,58.387 97.47,58.387 21.53,0 39.41,-5.777 53.14,-17.168 13.66,-11.309 20.3,-25.688 20.3,-43.926 l 0,-19.891 c -25.55,7.778 -51.03,11.719 -75.83,11.719 -51.28,0 -93.01,-12.07 -124.01,-35.859 -31.4,-24.098 -47.31,-58.555 -47.31,-102.438 0,-38.48 13.42,-69.738 39.98,-92.968 26.78,-22.411 60.26,-33.797 99.5,-33.797 39.23,0 75.94,15.812 109.26,42.883 l 0,-33.723 101.47,0 0,263.269 c 0,49.848 -15.95,88.739 -47.41,115.622"
         style="fill:#4b73c2;fill-opacity:1;fill-rule:nonzero;stroke:none"
         id="path4335"
         inkscape:connector-curvature="0" /><path
         d="m 5956.94,568.789 c -28.7,31.981 -69.04,48.219 -119.9,48.219 -40.88,0 -74.08,-11.742 -98.92,-34.91 l 0,25.355 -101.06,0 0,-409.531 103.05,0 0,225.863 c 0,31.031 7.39,55.664 21.95,73.242 14.52,17.539 34.5,26.063 61.05,26.063 23.34,0 41.04,-7.617 54.09,-23.277 13.11,-15.743 19.75,-37.426 19.75,-64.497 l 0,-237.394 103.05,0 0,237.394 c 0,56.719 -14.48,101.618 -43.06,133.473"
         style="fill:#4b73c2;fill-opacity:1;fill-rule:nonzero;stroke:none"
         id="path4337"
         inkscape:connector-curvature="0" /><path
         d="m 3237.76,354.418 c 11.69,8.148 28.21,12.258 49.1,12.258 24.81,0 51.11,-4.977 78.23,-14.817 l 0,-40.171 c -22.4,-20.817 -52.32,-31.379 -88.96,-31.379 -17.84,0 -31.7,3.961 -41.23,11.8 -9.36,7.676 -13.91,17.434 -13.91,29.793 0,14.051 5.49,24.696 16.77,32.516 z m 182.97,222.395 -0.01,0 c -31.23,26.66 -74.4,40.195 -128.29,40.195 -34.29,0 -66.35,-7.535 -95.36,-22.242 -26.84,-13.606 -53.19,-36.141 -69.92,-65.637 l 1.03,-1.254 65.99,-63.172 c 27.18,43.34 57.41,58.387 97.47,58.387 21.53,0 39.41,-5.777 53.14,-17.168 13.66,-11.309 20.31,-25.688 20.31,-43.926 l 0,-19.891 c -25.56,7.778 -51.04,11.719 -75.84,11.719 -51.28,0 -93.01,-12.07 -124.01,-35.859 -31.39,-24.098 -47.31,-58.555 -47.31,-102.438 0,-38.48 13.42,-69.738 39.99,-92.968 26.78,-22.411 60.25,-33.797 99.5,-33.797 39.23,0 75.93,15.812 109.25,42.883 l 0,-33.723 101.47,0 0,263.269 c 0,49.848 -15.94,88.739 -47.41,115.622"
         style="fill:#4b73c2;fill-opacity:1;fill-rule:nonzero;stroke:none"
         id="path4339"
         inkscape:connector-curvature="0" /><path
         d="m 4027.2,683.023 c -107.03,0 -194.11,-87.07 -194.11,-194.109 0,-107.039 87.08,-194.109 194.11,-194.109 107.03,0 194.11,87.07 194.11,194.109 0,107.039 -87.08,194.109 -194.11,194.109 z m 0,-493.855 c -165.29,0 -299.75,134.461 -299.75,299.746 0,165.285 134.46,299.746 299.75,299.746 165.28,0 299.74,-134.461 299.74,-299.746 0,-165.285 -134.46,-299.746 -299.74,-299.746"
         style="fill:#4b73c2;fill-opacity:1;fill-rule:nonzero;stroke:none"
         id="path4341"
         inkscape:connector-curvature="0" /></g></g></svg>